<?xml version="1.0" standalone="no"?> <!DOCTYPE svg PUBLIC "-//W3C//DTD SVG 1.0//EN" "http://www.w3.org/TR/2001/REC-SVG-20010904/DTD/svg10.dtd" > <svg xmlns="http://www.w3.org/2000/svg" width="100%" height="100%">
<defs >
<font id="LBBWLucidaW_Sans_Roman" horiz-adv-x="534" ><font-face
    font-family="LBBWLucidaW Sans"
    units-per-em="1000"
    panose-1="2 0 5 6 5 0 0 2 0 4"
    ascent="858"
    descent="-195"
    alphabetic="0" />
<missing-glyph horiz-adv-x="333" d="M48 0V750H283V0H48ZM110 63H220V688H110V63Z" />
<glyph unicode=" " glyph-name="space" horiz-adv-x="292" />
<glyph unicode="!" glyph-name="exclam" horiz-adv-x="292" d="M190 533Q190 504 189 474T186 415L179 178H113L105 415Q104 444 103 474T101 533V667H190V533ZM101 0V89H190V0H101Z" />
<glyph unicode="&quot;" glyph-name="quotedbl" horiz-adv-x="344" d="M283 489H217L206 711H294L283 489ZM128 489H61L50 711H139L128 489Z" />
<glyph unicode="#" glyph-name="numbersign" horiz-adv-x="583" d="M565 411H428L389 256H535L523 200H375L325 0H268L318 200H199L149 0H92L142 200H7L18 256H156L194 411H49L60 467H208L258 667H316L266 467H384L434 667H492L442 467H577L565 411ZM252 411L213
256H332L370 411H252Z" />
<glyph unicode="$" glyph-name="dollar" horiz-adv-x="583" d="M474 187Q474 114 432 64T319 0V-56H275V0Q229 0 185 10T97 37V114Q142 94 183 82T275 67V306Q246 324 218 343T167 385T131 438T117 507Q117 542 129 570T162 619T213 652T275 667V722H319V667Q357
665 392 657T463 636V564Q428 579 393 590T319 606V368Q346 353 373 336T423 298T460 250T474 187ZM275 603Q241 592 218 569T194 508Q194 487 200 471T218 442T244 418T275 397V603ZM397 173Q397 194 391 209T374 237T349 259T319 280L318 72Q354 84 375 109T397
173Z" />
<glyph unicode="%" glyph-name="percent" horiz-adv-x="617" d="M289 500Q289 467 281 437T255 383T210 347T147 333Q110 333 84 346T40 383T14 436T6 500Q6 533 14 563T40 616T84 653T147 667Q183 667 210 654T254 617T280 564T289 500ZM81 -17H11L536 683H606L81
-17ZM611 167Q611 134 603 104T577 50T533 14T469 0Q432 0 406 13T362 50T336 103T328 167Q328 200 336 230T362 283T406 319T469 333Q505 333 532 320T576 284T602 231T611 167ZM222 500Q222 518 219 539T208 578T185 609T147 622Q124 622 110 610T87 579T75 539T72
500Q72 482 75 461T86 422T109 391T147 378Q170 378 184 390T207 421T219 461T222 500ZM544 167Q544 185 541 206T529 245T506 276T469 289Q446 289 432 277T409 246T398 206T394 167Q394 149 397 128T408 88T431 57T469 44Q492 44 506 56T529 87T541 127T544 167Z"
/>
<glyph unicode="&amp;" glyph-name="ampersand" horiz-adv-x="643" d="M479 0L446 39Q408 10 365 -3T273 -17Q225 -17 182 -3T105 40T53 107T33 198Q33 243 51 284T102 356Q125 376 146 387T196 407Q179 439 165 472T151 543Q151 575 165 601T201 645T253 673T313
683Q343 683 370 674T417 647T450 605T462 548Q462 516 449 490T415 442T368 404T316 374Q384 254 472 153Q486 175 494 199T507 249T511 301T512 354H601Q598 279 580 219T513 99Q534 72 557 48T605 0H479ZM378 546Q378 578 359 597T308 616Q276 616 258 597T240
546Q240 515 253 486T282 430Q300 438 317 449T348 474T370 506T378 546ZM406 91Q307 214 226 354Q179 336 151 305T122 220Q122 185 134 154T169 100T221 64T287 50Q322 50 350 60T406 91Z" />
<glyph unicode="&apos;" glyph-name="quotesingle" horiz-adv-x="211" d="M139 467H72L50 711H161L139 467Z" />
<glyph unicode="(" glyph-name="parenleft" horiz-adv-x="300" d="M267 -133Q245 -118 228 -105T197 -78T170 -47T143 -7Q101 59 79 135T56 289Q56 364 79 442T143 585Q157 607 170 624T197 655T228 683T267 711V650Q247 627 229 603T196 552Q166 493 156 424T145
289Q145 223 155 155T196 26Q210 -1 228 -25T267 -72V-133Z" />
<glyph unicode=")" glyph-name="parenright" horiz-adv-x="300" d="M245 289Q245 211 222 135T157 -7Q143 -30 130 -46T103 -77T72 -105T33 -133V-72Q70 -33 93 9T131 95T150 188T156 289Q156 320 153 354T144 423T128 490T104 552Q90 579 72 603T33 650V711Q55
696 72 683T103 656T130 624T157 585Q199 519 222 443T245 289Z" />
<glyph unicode="*" glyph-name="asterisk" horiz-adv-x="444" d="M259 487Q259 497 257 506T247 524L374 580L395 517L259 487ZM242 529Q233 534 222 534Q210 534 203 529L189 667H255L242 529ZM296 338L225 459Q247 461 257 481L350 377L296 338ZM198 524Q181
509 186 487L49 517L70 580L198 524ZM149 338L95 377L188 481Q192 472 200 466T219 459L149 338Z" />
<glyph unicode="+" glyph-name="plus" horiz-adv-x="583" d="M325 233V22H258V233H47V300H258V511H325V300H536V233H325Z" />
<glyph unicode="," glyph-name="comma" horiz-adv-x="292" d="M201 15Q201 -15 197 -42T180 -91T147 -127T90 -144V-111Q106 -107 115 -95T128 -67T132 -34T133 -4V0H90V111H201V15Z" />
<glyph unicode="-" glyph-name="hyphen" horiz-adv-x="300" d="M50 244V311H250V244H50Z" />
<glyph unicode="." glyph-name="period" horiz-adv-x="292" d="M90 0V111H201V0H90Z" />
<glyph unicode="/" glyph-name="slash" horiz-adv-x="456" d="M78 -133H6L377 711H450L78 -133Z" />
<glyph unicode="0" glyph-name="zero" horiz-adv-x="583" d="M526 333Q526 279 515 218T476 104T405 18T293 -17Q247 -17 213 -1T152 41T108 103T79 178T63 257T58 333Q58 369 63 409T79 488T108 562T152 624T212 667T293 683Q360 683 404 649T476 562T514 449T526
333ZM431 333Q431 355 430 385T424 446T410 508T385 563T347 601T292 616Q260 616 238 602T200 563T175 509T161 447T155 385T153 333Q153 310 154 280T160 219T174 157T199 103T237 65T292 50Q324 50 346 64T384 103T409 157T423 218T429 280T431 333Z" />
<glyph unicode="1" glyph-name="one" horiz-adv-x="583" d="M242 0V600H136V656L331 672V0H242Z" />
<glyph unicode="2" glyph-name="two" horiz-adv-x="583" d="M477 499Q477 454 462 420T423 357T369 303T307 251Q279 227 255 201T210 143Q199 126 194 112T184 78H474V0H76V78Q101 133 144 183T233 275Q258 298 284 321T333 370T368 427T382 496Q382 553 348
584T257 616Q210 616 172 601T93 563V641Q136 661 178 672T269 683Q312 683 350 672T416 637T460 579T477 499Z" />
<glyph unicode="3" glyph-name="three" horiz-adv-x="583" d="M483 185Q483 146 469 108T425 41Q390 6 344 -5T250 -17Q210 -17 171 -11T94 5V88Q130 73 167 62T245 50Q275 50 301 59T346 85T377 127T388 183Q388 212 378 238T345 285Q327 301 304 309T256 320T205
324H157V384H183Q218 384 256 388T323 414Q346 431 359 458T372 513Q372 540 363 559T337 591T298 610T251 616Q213 616 176 606T104 579V657Q144 669 180 676T258 683Q296 683 332 676T397 650T443 603T461 529Q461 495 451 469T421 422T377 387T322 361Q358 353
387 342T442 301Q463 277 473 247T483 185Z" />
<glyph unicode="4" glyph-name="four" horiz-adv-x="583" d="M430 189V0H347V189H47V256L347 667H430V261H518V189H430ZM353 558L134 261H353V558Z" />
<glyph unicode="5" glyph-name="five" horiz-adv-x="583" d="M474 191Q474 136 454 97T400 32T321 -5T226 -17Q197 -17 169 -13T112 -3V76Q142 64 174 57T238 50Q306 50 342 89T379 195Q379 240 361 269T314 315T247 339T173 346Q161 346 149 345T124 342V667H460V589H201V413Q236
413 267 409T332 394Q399 371 436 317T474 191Z" />
<glyph unicode="6" glyph-name="six" horiz-adv-x="583" d="M517 221Q517 173 502 130T458 54T389 2T297 -17Q227 -17 182 14T110 94T72 202T61 319Q61 356 66 396T82 475T110 549T154 614Q192 655 236 669T334 683Q372 683 409 677T483 659V581Q445 595 407 605T328
616Q273 616 240 590T188 523T164 435T157 345Q187 385 227 406T318 428Q363 428 400 412T463 369T503 303T517 221ZM428 204Q428 234 421 263T399 314T359 350T300 364Q272 364 247 354T203 327T173 287T161 235Q161 202 168 169T193 110T236 67T302 50Q335 50
359 63T398 97T421 146T428 204Z" />
<glyph unicode="7" glyph-name="seven" horiz-adv-x="583" d="M528 583Q489 526 444 453T357 302T283 146T241 0H139Q146 45 157 82T184 152T218 219T261 290L443 583H100V667H528V583Z" />
<glyph unicode="8" glyph-name="eight" horiz-adv-x="583" d="M526 172Q526 124 507 89T455 30T382 -5T298 -17Q256 -17 217 -6T148 27T99 84T80 164Q80 197 90 226T119 281T161 326T212 363Q191 377 174 392T143 425T122 464T114 513Q114 555 131 587T175 640T239
672T314 683Q347 683 380 675T439 649T482 604T499 539Q499 508 489 483T461 436T421 396T375 363Q405 348 432 331T481 290T514 238T526 172ZM418 527Q418 550 408 567T382 595T346 611T305 616Q285 616 266 611T231 595T205 568T195 529Q195 503 208 483T240
445T282 414T325 390Q343 402 359 416T389 447T410 484T418 527ZM434 158Q434 184 424 203T399 238T363 265T324 289L260 327Q239 312 223 297T194 265T176 226T169 178Q169 118 206 84T303 50Q327 50 350 56T392 76T422 110T434 158Z" />
<glyph unicode="9" glyph-name="nine" horiz-adv-x="583" d="M524 357Q524 319 519 279T502 200T471 124T427 60Q389 18 343 1T241 -17Q206 -17 172 -11T105 4V79Q140 67 175 59T248 50Q303 50 337 75T390 140T416 227T425 317Q393 278 359 256T271 233Q227 233
190 250T127 297T85 365T70 446Q70 494 85 537T129 612T198 664T289 683Q357 683 402 653T474 576T512 471T524 357ZM424 429Q424 446 421 466T412 507T396 546T375 578Q357 598 334 607T284 616Q250 616 226 603T187 568T166 518T159 460Q159 431 166 402T188
349T227 311T287 297Q315 297 339 307T383 335T413 377T424 429Z" />
<glyph unicode=":" glyph-name="colon" horiz-adv-x="292" d="M101 400V489H190V400H101ZM101 0V89H190V0H101Z" />
<glyph unicode=";" glyph-name="semicolon" horiz-adv-x="292" d="M101 400V489H190V400H101ZM190 4Q190 -21 187 -44T170 -90Q159 -110 142 -124T101 -144V-111Q113 -105 119 -95T129 -73T132 -48T133 -24V0H101V89H190V4Z" />
<glyph unicode="&lt;" glyph-name="less" horiz-adv-x="583" d="M47 267L536 511V433L196 267L536 100V22L47 267Z" />
<glyph unicode="=" glyph-name="equal" horiz-adv-x="583" d="M47 311V378H536V311H47ZM47 156V223H536V156H47Z" />
<glyph unicode="&gt;" glyph-name="greater" horiz-adv-x="583" d="M47 22V100L387 267L47 433V511L536 267L47 22Z" />
<glyph unicode="?" glyph-name="question" horiz-adv-x="389" d="M373 530Q373 500 365 478T342 436T309 401T270 365Q252 348 239 334T218 305T206 271T202 227V177H113V201Q113 228 117 249T129 289T149 325T179 363Q193 380 210 399T243 439T268 482T278 529Q278
553 268 569T241 596T204 611T163 616Q125 616 89 607T17 583V658Q55 670 93 676T171 683Q207 683 243 675T308 649T355 601T373 530ZM113 0V89H202V0H113Z" />
<glyph unicode="@" glyph-name="at" horiz-adv-x="792" d="M758 312Q758 262 742 214T695 128T622 67T524 44Q512 44 499 46T475 55T457 71T450 96Q450 106 453 120T460 148T470 176T478 200H472Q460 177 443 150T403 99T354 60T298 44Q255 44 233 73T211 143Q211
191 228 243T276 340T351 413T448 442Q457 442 465 442T483 440Q507 438 531 438T580 439L523 153Q520 139 520 125Q520 108 529 101T555 94Q591 94 619 115T667 167T697 236T708 304Q708 358 688 402T634 477T554 526T456 544Q384 544 318 514T202 432T122 315T92
176Q92 122 111 79T164 6T243 -40T340 -56Q361 -56 378 -55T410 -50T441 -40T476 -23L492 -69Q470 -79 452 -86T415 -97T377 -104T333 -106Q272 -106 219 -86T127 -30T65 57T42 171Q42 255 76 331T168 466T302 559T463 594Q523 594 577 573T671 515T734 426T758
312ZM500 374Q482 381 465 385T429 389Q406 389 386 382T348 357Q332 340 320 317T298 267T285 213T280 164Q280 155 281 144T287 123T299 107T318 100Q336 100 358 119T402 165T441 219T468 261L476 273Q480 279 483 286Q491 306 493 329T500 374Z" />
<glyph unicode="A" glyph-name="A" horiz-adv-x="636" d="M524 0L451 185H169L96 0H8L272 667H366L626 0H524ZM310 542L196 255H424L310 542Z" />
<glyph unicode="B" glyph-name="B" horiz-adv-x="530" d="M492 166Q492 135 480 106T447 53Q430 35 411 24T371 8T328 2T282 0H86V667H259Q300 667 341 660T415 626Q439 606 452 579T466 520Q466 487 453 457T417 402Q397 380 377 369T329 347Q361 337 387 326T439
290Q464 266 478 234T492 166ZM369 499Q369 532 355 551T318 580T269 593T216 596H179V374H210Q241 374 269 380T320 401T355 440T369 499ZM392 176Q392 212 375 238T330 281T270 306T206 314H179V71H228Q256 71 285 74T338 87T377 119T392 176Z" />
<glyph unicode="C" glyph-name="C" horiz-adv-x="638" d="M587 34Q559 20 534 10T483 -6T430 -14T372 -17Q309 -17 253 -2T149 57Q121 82 102 115T70 184T53 258T47 333Q47 410 71 484T153 611Q199 653 257 668T375 683Q429 683 481 675T586 654V565Q535 584 483
598T376 613Q332 613 293 601T222 557Q201 536 187 509T164 452T151 391T147 332Q147 276 161 226T204 139T278 79T384 57Q441 57 489 72T587 115V34Z" />
<glyph unicode="D" glyph-name="D" horiz-adv-x="691" d="M643 349Q643 274 620 204T543 79Q493 30 435 15T309 0H86V667H307Q343 667 376 665T440 654T500 629T556 587Q604 539 623 477T643 349ZM543 340Q543 393 528 446T474 538Q453 558 430 569T381 587T328
594T273 596H181V71H303Q327 71 349 73T392 80T433 96T471 124Q490 143 504 169T526 225T539 283T543 340Z" />
<glyph unicode="E" glyph-name="E" horiz-adv-x="500" d="M86 0V667H459V596H181V382H414V312H181V71H479V0H86Z" />
<glyph unicode="F" glyph-name="F" horiz-adv-x="494" d="M181 596V372H415V302H181V0H86V667H460V596H181Z" />
<glyph unicode="G" glyph-name="G" horiz-adv-x="667" d="M587 18Q535 4 483 -6T376 -17Q312 -17 255 -2T149 57Q121 82 102 115T70 184T53 258T47 333Q47 411 67 475T128 586T230 657T373 683Q427 683 480 675T586 653V566Q534 583 483 597T375 612Q332 612 293
601T222 557Q201 536 187 509T164 451T151 390T147 331Q147 272 163 216T222 117Q258 80 298 67T390 54Q418 54 442 58T492 71V288H587V18Z" />
<glyph unicode="H" glyph-name="H" horiz-adv-x="678" d="M497 0V315H181V0H86V667H181V385H497V667H592V0H497Z" />
<glyph unicode="I" glyph-name="I" horiz-adv-x="266" d="M86 0V667H181V0H86Z" />
<glyph unicode="J" glyph-name="J" horiz-adv-x="287" d="M205 84Q205 -20 156 -76T-2 -133Q-22 -133 -42 -131T-83 -124V-39Q-60 -47 -36 -51T12 -56Q45 -56 64 -45T94 -14T107 30T110 82V667H205V84Z" />
<glyph unicode="K" glyph-name="K" horiz-adv-x="602" d="M466 0L175 338V0H86V667H175V339L444 667H539L278 349L586 0H466Z" />
<glyph unicode="L" glyph-name="L" horiz-adv-x="492" d="M86 0V667H181V71H481V0H86Z" />
<glyph unicode="M" glyph-name="M" horiz-adv-x="794" d="M620 0V542L437 44H345L167 543V0H86V667H217L402 151L592 667H709V0H620Z" />
<glyph unicode="N" glyph-name="N" horiz-adv-x="681" d="M503 0L167 515V0H86V667H179L514 152V667H595V0H503Z" />
<glyph unicode="O" glyph-name="O" horiz-adv-x="717" d="M670 333Q670 261 650 197T591 86T494 11T358 -17Q281 -17 223 10T125 86T67 197T47 333Q47 405 66 468T125 580T222 655T358 683Q435 683 493 656T591 581T650 469T670 333ZM570 334Q570 385 559 435T524
524T459 588T358 612Q298 612 258 588T193 524T158 435T147 334Q147 283 157 233T192 143T257 79T358 54Q418 54 458 78T524 142T559 232T570 334Z" />
<glyph unicode="P" glyph-name="P" horiz-adv-x="510" d="M494 492Q494 448 480 406T432 333Q412 315 387 302T334 281T278 269T223 265H181V0H86V667H267Q291 667 315 666T362 661T408 646T448 619Q474 594 484 561T494 492ZM394 485Q394 522 381 544T346 577T297
592T239 596H181V336H219Q255 336 286 344T342 370T380 416T394 485Z" />
<glyph unicode="Q" glyph-name="Q" horiz-adv-x="717" d="M677 -133Q608 -110 542 -82T414 -12Q397 -14 382 -15T349 -17Q274 -17 218 12T123 89T66 201T47 333Q47 405 66 468T125 580T222 655T358 683Q436 683 494 656T592 580T650 468T670 332Q670 282 661 235T632
147T579 71T499 14Q612 -37 737 -58L677 -133ZM570 333Q570 384 560 434T524 523T459 587T358 612Q298 612 258 588T193 524T158 435T147 334Q147 283 157 233T192 143T257 79T358 54Q418 54 458 78T523 142T559 232T570 333Z" />
<glyph unicode="R" glyph-name="R" horiz-adv-x="583" d="M457 0L269 282H181V0H86V667H288Q330 667 368 659T438 621Q462 598 474 566T486 501Q486 464 472 430T434 368Q415 346 396 335T351 312L574 0H457ZM389 492Q389 526 376 546T342 578T294 592T240 596H181V353H211Q247
353 283 359T347 391Q367 410 378 437T389 492Z" />
<glyph unicode="S" glyph-name="S" horiz-adv-x="497" d="M451 176Q451 138 437 104T395 44Q358 8 313 -4T216 -17Q172 -17 130 -8T45 12V106Q89 86 134 70T229 54Q253 54 276 60T316 80T343 113T354 160Q354 184 344 207Q333 232 307 252T249 290T181 328T116
372T68 430T49 507Q49 549 65 581T109 636T172 671T247 683Q289 683 329 676T409 657V571Q370 587 333 599T252 612Q232 612 212 607T175 590T148 561T138 521Q138 486 161 462T219 416T294 373T370 326T428 263T451 176Z" />
<glyph unicode="T" glyph-name="T" horiz-adv-x="583" d="M339 596V0H244V596H8V667H575V596H339Z" />
<glyph unicode="U" glyph-name="U" horiz-adv-x="639" d="M560 244Q560 214 559 187T551 134T531 85T494 39Q457 4 415 -6T323 -17Q275 -17 231 -5T151 39Q127 60 113 84T92 134T82 188T80 247V667H175V246Q175 205 181 170T205 109T253 69T330 54Q377 54 406
68T450 108T471 167T476 243V667H560V244Z" />
<glyph unicode="V" glyph-name="V" horiz-adv-x="603" d="M357 0H268L16 667H111L317 121L516 667H599L357 0Z" />
<glyph unicode="W" glyph-name="W" horiz-adv-x="789" d="M601 0H507L389 514L266 0H173L1 667H92L228 140L354 667H445L564 147L711 667H788L601 0Z" />
<glyph unicode="X" glyph-name="X" horiz-adv-x="577" d="M441 0L272 264L97 0H7L228 335L18 667H130L290 415L458 667H548L335 344L553 0H441Z" />
<glyph unicode="Y" glyph-name="Y" horiz-adv-x="574" d="M325 280V0H230V278L8 667H116L290 366L476 667H564L325 280Z" />
<glyph unicode="Z" glyph-name="Z" horiz-adv-x="558" d="M43 0V76L401 596H65V667H514V596L156 77H514V0H43Z" />
<glyph unicode="[" glyph-name="bracketleft" horiz-adv-x="300" d="M89 -133V711H266V644H166V-66H266V-133H89Z" />
<glyph unicode="\" glyph-name="backslash" horiz-adv-x="456" d="M377 -133L6 711H78L450 -133H377Z" />
<glyph unicode="]" glyph-name="bracketright" horiz-adv-x="300" d="M33 -133V-66H133V644H33V711H210V-133H33Z" />
<glyph unicode="^" glyph-name="asciicircum" horiz-adv-x="583" d="M462 178L292 518L122 178H47L292 667L536 178H462Z" />
<glyph unicode="_" glyph-name="underscore" horiz-adv-x="461" d="M39 -67V0H422V-67H39Z" />
<glyph unicode="`" glyph-name="grave" horiz-adv-x="567" d="M283 578L161 711H261L361 578H283Z" />
<glyph unicode="a" glyph-name="a" horiz-adv-x="509" d="M487 3Q454 -11 420 -11Q386 -11 367 10T341 62Q308 32 271 11T187 -11Q158 -11 133 -2T88 26T58 68T47 123Q47 197 108 241Q132 259 158 268T213 282T271 288T328 289V348Q328 393 307 413T241 433Q201
433 163 421T89 390V463Q127 480 170 490T255 500Q290 500 326 490T387 453Q408 430 412 404T417 348V126Q417 112 418 99T424 75T438 58T466 51Q476 51 481 52L487 3ZM328 237Q320 237 313 237T297 238Q274 238 246 233T194 217T153 186T136 137Q136 104 159 83T214
61Q245 61 274 75T328 110V237Z" />
<glyph unicode="b" glyph-name="b" horiz-adv-x="581" d="M531 260Q531 212 520 164T483 76T418 13T322 -11Q276 -11 242 7T178 61L167 0H89V711H178V397Q204 447 244 473T341 500Q393 500 429 480T487 426T520 349T531 260ZM436 251Q436 279 432 309T415 365T380
406T322 422Q278 422 242 398T178 342V122Q208 95 237 76T308 56Q347 56 372 74T411 122T431 185T436 251Z" />
<glyph unicode="c" glyph-name="c" horiz-adv-x="472" d="M428 15Q392 3 355 -4T280 -11Q226 -11 184 10T111 67T66 149T50 247Q50 305 66 351T113 431T189 482T294 500Q326 500 358 496T423 484V410Q393 418 363 425T301 433Q261 433 233 417T186 375T159 314T150
245Q150 209 159 176T187 117T235 76T303 60Q335 60 367 68T428 91V15Z" />
<glyph unicode="d" glyph-name="d" horiz-adv-x="581" d="M403 0V92Q377 41 337 15T239 -11Q187 -11 151 9T93 64T60 141T50 229Q50 277 61 325T98 413T163 476T259 500Q306 500 339 484T403 433V711H492V0H403ZM403 372Q373 399 344 416T273 433Q234 433 209
414T170 367T151 304T145 238Q145 209 149 179T166 124T201 83T259 67Q302 67 338 91T403 147V372Z" />
<glyph unicode="e" glyph-name="e" horiz-adv-x="514" d="M141 231Q145 191 156 159T188 104T238 69T311 56Q347 56 380 64T447 86V16Q409 5 371 -3T294 -11Q238 -11 193 9T116 63T67 145T50 246Q50 294 63 339T103 421T170 478T263 500Q316 500 352 479T409 424T440
347T449 257V231H141ZM360 298Q359 317 358 336T349 372Q338 401 314 417T258 433Q229 433 208 422T174 391T154 348T145 298H360Z" />
<glyph unicode="f" glyph-name="f" horiz-adv-x="339" d="M367 637Q344 645 321 650T272 655Q246 655 231 648T208 628T198 597T195 557V489H318V422H195V0H106V422H36V489H106V548Q106 629 143 675T266 722Q292 722 317 718T367 708V637Z" />
<glyph unicode="g" glyph-name="g" horiz-adv-x="575" d="M492 103Q492 77 491 49T486 -7T473 -61T448 -110Q432 -133 410 -148T362 -172T309 -185T255 -189Q170 -189 92 -162L102 -86Q138 -103 174 -112T253 -122Q334 -122 368 -82T403 37V114Q380 66 338 39T241
11Q191 11 155 31T95 85T61 160T50 248Q50 296 63 341T103 422T169 478T262 500Q308 500 340 483T403 431V489H492V103ZM403 370Q377 398 345 415T276 433Q238 433 213 416T172 372T151 312T145 248Q145 219 150 191T168 140T203 103T259 89Q303 89 338 112T403
169V370Z" />
<glyph unicode="h" glyph-name="h" horiz-adv-x="572" d="M400 0V341Q400 376 385 399T331 423Q305 423 283 414T242 390T207 356T178 317V0H89V711H178V397Q207 440 251 470T349 500Q417 500 453 459T489 351V0H400Z" />
<glyph unicode="i" glyph-name="i" horiz-adv-x="267" d="M89 578V667H178V578H89ZM89 0V489H178V0H89Z" />
<glyph unicode="j" glyph-name="j" horiz-adv-x="281" d="M103 578V667H192V578H103ZM192 -6Q192 -42 185 -77T153 -140Q130 -166 98 -177T33 -189Q7 -189 -19 -183T-69 -166V-96Q-46 -106 -23 -114T25 -122Q42 -122 59 -117T87 -97Q95 -87 98 -75T103 -51T104
-25T103 0V489H192V-6Z" />
<glyph unicode="k" glyph-name="k" horiz-adv-x="539" d="M408 0L178 251V0H89V711H178V252L385 489H480L283 261L521 0H408Z" />
<glyph unicode="l" glyph-name="l" horiz-adv-x="267" d="M89 0V711H178V0H89Z" />
<glyph unicode="m" glyph-name="m" horiz-adv-x="861" d="M689 0V342Q689 376 675 401T622 426Q598 426 578 417T540 394T507 363T478 328V0H389V342Q389 377 375 401T321 426Q297 426 277 417T240 394T207 363T178 328V0H89V489H178V397Q205 441 247 470T344
500Q391 500 429 472Q451 455 460 439T478 397Q504 441 547 470T642 500Q667 500 690 493T733 470Q762 447 770 419T778 356V0H689Z" />
<glyph unicode="n" glyph-name="n" horiz-adv-x="572" d="M400 0V341Q400 376 385 399T331 423Q305 423 283 414T242 390T207 356T178 317V0H89V489H178V397Q207 440 251 470T349 500Q417 500 453 459T489 351V0H400Z" />
<glyph unicode="o" glyph-name="o" horiz-adv-x="567" d="M517 244Q517 189 502 143T458 62T384 9T283 -11Q226 -11 182 8T109 62T65 143T50 244Q50 298 64 345T108 426T181 480T283 500Q341 500 384 481T457 427T502 346T517 244ZM422 244Q422 278 416 312T393
373T350 416T284 433Q243 433 217 417T174 373T152 312T145 244Q145 210 151 177T174 116T217 73T284 56Q323 56 350 72T393 116T415 176T422 244Z" />
<glyph unicode="p" glyph-name="p" horiz-adv-x="581" d="M531 260Q531 212 520 164T483 76T418 13T322 -11Q276 -11 242 5T178 56V-178H89V489H178V397Q204 447 244 473T341 500Q393 500 429 480T487 426T520 349T531 260ZM436 251Q436 279 432 309T415 365T380
406T322 422Q278 422 242 398T178 342V117Q208 90 237 73T308 56Q347 56 372 74T411 122T431 185T436 251Z" />
<glyph unicode="q" glyph-name="q" horiz-adv-x="581" d="M403 -178V92Q377 41 337 15T239 -11Q187 -11 151 9T93 64T60 141T50 229Q50 277 61 325T98 413T163 476T259 500Q306 500 339 482T403 428V489H492V-178H403ZM403 367Q373 394 344 413T273 433Q234 433
209 414T170 367T151 304T145 238Q145 209 149 179T166 124T201 83T259 67Q302 67 338 91T403 147V367Z" />
<glyph unicode="r" glyph-name="r" horiz-adv-x="377" d="M359 415Q341 422 318 422Q268 422 235 393T178 322V0H89V489H178V397Q201 442 240 471T331 500H345Q352 500 359 498V415Z" />
<glyph unicode="s" glyph-name="s" horiz-adv-x="470" d="M400 136Q400 99 384 72T343 26T285 -2T219 -11Q181 -11 144 -3T71 17V99Q106 80 144 68T222 56Q238 56 254 60T282 74T303 96T311 128Q311 154 294 170T250 198T193 223T136 252T92 296T74 363Q74 399
88 425T125 467T179 492T242 500Q272 500 302 495L363 485V411Q333 420 304 426T245 433Q230 433 215 430T187 420T166 400T158 371Q158 347 176 332T221 305T279 281T337 250T382 204T400 136Z" />
<glyph unicode="t" glyph-name="t" horiz-adv-x="345" d="M181 422V152Q181 107 198 82T264 56Q286 56 307 61V0Q290 -5 272 -8T236 -11Q167 -11 130 28T92 135V422H31V489H92V578L181 586V489H309V422H181Z" />
<glyph unicode="u" glyph-name="u" horiz-adv-x="572" d="M394 0V92Q365 48 321 19T223 -11Q156 -11 120 31T83 138V489H172V151Q172 118 187 92T241 66Q266 66 288 75T330 100T365 134T394 173V489H483V0H394Z" />
<glyph unicode="v" glyph-name="v" horiz-adv-x="477" d="M278 0H190L8 489H97L239 109L389 489H472L278 0Z" />
<glyph unicode="w" glyph-name="w" horiz-adv-x="710" d="M545 0H455L352 379L235 0H145L5 489H92L199 111L315 489H404L505 111L628 489H704L545 0Z" />
<glyph unicode="x" glyph-name="x" horiz-adv-x="566" d="M418 0L271 193L129 0H40L226 253L45 489H151L293 301L422 489H509L340 241L524 0H418Z" />
<glyph unicode="y" glyph-name="y" horiz-adv-x="482" d="M209 -178H117L197 0L7 489H103L243 121L392 489H477L209 -178Z" />
<glyph unicode="z" glyph-name="z" horiz-adv-x="529" d="M56 0V67L358 422H69V489H468V422L165 67H473V0H56Z" />
<glyph unicode="{" glyph-name="braceleft" horiz-adv-x="300" d="M239 -133Q208 -131 179 -122T128 -97T92 -55T78 6Q78 28 81 50T89 94T98 138T102 183Q102 218 85 237T33 256H11V323H33Q69 323 85 342T102 396Q102 418 98 440T90 484T82 527T78 572Q78 607
91 632T127 674T179 700T239 711V644Q225 644 210 642T183 633T163 616T155 588Q155 577 157 567T161 546Q166 517 170 488T174 430Q174 383 159 351T108 290Q143 260 158 228T174 149Q174 120 170 91T161 33Q159 22 157 12T155 -9Q155 -26 163 -37T183 -54T210
-63T239 -66V-133Z" />
<glyph unicode="|" glyph-name="bar" horiz-adv-x="245" d="M89 -133V711H156V-133H89Z" />
<glyph unicode="}" glyph-name="braceright" horiz-adv-x="300" d="M267 256Q232 256 215 237T198 183Q198 160 201 138T209 95T218 51T222 6Q222 -29 209 -54T173 -96T121 -122T61 -133V-66Q74 -66 89 -64T116 -55T137 -38T145 -10Q145 1 143 11T139 33Q134 62
130 91T126 149Q126 196 141 228T192 290Q157 319 142 350T126 429Q126 458 130 487T139 546Q141 557 143 567T145 589Q145 606 137 616T117 633T89 641T61 644V711Q92 709 121 700T172 675T208 633T222 572Q222 549 218 528T210 485T202 441T198 396Q198 361 214
342T267 323H289V256H267Z" />
<glyph unicode="~" glyph-name="asciitilde" horiz-adv-x="583" d="M536 333Q534 304 528 277T507 229T470 196T414 183Q383 183 358 194T306 219L202 273Q188 281 172 281Q155 281 145 274T127 254T117 228T114 200H47Q47 228 55 254T78 302T117 335T171 348Q202
348 235 333T301 299T362 266T413 250Q429 250 440 258T457 278T466 304T469 333H536Z" />
<glyph unicode="&#xa0;" glyph-name="nbspace" horiz-adv-x="292" />
<glyph unicode="&#xa1;" glyph-name="exclamdown" horiz-adv-x="292" d="M101 400V489H190V400H101ZM101 -178V-44Q101 -15 102 15T105 74L113 311H179L186 74Q188 45 189 15T190 -44V-178H101Z" />
<glyph unicode="&#xa2;" glyph-name="cent" horiz-adv-x="583" d="M471 104Q440 92 408 86T343 78V0H299V78Q282 79 268 81T242 88T218 100T192 118Q141 156 117 212T93 332Q93 364 99 395T119 456T152 509T201 552Q226 568 248 574T299 583V667H343V583Q408 580
471 562V488Q439 499 408 508T343 519V141Q411 144 471 171V104ZM299 515Q265 512 244 493T211 447T195 389T190 330Q190 299 195 270T212 217T245 175T299 146V515Z" />
<glyph unicode="&#xa3;" glyph-name="sterling" horiz-adv-x="583" d="M111 0V78Q165 94 185 130T206 220V322H125V389H206V486Q206 529 214 566T256 635Q282 661 315 672T384 683Q410 683 435 680T486 670V594Q435 616 379 616Q353 616 337 608T312 587T299 554T295
512V389H393V322H295V268Q295 237 292 211T281 163T258 120T217 78H492V0H111Z" />
<glyph unicode="&#xa4;" glyph-name="currency" horiz-adv-x="583" d="M500 86L412 174Q385 154 356 144T292 133Q257 133 228 143T171 174L83 86L44 125L132 213Q92 266 92 334Q92 400 132 455L44 543L83 582L171 494Q199 514 228 524T292 534Q357 534 412 494L500
582L539 543L451 455Q471 427 481 398T492 334Q492 268 451 213L539 125L500 86ZM425 333Q425 361 415 385T387 428T345 456T292 467Q264 467 240 457T197 428T169 386T158 333Q158 305 168 281T197 238T239 210T292 200Q320 200 344 210T387 238T415 280T425 333Z"
/>
<glyph unicode="&#xa5;" glyph-name="yen" horiz-adv-x="583" d="M333 363H497V308H333V231H487V176H333V0H244V176H91V231H244V308H81V363H244L36 667H141L299 418L478 667H558L333 363Z" />
<glyph unicode="&#xa6;" glyph-name="brokenbar" horiz-adv-x="244" d="M88 378V710H155V378H88ZM88 -134V200H155V-134H88Z" />
<glyph unicode="&#xa7;" glyph-name="section" horiz-adv-x="583" d="M496 4Q496 -24 484 -49T452 -95Q416 -130 369 -140T274 -150Q227 -150 186 -141T99 -117V-36Q143 -55 189 -69T283 -83Q302 -83 325 -80T368 -67T401 -42T415 -2Q415 19 405 33T380 58T346
76T311 91Q279 104 243 119T175 155T123 205T102 276Q102 319 120 350T167 411Q137 431 121 456T104 519Q104 563 123 594T172 645T240 674T316 683Q355 683 394 677T471 662V589Q433 600 395 608T316 616Q296 616 274 612T231 599T198 573T185 532Q185 515 192
503T211 481T236 465T264 452L324 427Q353 415 382 402T435 371T474 327T489 263Q489 220 470 188T422 125Q457 105 476 76T496 4ZM412 241Q412 262 403 277T379 304T346 323T312 339L213 381Q198 363 189 342T179 298Q179 277 189 261T214 233T248 211T283 194L378
154Q393 174 402 195T412 241Z" />
<glyph unicode="&#xa8;" glyph-name="dieresis" horiz-adv-x="567" d="M150 578V667H239V578H150ZM327 578V667H416V578H327Z" />
<glyph unicode="&#xa9;" glyph-name="copyright" horiz-adv-x="789" d="M744 333Q744 261 717 197T642 86T530 11T394 -17Q322 -17 258 10T147 85T72 197T44 333Q44 405 71 469T146 580T258 655T394 683Q466 683 530 656T641 581T716 469T744 333ZM694 333Q694
390 671 446T608 544Q565 589 511 611T394 633Q332 633 278 611T181 544Q142 502 118 446T94 333Q94 276 118 221T181 123Q224 77 278 55T394 33Q456 33 511 55T608 123Q646 165 670 220T694 333ZM522 156Q495 146 466 140T408 133Q365 133 329 148T268 189T228
252T214 331Q214 375 227 411T265 474T326 516T407 531Q436 531 464 527T522 517V461Q496 472 469 479T413 486Q380 486 355 474T314 440T289 390T281 332Q281 267 316 225T420 183Q447 183 473 190T522 211V156Z" />
<glyph unicode="&#xaa;" glyph-name="ordfeminine" horiz-adv-x="389" d="M371 337Q359 333 347 331T323 328Q299 328 283 337T256 370Q233 347 204 335T142 322Q120 322 100 328T65 348T41 379T32 421Q32 464 54 489T109 527T180 543T252 547V564Q252 598 231
613T178 628Q145 628 114 618T54 591V657Q89 671 122 677T194 683Q221 683 247 678T296 656Q319 638 324 616T329 566V438Q329 413 336 401T371 389V337ZM252 492H229Q212 492 191 490T152 480T122 459T109 424Q109 402 123 390T158 378Q185 378 210 390T252 421V492Z"
/>
<glyph unicode="&#xab;" glyph-name="guillemotleft" horiz-adv-x="483" d="M406 44L228 244L406 444L450 411L317 244L450 78L406 44ZM228 44L50 244L228 444L272 411L139 244L272 78L228 44Z" />
<glyph unicode="&#xac;" glyph-name="logicalnot" horiz-adv-x="583" d="M469 156V311H47V378H536V156H469Z" />
<glyph unicode="&#xad;" glyph-name="hyphen" horiz-adv-x="300" d="M50 244V311H250V244H50Z" />
<glyph unicode="&#xae;" glyph-name="registered" horiz-adv-x="583" d="M492 561Q492 520 476 484T433 422T370 380T292 364Q251 364 215 379T151 421T108 484T92 561Q92 603 107 639T150 701T213 743T292 758Q333 758 369 743T433 701T476 638T492 561ZM447
561Q447 593 435 621T401 671T352 704T292 717Q260 717 232 705T182 671T149 622T136 561Q136 529 148 501T182 452T231 419T292 406Q324 406 352 418T401 452T434 501T447 561ZM328 462L283 539H264V462H224V667H287Q302 667 316 666T342 658T361 641T368 611Q368
588 356 574T325 549L375 462H328ZM324 607Q324 627 312 632T283 638H264V569H281Q300 569 312 578T324 607Z" />
<glyph unicode="&#xaf;" glyph-name="macron" horiz-adv-x="567" d="M156 578V645H411V578H156Z" />
<glyph unicode="&#xb0;" glyph-name="degree" horiz-adv-x="335" d="M312 587Q312 557 301 532T270 488T224 459T168 448Q138 448 112 458T67 488T36 532T24 587Q24 617 35 642T65 686T111 715T168 726Q198 726 224 716T269 686T300 642T312 587ZM247 587Q247
603 241 617T224 643T199 660T168 667Q152 667 138 661T112 643T95 618T88 587Q88 571 94 557T112 532T137 515T168 508Q200 508 223 531T247 587Z" />
<glyph unicode="&#xb1;" glyph-name="plusminus" horiz-adv-x="583" d="M325 300V133H258V300H47V367H258V533H325V367H536V300H325ZM47 0V67H536V0H47Z" />
<glyph unicode="&#xb2;" glyph-name="twosuperior" horiz-adv-x="389" d="M61 333V394Q73 424 104 447T168 492T225 535T250 580Q250 595 242 604T223 618T198 625T172 627Q144 627 115 619T61 598V661Q125 683 188 683Q210 683 235 679T283 663T319 633T334 587Q334
559 322 539T290 503T248 475T202 450T162 424T136 394H339V333H61Z" />
<glyph unicode="&#xb3;" glyph-name="threesuperior" horiz-adv-x="389" d="M338 418Q338 392 324 374T289 344T242 327T196 322Q164 322 133 327T69 340V404Q97 393 127 385T186 377Q197 377 209 379T231 388T247 403T254 425Q254 447 239 459T202 476T157 482T119
483V538H155Q178 538 199 542T235 558T250 590Q250 613 232 620T194 627Q164 627 131 620T69 601V662Q101 672 134 677T201 683Q220 683 243 680T287 667T320 642T334 601Q334 580 324 565T299 539T264 521T228 511V509Q247 508 267 502T302 485T328 457T338 418Z"
/>
<glyph unicode="&#xb4;" glyph-name="acute" horiz-adv-x="567" d="M283 578H206L306 711H406L283 578Z" />
<glyph unicode="&#xb5;" glyph-name="mu" horiz-adv-x="578" d="M400 0V92Q388 72 374 54T342 21T304 -2T258 -11Q237 -11 216 -6T178 11V-178H89V489H178V167Q178 125 196 99T260 72Q283 72 303 81T341 104T373 136T400 172V489H489V0H400Z" />
<glyph unicode="&#xb6;" glyph-name="paragraph" horiz-adv-x="583" d="M408 -133V611H342V-133H286V333Q244 336 210 349T150 385T111 442T97 520Q97 553 108 584T146 637Q172 658 207 662T274 667H464V-133H408Z" />
<glyph unicode="&#xb7;" glyph-name="periodcentered" horiz-adv-x="583" d="M236 211V322H347V211H236Z" />
<glyph unicode="&#xb8;" glyph-name="cedilla" horiz-adv-x="567" d="M369 -114Q369 -130 361 -142T341 -161T314 -173T285 -177Q271 -177 258 -175T230 -168V-132Q238 -134 244 -135T259 -136Q274 -136 289 -130T304 -105Q304 -94 299 -87T285 -74T268 -67T249
-63L288 0H329L298 -48Q323 -54 346 -69T369 -114Z" />
<glyph unicode="&#xb9;" glyph-name="onesuperior" horiz-adv-x="389" d="M156 333V616H94V666L233 677V333H156Z" />
<glyph unicode="&#xba;" glyph-name="ordmasculine" horiz-adv-x="389" d="M362 503Q362 464 351 431T319 374T267 336T195 322Q153 322 122 335T70 373T39 431T28 503Q28 542 38 575T70 632T122 669T195 683Q236 683 267 670T319 632T351 575T362 503ZM278 503Q278
523 275 545T262 585T236 616T195 628Q170 628 154 616T129 586T116 545T112 503Q112 483 115 461T128 421T154 390T195 378Q219 378 235 390T261 420T274 461T278 503Z" />
<glyph unicode="&#xbb;" glyph-name="guillemotright" horiz-adv-x="483" d="M256 44L211 78L344 244L211 411L256 444L433 244L256 44ZM78 44L33 78L167 244L33 411L78 444L256 244L78 44Z" />
<glyph unicode="&#xbc;" glyph-name="onequarter" horiz-adv-x="738" d="M626 88V0H549V88H382V158L541 338H626V144H682V88H626ZM131 -17H44L532 683H618L131 -17ZM105 333V616H43V666L182 677V333H105ZM549 264L440 144H549V264Z" />
<glyph unicode="&#xbd;" glyph-name="onehalf" horiz-adv-x="738" d="M416 0V62Q424 81 441 98T480 130T523 159T563 188T593 217T605 248Q605 263 597 272T578 286T553 293T528 295Q500 295 471 287T417 265V329Q478 350 545 350Q567 350 592 346T638 330T674
301T689 254Q689 226 677 206T646 170T603 142T558 117T518 92T491 62H695V0H416ZM103 -17H17L504 683H591L103 -17ZM99 333V616H38V666L176 677V333H99Z" />
<glyph unicode="&#xbe;" glyph-name="threequarters" horiz-adv-x="804" d="M215 -17H128L615 683H702L215 -17ZM693 88V0H616V88H450V158L607 338H693V144H748V88H693ZM324 418Q324 392 310 374T275 344T228 327T182 322Q150 322 119 327T55 340V404Q83 393 113
385T172 377Q183 377 195 379T217 388T233 403T240 425Q240 447 225 459T189 476T144 482T105 483V538H141Q164 538 185 542T221 558T236 590Q236 613 218 620T181 627Q150 627 117 620T55 601V662Q87 672 120 677T187 683Q206 683 229 680T273 667T306 642T320
601Q320 580 310 565T285 539T250 521T214 511V509Q233 508 253 502T288 485T314 457T324 418ZM616 264L507 144H616V264Z" />
<glyph unicode="&#xbf;" glyph-name="questiondown" horiz-adv-x="389" d="M187 400V489H276V400H187ZM373 -169Q337 -181 297 -188T218 -195Q182 -195 146 -187T81 -161T35 -113T17 -42Q17 -12 25 10T48 52T81 88T120 123Q138 140 150 154T171 183T183 217T187
261V311H276V287Q276 260 272 239T260 199T240 163T210 125Q196 108 179 89T147 49T122 6T112 -41Q112 -65 122 -81T148 -108T185 -123T226 -128Q264 -128 301 -119T373 -94V-169Z" />
<glyph unicode="&#xc0;" glyph-name="Agrave" horiz-adv-x="636" d="M297 723L175 856H275L375 723H297ZM524 0L451 185H169L96 0H8L272 667H366L626 0H524ZM310 542L196 255H424L310 542Z" />
<glyph unicode="&#xc1;" glyph-name="Aacute" horiz-adv-x="636" d="M347 723H270L370 856H470L347 723ZM524 0L451 185H169L96 0H8L272 667H366L626 0H524ZM310 542L196 255H424L310 542Z" />
<glyph unicode="&#xc2;" glyph-name="Acircumflex" horiz-adv-x="636" d="M390 723L317 812L245 723H167L267 856H367L467 723H390ZM524 0L451 185H169L96 0H8L272 667H366L626 0H524ZM310 542L196 255H424L310 542Z" />
<glyph unicode="&#xc3;" glyph-name="Atilde" horiz-adv-x="636" d="M467 828Q467 808 463 789T449 756T424 732T385 723Q369 723 353 725T323 735Q309 742 290 752T255 762Q238 762 231 750T223 723H167Q168 742 172 761T186 795T211 819T250 828Q269 828 288
822T325 809T356 795T379 789Q396 789 403 801T412 828H467ZM524 0L451 185H169L96 0H8L272 667H366L626 0H524ZM310 542L196 255H424L310 542Z" />
<glyph unicode="&#xc4;" glyph-name="Adieresis" horiz-adv-x="636" d="M524 0L451 185H169L96 0H8L272 667H366L626 0H524ZM310 542L196 255H424L310 542ZM185 734V823H274V734H185ZM362 734V823H451V734H362Z" />
<glyph unicode="&#xc5;" glyph-name="Aring" horiz-adv-x="636" d="M524 0L451 185H169L96 0H8L272 667H366L626 0H524ZM310 542L196 255H424L310 542ZM410 763Q410 723 383 700T318 676Q280 676 254 699T227 763Q227 800 254 824T318 849Q355 849 382 827T410
763ZM365 763Q365 783 352 796T318 810Q298 810 285 797T272 763Q272 743 285 729T318 715Q338 715 351 729T365 763Z" />
<glyph unicode="&#xc6;" glyph-name="AE" horiz-adv-x="836" d="M421 0V186H203L94 0H8L396 667H795V596H516V382H749V312H516V71H815V0H421ZM421 558L243 256H421V558Z" />
<glyph unicode="&#xc7;" glyph-name="Ccedilla" horiz-adv-x="638" d="M587 34Q560 20 536 11T489 -4T440 -12T383 -16L364 -47Q377 -50 391 -54T418 -67T439 -86T447 -113Q447 -131 437 -143T412 -163T380 -174T349 -178Q330 -178 312 -174T277 -163V-127Q304
-136 332 -136Q339 -136 347 -135T363 -130T376 -121T381 -106Q381 -95 372 -88T351 -75T326 -66T305 -62L337 -15Q296 -12 263 -5T193 23Q154 46 126 80T81 154T55 238T47 326Q47 406 66 471T126 584T229 657T375 683Q429 683 481 675T586 654V565Q535 584 483
598T376 613Q333 613 293 601T222 557Q201 536 187 509T164 452T151 391T147 332Q147 276 161 226T204 139T278 79T384 57Q441 57 489 72T587 115V34Z" />
<glyph unicode="&#xc8;" glyph-name="Egrave" horiz-adv-x="500" d="M274 723L152 856H252L352 723H274ZM86 0V667H459V596H181V382H414V312H181V71H479V0H86Z" />
<glyph unicode="&#xc9;" glyph-name="Eacute" horiz-adv-x="500" d="M292 723H215L315 856H415L292 723ZM86 0V667H459V596H181V382H414V312H181V71H479V0H86Z" />
<glyph unicode="&#xca;" glyph-name="Ecircumflex" horiz-adv-x="500" d="M345 723L272 812L200 723H122L222 856H322L422 723H345ZM86 0V667H459V596H181V382H414V312H181V71H479V0H86Z" />
<glyph unicode="&#xcb;" glyph-name="Edieresis" horiz-adv-x="500" d="M86 0V667H459V596H181V382H414V312H181V71H479V0H86ZM140 734V823H229V734H140ZM317 734V823H406V734H317Z" />
<glyph unicode="&#xcc;" glyph-name="Igrave" horiz-adv-x="266" d="M103 723L11 856H111L181 723H103ZM86 0V667H181V0H86Z" />
<glyph unicode="&#xcd;" glyph-name="Iacute" horiz-adv-x="266" d="M163 723H86L166 856H266L163 723ZM86 0V667H181V0H86Z" />
<glyph unicode="&#xce;" glyph-name="Icircumflex" horiz-adv-x="266" d="M205 723L132 812L60 723H-18L82 856H182L282 723H205ZM86 0V667H181V0H86Z" />
<glyph unicode="&#xcf;" glyph-name="Idieresis" horiz-adv-x="266" d="M86 0V667H181V0H86ZM10 734V823H99V734H10ZM167 734V823H256V734H167Z" />
<glyph unicode="&#xd0;" glyph-name="Eth" horiz-adv-x="690" d="M643 349Q643 277 623 213T564 102T466 28T331 0H86V306H0V373H86V667H307Q343 667 376 665T440 654T500 629T556 587Q604 539 623 477T643 349ZM543 340Q543 393 528 446T474 538Q453 558 430
569T381 587T328 594T273 596H181V373H333V306H181V71H303Q327 71 349 73T392 80T433 96T471 124Q490 143 504 169T526 225T539 283T543 340Z" />
<glyph unicode="&#xd1;" glyph-name="Ntilde" horiz-adv-x="681" d="M501 828Q501 808 497 789T483 756T458 732T419 723Q403 723 387 725T357 735Q343 742 324 752T289 762Q272 762 265 750T257 723H201Q202 742 206 761T220 795T245 819T284 828Q303 828 322
822T359 809T390 795T413 789Q430 789 437 801T446 828H501ZM503 0L167 515V0H86V667H179L514 152V667H595V0H503Z" />
<glyph unicode="&#xd2;" glyph-name="Ograve" horiz-adv-x="717" d="M347 723L225 856H325L425 723H347ZM670 333Q670 261 650 197T591 86T494 11T358 -17Q281 -17 223 10T125 86T67 197T47 333Q47 405 66 468T125 580T222 655T358 683Q435 683 493 656T591 581T650
469T670 333ZM570 334Q570 385 559 435T524 524T459 588T358 612Q298 612 258 588T193 524T158 435T147 334Q147 283 157 233T192 143T257 79T358 54Q418 54 458 78T524 142T559 232T570 334Z" />
<glyph unicode="&#xd3;" glyph-name="Oacute" horiz-adv-x="717" d="M388 723H311L421 856H521L388 723ZM670 333Q670 261 650 197T591 86T494 11T358 -17Q281 -17 223 10T125 86T67 197T47 333Q47 405 66 468T125 580T222 655T358 683Q435 683 493 656T591 581T650
469T670 333ZM570 334Q570 385 559 435T524 524T459 588T358 612Q298 612 258 588T193 524T158 435T147 334Q147 283 157 233T192 143T257 79T358 54Q418 54 458 78T524 142T559 232T570 334Z" />
<glyph unicode="&#xd4;" glyph-name="Ocircumflex" horiz-adv-x="717" d="M431 723L358 812L286 723H208L308 856H408L508 723H431ZM670 333Q670 261 650 197T591 86T494 11T358 -17Q281 -17 223 10T125 86T67 197T47 333Q47 405 66 468T125 580T222 655T358 683Q435
683 493 656T591 581T650 469T670 333ZM570 334Q570 385 559 435T524 524T459 588T358 612Q298 612 258 588T193 524T158 435T147 334Q147 283 157 233T192 143T257 79T358 54Q418 54 458 78T524 142T559 232T570 334Z" />
<glyph unicode="&#xd5;" glyph-name="Otilde" horiz-adv-x="717" d="M508 828Q508 808 504 789T490 756T465 732T426 723Q410 723 394 725T364 735Q350 742 331 752T296 762Q279 762 272 750T264 723H208Q209 742 213 761T227 795T252 819T291 828Q310 828 329
822T366 809T397 795T420 789Q437 789 444 801T453 828H508ZM670 333Q670 261 650 197T591 86T494 11T358 -17Q281 -17 223 10T125 86T67 197T47 333Q47 405 66 468T125 580T222 655T358 683Q435 683 493 656T591 581T650 469T670 333ZM570 334Q570 385 559 435T524
524T459 588T358 612Q298 612 258 588T193 524T158 435T147 334Q147 283 157 233T192 143T257 79T358 54Q418 54 458 78T524 142T559 232T570 334Z" />
<glyph unicode="&#xd6;" glyph-name="Odieresis" horiz-adv-x="717" d="M670 333Q670 261 650 197T591 86T494 11T358 -17Q281 -17 223 10T125 86T67 197T47 333Q47 405 66 468T125 580T222 655T358 683Q435 683 493 656T591 581T650 469T670 333ZM570 334Q570
385 559 435T524 524T459 588T358 612Q298 612 258 588T193 524T158 435T147 334Q147 283 157 233T192 143T257 79T358 54Q418 54 458 78T524 142T559 232T570 334ZM227 734V823H316V734H227ZM404 734V823H493V734H404Z" />
<glyph unicode="&#xd7;" glyph-name="multiply" horiz-adv-x="583" d="M510 0L291 219L72 0L25 47L244 266L25 486L72 533L291 313L510 533L557 486L338 266L557 47L510 0Z" />
<glyph unicode="&#xd8;" glyph-name="Oslash" horiz-adv-x="717" d="M670 337Q670 263 651 199T592 86T493 11T355 -17Q304 -17 261 -4T174 34L134 -17H47L125 85Q81 139 64 201T47 333Q47 408 67 472T127 583T226 656T365 683Q392 683 414 681T458 672T499 657T543
632L582 683H670L592 582Q637 529 653 467T670 337ZM493 566Q462 591 430 601T358 612Q299 612 259 588T194 525T158 437T147 337Q147 292 155 248T183 163L493 566ZM570 333Q570 379 563 420T534 504L224 101Q256 75 287 65T360 54Q419 54 459 78T524 143T559
233T570 333Z" />
<glyph unicode="&#xd9;" glyph-name="Ugrave" horiz-adv-x="639" d="M300 723L178 856H278L379 723H300ZM560 244Q560 214 559 187T551 134T531 85T494 39Q457 4 415 -6T323 -17Q275 -17 231 -5T151 39Q127 60 113 84T92 134T82 188T80 247V667H175V246Q175 205
181 170T205 109T253 69T330 54Q377 54 406 68T450 108T471 167T476 243V667H560V244Z" />
<glyph unicode="&#xda;" glyph-name="Uacute" horiz-adv-x="639" d="M341 723H263L364 856H464L341 723ZM560 244Q560 214 559 187T551 134T531 85T494 39Q457 4 415 -6T323 -17Q275 -17 231 -5T151 39Q127 60 113 84T92 134T82 188T80 247V667H175V246Q175 205
181 170T205 109T253 69T330 54Q377 54 406 68T450 108T471 167T476 243V667H560V244Z" />
<glyph unicode="&#xdb;" glyph-name="Ucircumflex" horiz-adv-x="639" d="M392 723L319 812L247 723H169L269 856H369L469 723H392ZM560 244Q560 214 559 187T551 134T531 85T494 39Q457 4 415 -6T323 -17Q275 -17 231 -5T151 39Q127 60 113 84T92 134T82 188T80
247V667H175V246Q175 205 181 170T205 109T253 69T330 54Q377 54 406 68T450 108T471 167T476 243V667H560V244Z" />
<glyph unicode="&#xdc;" glyph-name="Udieresis" horiz-adv-x="639" d="M560 244Q560 214 559 187T551 134T531 85T494 39Q457 4 415 -6T323 -17Q275 -17 231 -5T151 39Q127 60 113 84T92 134T82 188T80 247V667H175V246Q175 205 181 170T205 109T253 69T330 54Q377
54 406 68T450 108T471 167T476 243V667H560V244ZM190 734V823H279V734H190ZM367 734V823H456V734H367Z" />
<glyph unicode="&#xdd;" glyph-name="Yacute" horiz-adv-x="574" d="M564 667Q504 570 444 473Q391 387 337 300L342 307L332 291L325 280V0H230V278L8 667H116L290 366L476 667H564ZM318 724H240L340 857H440L318 724Z" />
<glyph unicode="&#xde;" glyph-name="Thorn" horiz-adv-x="509" d="M491 359Q491 288 464 244T393 174T293 140T177 132V0H88V666H177V533H304Q346 533 380 522T439 489T477 435T491 359ZM396 352Q396 405 364 435T280 466H177V198Q185 198 192 198T207 197Q247
197 281 204T341 229T381 277T396 352Z" />
<glyph unicode="&#xdf;" glyph-name="germandbls" horiz-adv-x="552" d="M525 134Q525 100 511 69Q490 22 453 6T366 -11Q332 -11 303 -5T241 15L240 91Q271 77 302 67T368 56Q400 56 420 75T441 126Q441 156 426 174T389 210L303 283Q280 302 263 326T246 381Q246
408 259 432T287 481T315 530T328 586Q328 621 306 638T252 655Q230 655 216 647T193 624T182 591T178 555V0H89V529Q89 574 96 609T123 670T174 708T256 722Q283 722 311 716T363 695T402 659T417 603Q417 569 403 541T370 488T338 443T323 407Q323 388 338 371T375
335T424 296T472 251T510 199T525 134Z" />
<glyph unicode="&#xe0;" glyph-name="agrave" horiz-adv-x="509" d="M247 578L126 711H225L325 578H247ZM487 3Q454 -11 420 -11Q386 -11 367 10T341 62Q308 32 271 11T187 -11Q158 -11 133 -2T88 26T58 68T47 123Q47 197 108 241Q132 259 158 268T213 282T271
288T328 289V348Q328 393 307 413T241 433Q201 433 163 421T89 390V463Q127 480 170 490T255 500Q290 500 326 490T387 453Q408 430 412 404T417 348V126Q417 112 418 99T424 75T438 58T466 51Q476 51 481 52L487 3ZM328 237Q320 237 313 237T297 238Q274 238 246
233T194 217T153 186T136 137Q136 104 159 83T214 61Q245 61 274 75T328 110V237Z" />
<glyph unicode="&#xe1;" glyph-name="aacute" horiz-adv-x="509" d="M274 578H197L297 711H397L274 578ZM487 3Q454 -11 420 -11Q386 -11 367 10T341 62Q308 32 271 11T187 -11Q158 -11 133 -2T88 26T58 68T47 123Q47 197 108 241Q132 259 158 268T213 282T271
288T328 289V348Q328 393 307 413T241 433Q201 433 163 421T89 390V463Q127 480 170 490T255 500Q290 500 326 490T387 453Q408 430 412 404T417 348V126Q417 112 418 99T424 75T438 58T466 51Q476 51 481 52L487 3ZM328 237Q320 237 313 237T297 238Q274 238 246
233T194 217T153 186T136 137Q136 104 159 83T214 61Q245 61 274 75T328 110V237Z" />
<glyph unicode="&#xe2;" glyph-name="acircumflex" horiz-adv-x="509" d="M333 568L260 657L188 568H111L210 701H310L410 568H333ZM487 3Q454 -11 420 -11Q386 -11 367 10T341 62Q308 32 271 11T187 -11Q158 -11 133 -2T88 26T58 68T47 123Q47 197 108 241Q132
259 158 268T213 282T271 288T328 289V348Q328 393 307 413T241 433Q201 433 163 421T89 390V463Q127 480 170 490T255 500Q290 500 326 490T387 453Q408 430 412 404T417 348V126Q417 112 418 99T424 75T438 58T466 51Q476 51 481 52L487 3ZM328 237Q320 237 313
237T297 238Q274 238 246 233T194 217T153 186T136 137Q136 104 159 83T214 61Q245 61 274 75T328 110V237Z" />
<glyph unicode="&#xe3;" glyph-name="atilde" horiz-adv-x="509" d="M405 683Q405 663 401 644T387 611T362 587T323 578Q307 578 292 580T262 590Q248 597 229 606T194 616Q177 616 170 605T162 578H106Q107 597 111 616T125 650T150 674T189 683Q208 683 227
677T263 664T294 651T317 645Q334 645 341 656T350 683H405ZM487 3Q454 -11 420 -11Q386 -11 367 10T341 62Q308 32 271 11T187 -11Q158 -11 133 -2T88 26T58 68T47 123Q47 197 108 241Q132 259 158 268T213 282T271 288T328 289V348Q328 393 307 413T241 433Q201
433 163 421T89 390V463Q127 480 170 490T255 500Q290 500 326 490T387 453Q408 430 412 404T417 348V126Q417 112 418 99T424 75T438 58T466 51Q476 51 481 52L487 3ZM328 237Q320 237 313 237T297 238Q274 238 246 233T194 217T153 186T136 137Q136 104 159 83T214
61Q245 61 274 75T328 110V237Z" />
<glyph unicode="&#xe4;" glyph-name="adieresis" horiz-adv-x="509" d="M487 3Q454 -11 420 -11Q386 -11 367 10T341 62Q308 32 271 11T187 -11Q158 -11 133 -2T88 26T58 68T47 123Q47 197 108 241Q132 259 158 268T213 282T271 288T328 289V348Q328 393 307 413T241
433Q201 433 163 421T89 390V463Q127 480 170 490T255 500Q290 500 326 490T387 453Q408 430 412 404T417 348V126Q417 112 418 99T424 75T438 58T466 51Q476 51 481 52L487 3ZM328 237Q320 237 313 237T297 238Q274 238 246 233T194 217T153 186T136 137Q136 104
159 83T214 61Q245 61 274 75T328 110V237ZM122 578V667H211V578H122ZM299 578V667H388V578H299Z" />
<glyph unicode="&#xe5;" glyph-name="aring" horiz-adv-x="509" d="M487 3Q454 -11 420 -11Q386 -11 367 10T341 62Q308 32 271 11T187 -11Q158 -11 133 -2T88 26T58 68T47 123Q47 197 108 241Q132 259 158 268T213 282T271 288T328 289V348Q328 393 307 413T241
433Q201 433 163 421T89 390V463Q127 480 170 490T255 500Q290 500 326 490T387 453Q408 430 412 404T417 348V126Q417 112 418 99T424 75T438 58T466 51Q476 51 481 52L487 3ZM328 237Q320 237 313 237T297 238Q274 238 246 233T194 217T153 186T136 137Q136 104
159 83T214 61Q245 61 274 75T328 110V237ZM354 633Q354 593 327 570T262 546Q224 546 198 569T171 633Q171 670 198 694T262 719Q299 719 326 697T354 633ZM309 633Q309 653 296 666T262 680Q242 680 229 667T216 633Q216 613 229 599T262 585Q282 585 295 599T309
633Z" />
<glyph unicode="&#xe6;" glyph-name="ae" horiz-adv-x="785" d="M720 17Q681 4 641 -3T558 -11Q498 -11 448 12T364 87Q331 48 286 19T187 -11Q158 -11 133 -2T88 26T58 68T47 123Q47 161 62 189T108 241Q132 259 158 268T213 282T271 288T328 289V348Q328 393
307 413T241 433Q201 433 163 421T89 390V463Q127 480 170 490T256 500Q297 500 331 488T395 446Q425 475 457 487T531 500Q595 500 638 468T702 376Q713 341 716 305T720 231H417Q418 223 418 214T420 197Q429 130 471 93T581 56Q621 56 652 64T720 87V17ZM625
292Q625 312 624 331T616 370Q606 399 583 416T529 433Q499 433 479 421T447 388T428 342T420 292H625ZM328 237Q320 237 313 237T297 238Q274 238 246 233T194 217T153 186T136 137Q136 104 159 83T214 61Q245 61 274 75T328 110V237Z" />
<glyph unicode="&#xe7;" glyph-name="ccedilla" horiz-adv-x="472" d="M428 15Q396 5 364 -2T299 -11L276 -49Q288 -52 301 -57T324 -69T340 -88T347 -114Q347 -131 339 -142T318 -161T290 -172T261 -175Q232 -175 207 -168V-133Q220 -137 237 -137Q252 -137 267
-130T282 -104Q282 -94 277 -87T263 -75T245 -68T227 -63L259 -10Q208 -5 169 17T103 74T64 153T50 246Q50 299 66 350T121 440Q157 476 203 488T299 500Q331 500 361 495T423 484V410Q393 418 363 425T301 433Q261 433 233 417T186 375T159 314T150 245Q150 209
159 176T187 117T235 76T303 60Q335 60 367 68T428 91V15Z" />
<glyph unicode="&#xe8;" glyph-name="egrave" horiz-adv-x="514" d="M256 578L135 711H234L334 578H256ZM141 231Q145 191 156 159T188 104T238 69T311 56Q347 56 380 64T447 86V16Q409 5 371 -3T294 -11Q238 -11 193 9T116 63T67 145T50 246Q50 294 63 339T103
421T170 478T263 500Q316 500 352 479T409 424T440 347T449 257V231H141ZM360 298Q359 317 358 336T349 372Q338 401 314 417T258 433Q229 433 208 422T174 391T154 348T145 298H360Z" />
<glyph unicode="&#xe9;" glyph-name="eacute" horiz-adv-x="514" d="M278 578H201L301 711H401L278 578ZM141 231Q145 191 156 159T188 104T238 69T311 56Q347 56 380 64T447 86V16Q409 5 371 -3T294 -11Q238 -11 193 9T116 63T67 145T50 246Q50 294 63 339T103
421T170 478T263 500Q316 500 352 479T409 424T440 347T449 257V231H141ZM360 298Q359 317 358 336T349 372Q338 401 314 417T258 433Q229 433 208 422T174 391T154 348T145 298H360Z" />
<glyph unicode="&#xea;" glyph-name="ecircumflex" horiz-adv-x="514" d="M344 568L271 657L200 568H122L222 701H321L421 568H344ZM141 231Q145 191 156 159T188 104T238 69T311 56Q347 56 380 64T447 86V16Q409 5 371 -3T294 -11Q238 -11 193 9T116 63T67 145T50
246Q50 294 63 339T103 421T170 478T263 500Q316 500 352 479T409 424T440 347T449 257V231H141ZM360 298Q359 317 358 336T349 372Q338 401 314 417T258 433Q229 433 208 422T174 391T154 348T145 298H360Z" />
<glyph unicode="&#xeb;" glyph-name="edieresis" horiz-adv-x="514" d="M141 231Q145 191 156 159T188 104T238 69T311 56Q347 56 380 64T447 86V16Q409 5 371 -3T294 -11Q238 -11 193 9T116 63T67 145T50 246Q50 294 63 339T103 421T170 478T263 500Q316 500
352 479T409 424T440 347T449 257V231H141ZM360 298Q359 317 358 336T349 372Q338 401 314 417T258 433Q229 433 208 422T174 391T154 348T145 298H360ZM129 578V667H218V578H129ZM306 578V667H395V578H306Z" />
<glyph unicode="&#xec;" glyph-name="igrave" horiz-adv-x="267" d="M113 578L11 711H111L191 578H113ZM89 0V489H178V0H89Z" />
<glyph unicode="&#xed;" glyph-name="iacute" horiz-adv-x="267" d="M171 578H94L174 711H274L171 578ZM89 0V489H178V0H89Z" />
<glyph unicode="&#xee;" glyph-name="icircumflex" horiz-adv-x="267" d="M186 568L133 657L81 568H3L83 701H183L263 568H186ZM89 0V489H178V0H89Z" />
<glyph unicode="&#xef;" glyph-name="idieresis" horiz-adv-x="267" d="M89 0V489H178V0H89ZM11 578V667H100V578H11ZM168 578V667H257V578H168Z" />
<glyph unicode="&#xf0;" glyph-name="eth" horiz-adv-x="555" d="M505 257Q505 204 491 156T448 70T376 11T275 -11Q220 -11 178 9T107 64T64 145T49 243Q49 294 64 339T108 417T179 469T275 488Q290 488 305 487T334 480Q318 508 297 530T250 573L142 500L105
555L189 613Q157 629 122 636T50 643V710Q104 710 158 699T260 661L336 711L374 656L318 619Q405 555 455 461T505 257ZM416 244Q416 278 410 309T389 366T348 406T282 421Q245 421 219 406T176 365T152 309T144 244Q144 210 150 177T173 117T216 73T282 56Q295
56 307 59T332 68Q357 80 373 99T399 142T412 192T416 244Z" />
<glyph unicode="&#xf1;" glyph-name="ntilde" horiz-adv-x="572" d="M439 683Q439 663 435 644T421 611T396 587T357 578Q341 578 325 580T295 590Q281 597 262 606T227 616Q210 616 203 605T195 578H139Q140 597 144 616T158 650T183 674T222 683Q241 683 260
677T297 664T328 651T351 645Q368 645 375 656T384 683H439ZM400 0V341Q400 376 385 399T331 423Q305 423 283 414T242 390T207 356T178 317V0H89V489H178V397Q207 440 251 470T349 500Q417 500 453 459T489 351V0H400Z" />
<glyph unicode="&#xf2;" glyph-name="ograve" horiz-adv-x="567" d="M266 578L145 711H245L344 578H266ZM517 244Q517 189 502 143T458 62T384 9T283 -11Q226 -11 182 8T109 62T65 143T50 244Q50 298 64 345T108 426T181 480T283 500Q341 500 384 481T457 427T502
346T517 244ZM422 244Q422 278 416 312T393 373T350 416T284 433Q243 433 217 417T174 373T152 312T145 244Q145 210 151 177T174 116T217 73T284 56Q323 56 350 72T393 116T415 176T422 244Z" />
<glyph unicode="&#xf3;" glyph-name="oacute" horiz-adv-x="567" d="M313 578H236L336 711H436L313 578ZM517 244Q517 189 502 143T458 62T384 9T283 -11Q226 -11 182 8T109 62T65 143T50 244Q50 298 64 345T108 426T181 480T283 500Q341 500 384 481T457 427T502
346T517 244ZM422 244Q422 278 416 312T393 373T350 416T284 433Q243 433 217 417T174 373T152 312T145 244Q145 210 151 177T174 116T217 73T284 56Q323 56 350 72T393 116T415 176T422 244Z" />
<glyph unicode="&#xf4;" glyph-name="ocircumflex" horiz-adv-x="567" d="M356 568L283 657L212 568H134L234 701H333L433 568H356ZM517 244Q517 189 502 143T458 62T384 9T283 -11Q226 -11 182 8T109 62T65 143T50 244Q50 298 64 345T108 426T181 480T283 500Q341
500 384 481T457 427T502 346T517 244ZM422 244Q422 278 416 312T393 373T350 416T284 433Q243 433 217 417T174 373T152 312T145 244Q145 210 151 177T174 116T217 73T284 56Q323 56 350 72T393 116T415 176T422 244Z" />
<glyph unicode="&#xf5;" glyph-name="otilde" horiz-adv-x="567" d="M443 683Q443 663 439 644T425 611T400 587T361 578Q345 578 330 580T300 590Q286 597 267 606T232 616Q215 616 208 605T200 578H144Q145 597 149 616T163 650T188 674T227 683Q246 683 265
677T301 664T332 651T355 645Q372 645 379 656T388 683H443ZM517 244Q517 189 502 143T458 62T384 9T283 -11Q226 -11 182 8T109 62T65 143T50 244Q50 298 64 345T108 426T181 480T283 500Q341 500 384 481T457 427T502 346T517 244ZM422 244Q422 278 416 312T393
373T350 416T284 433Q243 433 217 417T174 373T152 312T145 244Q145 210 151 177T174 116T217 73T284 56Q323 56 350 72T393 116T415 176T422 244Z" />
<glyph unicode="&#xf6;" glyph-name="odieresis" horiz-adv-x="567" d="M517 244Q517 189 502 143T458 62T384 9T283 -11Q226 -11 182 8T109 62T65 143T50 244Q50 298 64 345T108 426T181 480T283 500Q341 500 384 481T457 427T502 346T517 244ZM422 244Q422 278
416 312T393 373T350 416T284 433Q243 433 217 417T174 373T152 312T145 244Q145 210 151 177T174 116T217 73T284 56Q323 56 350 72T393 116T415 176T422 244ZM152 578V667H241V578H152ZM328 578V667H417V578H328Z" />
<glyph unicode="&#xf7;" glyph-name="divide" horiz-adv-x="583" d="M242 400V500H342V400H242ZM47 233V300H536V233H47ZM242 33V133H342V33H242Z" />
<glyph unicode="&#xf8;" glyph-name="oslash" horiz-adv-x="567" d="M517 245Q517 191 502 144T458 63T385 9T284 -11Q249 -11 219 -4T157 21L125 -20H42L107 65Q78 103 64 149T50 244Q50 298 64 345T108 426T181 480T283 500Q318 500 348 493T410 468L442 513H526L460
424Q489 381 503 339T517 245ZM363 407Q344 421 326 427T285 433Q245 433 218 417T175 374T152 314T145 246Q145 214 149 192T163 139L363 407ZM422 243Q422 275 419 297T404 350L204 82Q223 68 241 62T282 56Q322 56 349 72T392 115T415 175T422 243Z" />
<glyph unicode="&#xf9;" glyph-name="ugrave" horiz-adv-x="572" d="M271 578L149 711H249L349 578H271ZM394 0V92Q365 48 321 19T223 -11Q156 -11 120 31T83 138V489H172V151Q172 118 187 92T241 66Q266 66 288 75T330 100T365 134T394 173V489H483V0H394Z" />
<glyph unicode="&#xfa;" glyph-name="uacute" horiz-adv-x="572" d="M303 578H226L326 711H426L303 578ZM394 0V92Q365 48 321 19T223 -11Q156 -11 120 31T83 138V489H172V151Q172 118 187 92T241 66Q266 66 288 75T330 100T365 134T394 173V489H483V0H394Z" />
<glyph unicode="&#xfb;" glyph-name="ucircumflex" horiz-adv-x="572" d="M356 578L283 667L211 578H133L233 711H333L433 578H356ZM394 0V92Q365 48 321 19T223 -11Q156 -11 120 31T83 138V489H172V151Q172 118 187 92T241 66Q266 66 288 75T330 100T365 134T394
173V489H483V0H394Z" />
<glyph unicode="&#xfc;" glyph-name="udieresis" horiz-adv-x="572" d="M394 0V92Q365 48 321 19T223 -11Q156 -11 120 31T83 138V489H172V151Q172 118 187 92T241 66Q266 66 288 75T330 100T365 134T394 173V489H483V0H394ZM153 578V667H242V578H153ZM330 578V667H419V578H330Z"
/>
<glyph unicode="&#xfd;" glyph-name="yacute" horiz-adv-x="523" d="M290 577H212L312 710H412L290 577ZM207 -178H120L207 0L16 488H111L260 109L436 488H515L207 -178Z" />
<glyph unicode="&#xfe;" glyph-name="thorn" horiz-adv-x="580" d="M531 258Q531 211 520 163T483 77T419 14T324 -11Q279 -11 243 4T177 56H171Q173 40 175 23T177 -11V-178H88V712H177V488Q177 465 175 443T171 397H177Q201 446 243 473T340 500Q393 500 429
480T488 425T521 348T531 258ZM436 248Q436 276 432 307T415 363T381 406T323 423Q279 423 242 398T177 341V118Q208 90 237 73T310 56Q347 56 371 75T410 122T430 185T436 248Z" />
<glyph unicode="&#xff;" glyph-name="ydieresis" horiz-adv-x="482" d="M209 -178H117L197 0L7 489H103L243 121L392 489H477L209 -178ZM108 578V667H197V578H108ZM285 578V667H374V578H285Z" />
<glyph unicode="&#x131;" glyph-name="dotlessi" horiz-adv-x="267" d="M89 0V489H178V0H89Z" />
<glyph unicode="&#x141;" glyph-name="Lslash" horiz-adv-x="491" d="M86 0V281L10 240V314L86 356V667H181V396L348 484V408L181 321V71H481V0H86Z" />
<glyph unicode="&#x142;" glyph-name="lslash" horiz-adv-x="266" d="M177 352V0H88V314L-1 267V342L88 390V711H177V429L266 478V399L177 352Z" />
<glyph unicode="&#x152;" glyph-name="OE" horiz-adv-x="922" d="M508 0V26Q437 -17 352 -17Q277 -17 220 11T124 88T67 199T47 333Q47 405 66 468T125 579T222 655T357 683Q399 683 436 674T508 641V667H881V596H603V382H836V312L603 315V71H900V0H508ZM508 410Q508
431 507 452T502 494T490 534T468 569Q447 593 418 602T357 612Q298 612 258 588T193 523T158 434T147 333Q147 282 157 232T193 143T258 79T358 54Q405 54 434 71T479 116T502 180T508 256V410Z" />
<glyph unicode="&#x153;" glyph-name="oe" horiz-adv-x="856" d="M791 17Q753 4 714 -3T633 -11Q598 -11 561 -3T494 24Q477 35 465 48T441 78Q411 31 373 10T279 -11Q223 -11 180 9T108 63T65 144T50 244Q50 297 64 344T108 425T180 480T280 500Q336 500 372
478T439 410Q444 418 449 426T461 443Q486 473 525 486T603 500Q666 500 709 468T773 376Q784 341 787 305T791 231H488Q489 223 489 214T491 197Q500 130 542 93T652 56Q692 56 723 64T791 87V17ZM696 292Q696 312 695 331T686 370Q675 399 653 416T600 433Q570
433 550 421T518 388T499 342T491 292H696ZM397 252Q397 281 393 313T376 371T341 415T281 433Q243 433 217 416T174 372T152 311T145 244Q145 211 151 178T173 117T215 73T281 56Q321 56 344 75T379 124T394 187T397 252Z" />
<glyph unicode="&#x160;" glyph-name="Scaron" horiz-adv-x="497" d="M304 723H205L104 856H182L255 768L327 856H404L304 723ZM451 176Q451 138 437 104T395 44Q358 8 313 -4T216 -17Q172 -17 130 -8T45 12V106Q89 86 134 70T229 54Q253 54 276 60T316 80T343
113T354 160Q354 184 344 207Q333 232 307 252T249 290T181 328T116 372T68 430T49 507Q49 549 65 581T109 636T172 671T247 683Q289 683 329 676T409 657V571Q370 587 333 599T252 612Q232 612 212 607T175 590T148 561T138 521Q138 486 161 462T219 416T294 373T370
326T428 263T451 176Z" />
<glyph unicode="&#x161;" glyph-name="scaron" horiz-adv-x="470" d="M295 568H195L95 701H172L245 613L317 701H394L295 568ZM399 137Q399 99 383 71T342 25T283 -2T216 -11Q180 -11 143 -3T71 17V99Q103 82 143 69T220 56Q236 56 252 60T281 74T302 96T310 128Q310
154 293 170T249 198T192 223T135 252T92 296T74 363Q74 400 87 426T124 468T178 492T242 499Q273 499 302 495T362 485V411Q333 420 304 426T244 432Q230 432 215 429T187 418T166 398T158 369Q158 346 176 331T221 304T278 278T336 247T381 202T399 137Z" />
<glyph unicode="&#x178;" glyph-name="Ydieresis" horiz-adv-x="574" d="M325 280V0H230V278L8 667H116L290 366L476 667H564L325 280ZM154 734V823H243V734H154ZM332 734V823H421V734H332Z" />
<glyph unicode="&#x17d;" glyph-name="Zcaron" horiz-adv-x="557" d="M349 725H249L149 858H226L299 770L371 858H448L349 725ZM43 0V76L401 596H65V667H514V596L156 77H514V0H43Z" />
<glyph unicode="&#x17e;" glyph-name="zcaron" horiz-adv-x="528" d="M330 577H231L130 710H208L280 622L352 710H430L330 577ZM55 0V66L358 422H69V489H467V423L165 67H473V0H55Z" />
<glyph unicode="&#x2c6;" glyph-name="circumflex" horiz-adv-x="567" d="M356 578L283 667L211 578H133L233 711H333L433 578H356Z" />
<glyph unicode="&#x2c7;" glyph-name="caron" horiz-adv-x="567" d="M333 578H233L133 711H211L283 622L356 711H433L333 578Z" />
<glyph unicode="&#x2d8;" glyph-name="breve" horiz-adv-x="567" d="M433 711Q426 650 385 614T283 578Q222 578 182 614T133 711H189Q196 675 222 660T283 645Q318 645 344 660T378 711H433Z" />
<glyph unicode="&#x2d9;" glyph-name="dotaccent" horiz-adv-x="567" d="M239 578V667H328V578H239Z" />
<glyph unicode="&#x2da;" glyph-name="ring" horiz-adv-x="567" d="M372 643Q372 603 345 580T280 556Q242 556 216 579T189 643Q189 680 216 704T280 729Q317 729 344 707T372 643ZM327 643Q327 663 314 676T280 690Q260 690 247 677T234 643Q234 623 247 609T280
595Q300 595 313 609T327 643Z" />
<glyph unicode="&#x2db;" glyph-name="ogonek" horiz-adv-x="567" d="M377 -125Q347 -133 318 -133Q304 -133 288 -131T258 -122T235 -105T225 -76Q225 -63 231 -52T247 -31T268 -14T290 0H344Q337 -4 328 -11T311 -28T297 -46T291 -65Q291 -83 307 -89T337 -96Q355
-96 377 -91V-125Z" />
<glyph unicode="&#x2dc;" glyph-name="tilde" horiz-adv-x="567" d="M433 683Q433 663 429 644T415 611T390 587T351 578Q335 578 319 580T289 590Q275 597 256 606T221 616Q204 616 197 605T189 578H133Q134 597 138 616T152 650T177 674T216 683Q235 683 254
677T291 664T322 651T345 645Q362 645 369 656T378 683H433Z" />
<glyph unicode="&#x2dd;" glyph-name="hungarumlaut" horiz-adv-x="567" d="M351 578H297L397 711H462L351 578ZM219 578H166L266 711H331L219 578Z" />
<glyph unicode="&#x394;" glyph-name="Delta" horiz-adv-x="611" d="M5 0V84L259 667H353L606 84V0H5ZM296 562L87 84H504L296 562Z" />
<glyph unicode="&#x3a9;" glyph-name="Omega" horiz-adv-x="722" d="M422 0V71Q453 104 479 138T526 210T557 289T569 378Q569 426 556 469T517 543T452 593T361 612Q309 612 270 594T205 544T166 469T153 378Q153 330 164 289T195 210T242 139T300 71V0H29V71H213Q182
106 153 140T102 211T67 289T53 381Q53 441 75 498T141 599Q187 646 242 664T361 683Q425 683 479 665T581 599Q624 556 646 499T669 381Q669 332 656 290T620 211T569 140T508 71H694V0H422Z" />
<glyph unicode="&#x3c0;" glyph-name="pi" horiz-adv-x="749" d="M579 411V133Q579 94 588 62T624 0H525Q504 29 497 64T490 134V411H273V0H184V411H166Q123 411 93 398T29 359V456Q64 478 97 483T171 489H709V411H579Z" />
<glyph unicode="&#x2013;" glyph-name="endash" horiz-adv-x="461" d="M47 244V300H414V244H47Z" />
<glyph unicode="&#x2014;" glyph-name="emdash" horiz-adv-x="922" d="M44 244V289H878V244H44Z" />
<glyph unicode="&#x2018;" glyph-name="quoteleft" horiz-adv-x="292" d="M90 456V552Q90 582 94 609T111 658T144 694T201 711V678Q185 673 177 661T164 634T159 602T158 572V567H201V456H90Z" />
<glyph unicode="&#x2019;" glyph-name="quoteright" horiz-adv-x="292" d="M201 615Q201 585 197 558T180 509T147 473T90 456V489Q106 493 115 505T128 533T132 566T133 596V600H90V711H201V615Z" />
<glyph unicode="&#x201a;" glyph-name="quotesinglbase" horiz-adv-x="292" d="M201 15Q201 -14 196 -39T178 -85T144 -117T90 -133V-100Q105 -96 114 -85T127 -59T132 -29T133 0H90V111H201V15Z" />
<glyph unicode="&#x201c;" glyph-name="quotedblleft" horiz-adv-x="344" d="M206 478V558Q206 584 208 609T225 657Q236 677 254 691T294 711V678Q272 665 267 641T263 593V567H294V478H206ZM50 478V558Q50 584 53 609T70 657Q81 677 99 691T139 711V678Q128
672 122 662T112 640T108 616T107 592V567H139V478H50Z" />
<glyph unicode="&#x201d;" glyph-name="quotedblright" horiz-adv-x="344" d="M294 631Q294 605 292 580T275 532Q264 512 246 498T206 478V511Q228 524 232 549T237 598V622H206V711H294V631ZM139 631Q139 605 136 580T119 532Q108 512 90 498T50 478V511Q62
517 68 527T78 549T81 574T82 598V622H50V711H139V631Z" />
<glyph unicode="&#x201e;" glyph-name="quotedblbase" horiz-adv-x="344" d="M294 4Q294 -20 291 -44T275 -90Q264 -110 247 -124T206 -144V-111Q217 -106 223 -96T233 -72T236 -46T237 -22V0H206V89H294V4ZM139 9Q139 -17 136 -42T119 -90Q108 -110 91 -124T50
-144V-111Q62 -105 68 -95T78 -73T81 -48T82 -24V0H50V89H139V9Z" />
<glyph unicode="&#x2020;" glyph-name="dagger" horiz-adv-x="583" d="M325 378L336 -133H247L258 378L103 367V433L258 422L247 667H336L325 422L481 433V367L325 378Z" />
<glyph unicode="&#x2021;" glyph-name="daggerdbl" horiz-adv-x="583" d="M325 111L336 -133H247L258 111L103 100V167L258 156V378L103 367V433L258 422L247 667H336L325 422L481 433V367L325 378V156L481 167V100L325 111Z" />
<glyph unicode="&#x2022;" glyph-name="bullet" horiz-adv-x="583" d="M429 340Q429 312 419 287T389 242T345 212T292 200Q263 200 238 211T194 241T165 286T154 340Q154 368 164 393T194 438T238 469T292 480Q320 480 345 469T389 438T418 394T429 340Z" />
<glyph unicode="&#x2026;" glyph-name="ellipsis" horiz-adv-x="922" d="M722 0V89H811V0H722ZM417 0V89H506V0H417ZM111 0V89H200V0H111Z" />
<glyph unicode="&#x2030;" glyph-name="perthousand" horiz-adv-x="933" d="M928 167Q928 134 920 104T894 50T850 14T786 0Q750 0 723 13T679 50T653 103T644 167Q644 200 652 230T678 283T722 319T786 333Q822 333 849 320T893 284T919 231T928 167ZM289 500Q289
467 281 437T255 383T210 347T147 333Q110 333 84 346T40 383T14 436T6 500Q6 533 14 563T40 616T84 653T147 667Q183 667 210 654T254 617T280 564T289 500ZM81 -17H11L536 683H606L81 -17ZM611 167Q611 134 603 104T577 50T533 14T469 0Q432 0 406 13T362 50T336
103T328 167Q328 200 336 230T362 283T406 319T469 333Q505 333 532 320T576 284T602 231T611 167ZM861 167Q861 185 858 206T847 245T824 276T786 289Q763 289 749 277T726 246T714 206T711 167Q711 149 714 128T725 88T748 57T786 44Q809 44 823 56T846 88T858
128T861 167ZM222 500Q222 518 219 539T208 578T185 609T147 622Q124 622 110 610T87 579T75 539T72 500Q72 482 75 461T86 422T109 391T147 378Q170 378 184 390T207 421T219 461T222 500ZM544 167Q544 185 541 206T529 245T506 276T469 289Q446 289 432 277T409
246T398 206T394 167Q394 149 397 128T408 88T431 57T469 44Q492 44 506 56T529 87T541 127T544 167Z" />
<glyph unicode="&#x2039;" glyph-name="guilsinglleft" horiz-adv-x="306" d="M228 44L50 244L228 444L272 411L139 244L272 78L228 44Z" />
<glyph unicode="&#x203a;" glyph-name="guilsinglright" horiz-adv-x="306" d="M78 44L33 78L167 244L33 411L78 444L256 244L78 44Z" />
<glyph unicode="&#x2044;" glyph-name="fraction" horiz-adv-x="33" d="M-192 -17L-278 -16L214 683H300L-192 -17Z" />
<glyph unicode="&#x20ac;" glyph-name="Euro" horiz-adv-x="583" d="M556 12Q514 1 474 -8T390 -17Q261 -17 189 50T93 242H12V297H85Q84 306 84 314V332Q84 360 87 387H12V442H96Q123 562 203 622T404 683Q443 683 480 678T556 663V581Q520 596 482 604T404 613Q363
613 323 600T253 558Q225 531 212 505T187 442H448V387H176Q175 373 174 360T173 332Q173 323 173 315T175 297H448V242H184Q195 202 208 174T251 115Q312 57 398 57Q440 57 478 66T556 90V12Z" />
<glyph unicode="&#x2122;" glyph-name="trademark" horiz-adv-x="744" d="M617 333V575L543 361H490L417 556V333H356V667H461L531 474L598 667H694V333H617ZM188 611V333H111V611H0V667H299V611H188Z" />
<glyph unicode="&#x2202;" glyph-name="partialdiff" horiz-adv-x="583" d="M495 410Q495 366 490 323T473 237Q461 193 441 149T389 70T318 12T227 -11Q193 -11 168 1T125 35T100 85T91 145Q91 193 109 248T161 350T240 428T340 459Q365 459 385 451T426 428V441Q426
475 417 511T389 577T341 626T271 645Q226 645 185 629T111 584Q123 611 142 636T185 680T237 710T298 722Q359 722 397 691T457 614T487 513T495 410ZM426 349Q408 368 385 381T334 395Q298 395 269 373T219 318T187 247T175 178Q175 159 179 138T192 98T217 68T257
56Q287 56 311 74T353 118T384 175T404 230Q412 259 417 289T426 349Z" />
<glyph unicode="&#x220f;" glyph-name="product" horiz-adv-x="700" d="M604 596V0H509V596H192V0H97V596H53V667H648V596H604Z" />
<glyph unicode="&#x2211;" glyph-name="summation" horiz-adv-x="592" d="M23 0V84L302 322L45 596V667H556V596H175L421 333L130 84H578V0H23Z" />
<glyph unicode="&#x2212;" glyph-name="minus" horiz-adv-x="583" d="M25 233V300H557V233H25Z" />
<glyph unicode="&#x2215;" glyph-name="fraction" horiz-adv-x="33" d="M-192 -17L-278 -16L214 683H300L-192 -17Z" />
<glyph unicode="&#x2219;" glyph-name="periodcentered" horiz-adv-x="583" d="M236 211V322H347V211H236Z" />
<glyph unicode="&#x221a;" glyph-name="radical" horiz-adv-x="656" d="M378 -133H332L143 183L81 147L52 194L173 265L347 -27L607 728H678L378 -133Z" />
<glyph unicode="&#x221e;" glyph-name="infinity" horiz-adv-x="778" d="M724 274Q724 238 714 203T682 140T631 95T560 78Q527 78 502 90T456 123T418 167T383 216Q369 190 353 166T316 122T271 90T212 78Q176 78 147 93T97 134T65 191T54 257Q54 291 65 326T96
391T147 438T216 456Q248 456 274 443T323 410T363 364T396 314Q410 339 426 364T464 409T510 443T568 456Q604 456 633 440T682 399T713 340T724 274ZM657 270Q657 291 652 312T635 350T606 378T564 389Q540 389 520 377T484 346T454 306T430 268Q441 255 450
241T471 212Q479 201 490 189T515 168T542 152T571 145Q593 145 609 158T636 190T652 231T657 270ZM347 268Q337 284 322 304T288 343T248 373T207 386Q183 386 167 374T140 342T126 301T121 260Q121 238 126 218T144 181T174 155T216 145Q238 145 258 158T294
189T324 229T347 268Z" />
<glyph unicode="&#x222b;" glyph-name="integral'" horiz-adv-x="583" d="M463 627Q463 609 450 595T418 580Q402 580 392 590T381 617Q381 620 381 622T383 628Q381 629 377 629Q360 629 351 611T338 569T333 522T332 486Q332 423 334 361T336 235Q336 200 335
159T330 76T315 -5T288 -76Q274 -102 248 -117T191 -133Q167 -133 144 -119T121 -77Q121 -60 134 -46T164 -31Q184 -31 195 -45T202 -79Q204 -79 205 -79T209 -80Q217 -80 223 -74T234 -61Q241 -50 245 -33T250 3T252 40V72Q252 119 250 165T247 258V324Q247 360
248 399T254 478T269 555T297 625Q312 652 337 667T393 683Q418 683 440 669T463 627Z" />
<glyph unicode="&#x2248;" glyph-name="approxequal" horiz-adv-x="583" d="M536 429Q534 400 528 373T507 325T470 291T414 278Q384 278 358 289T306 314L202 368Q188 376 172 376Q155 376 145 368T127 348T117 322T114 294H47Q47 322 55 348T78 396T117 430T171
443Q204 443 237 428T302 394T362 361T413 345Q430 345 441 353T458 373T466 400T469 429H536ZM536 239Q534 210 528 183T507 135T471 102T415 89Q384 89 358 100T306 125L202 179Q188 187 172 187Q155 187 145 180T127 160T117 134T114 106H47Q47 134 55 160T78
208T117 241T171 254Q204 254 237 239T301 205T360 171T413 156Q429 156 440 164T457 184T466 210T469 239H536Z" />
<glyph unicode="&#x2260;" glyph-name="notequal" horiz-adv-x="583" d="M271 156L221 67H143L193 156H47V223H231L282 311H47V378H320L371 467H447L396 378H536V311H358L308 223H536V156H271Z" />
<glyph unicode="&#x2264;" glyph-name="lessequal" horiz-adv-x="583" d="M47 333L536 578V503L196 333L536 163V89L47 333ZM47 0V67H536V0H47Z" />
<glyph unicode="&#x2265;" glyph-name="greaterequal" horiz-adv-x="583" d="M47 89V163L387 333L47 503V578L536 333L47 89ZM47 0V67H536V0H47Z" />
<glyph unicode="&#x25ca;" glyph-name="lozenge" horiz-adv-x="583" d="M292 0L47 244L292 489L536 244L292 0ZM292 395L141 244L292 94L442 244L292 395Z" />
<glyph unicode="&#xe481;" glyph-name="efhomemark" horiz-adv-x="779" d="M311 688L788 390L767 329L340 591L68 45L-8 80L311 688ZM355 541L524 438L498 378L387 442L356 379L469 314L440 251L258 348L355 541ZM242 315L426 219L396 152L274 213L240 145L366
86L334 17L139 108L242 315ZM554 420L711 321L687 267L582 329L554 267L660 207L633 149L470 235L554 420ZM456 203L619 117L591 55L486 110L426 -25L366 2L456 203Z" />
<glyph unicode="&#xf6bc;" glyph-name="Emdash" horiz-adv-x="922" d="M50 311V356H872V311H50Z" />
<glyph unicode="&#xf6cb;" glyph-name="Dieresis" horiz-adv-x="567" d="M150 734V823H239V734H150ZM327 734V823H416V734H327Z" />
<glyph unicode="&#xfb01;" glyph-name="fi" horiz-adv-x="594" d="M417 578V667H506V578H417ZM417 0V422H195V0H106V422H36V489H106V548Q106 629 142 675T265 722Q291 722 316 718T367 708V637Q344 645 321 650T272 655Q246 655 231 648T208 628T198 597T195 557V489H506V0H417Z"
/>
<glyph unicode="&#xfb02;" glyph-name="fl" horiz-adv-x="597" d="M419 0V635Q387 643 355 649T289 655Q241 655 219 634T197 566V489H319V422H197V0H108V422H36V489H108V539Q108 577 115 609T148 671Q177 703 214 712T292 722Q312 722 331 721T370 717Q381 715
390 714T411 711Q435 710 459 710T508 711V0H419Z" />
</font>
</defs>
</svg>
