<?xml version="1.0" standalone="no"?> <!DOCTYPE svg PUBLIC "-//W3C//DTD SVG 1.0//EN" "http://www.w3.org/TR/2001/REC-SVG-20010904/DTD/svg10.dtd" > <svg xmlns="http://www.w3.org/2000/svg" width="100%" height="100%">
<defs >
<font id="LBBWLucidaW_Bright_Roman" horiz-adv-x="539" ><font-face
    font-family="LBBWLucidaW Bright"
    units-per-em="1000"
    panose-1="2 0 5 6 8 0 0 2 0 4"
    ascent="856"
    descent="-194"
    alphabetic="0" />
<missing-glyph horiz-adv-x="333" d="M48 0V750H283V0H48ZM110 63H220V688H110V63Z" />
<glyph unicode=" " glyph-name="space" horiz-adv-x="281" />
<glyph unicode="!" glyph-name="exclam" horiz-adv-x="245" d="M136 178H108L78 533V667H167V533L136 178ZM78 0V89H167V0H78Z" />
<glyph unicode="&quot;" glyph-name="quotedbl" horiz-adv-x="356" d="M270 489H242L211 711H300L270 489ZM114 489H86L56 711H145L114 489Z" />
<glyph unicode="#" glyph-name="numbersign" horiz-adv-x="561" d="M556 417H413L371 251H522L514 206H360L308 0H262L314 206H184L132 0H86L138 206H-3L6 251H149L190 417H39L47 462H202L253 667H299L248 462H378L429 667H475L424 462H564L556 417ZM236 417L195
251H325L366 417H236Z" />
<glyph unicode="$" glyph-name="dollar" horiz-adv-x="561" d="M470 186Q470 126 433 75Q409 43 379 26T301 -1V-56H273V0Q256 0 244 1T222 3T200 6T176 11Q162 14 151 16T131 22T111 29T86 39V150H136L137 142V129Q137 122 138 111Q139 88 144 78T166 56Q185
43 208 36T256 29Q260 29 264 29T273 30V303Q249 317 233 326T206 344T185 360T164 379Q138 404 123 439T108 509Q108 564 146 610Q168 637 192 648Q206 656 221 660T273 670V722H301V669Q315 668 325 668T344 666T364 662T386 657Q398 654 407 652T424 648T440
643T460 635V532H411V540Q411 550 410 557T409 570Q409 590 405 598T387 616Q351 639 309 639H301V378Q324 364 340 353T368 335Q383 325 395 316T419 299Q444 279 457 250T470 186ZM392 165Q392 192 383 213Q376 229 364 241T322 273L301 287L302 35Q330 44 344
54T371 87Q392 121 392 165ZM273 635Q233 629 210 599T186 524Q186 504 194 482Q199 469 205 459T220 438T242 418T273 396V635Z" />
<glyph unicode="%" glyph-name="percent" horiz-adv-x="622" d="M293 501Q293 464 283 434T254 381T209 347T151 334Q120 334 94 346T50 381T21 433T10 501Q10 537 20 567T49 620T94 654T151 667Q182 667 208 655T253 620T282 568T293 501ZM71 -17H15L551 683H607L71
-17ZM613 168Q613 130 603 99T573 46T528 12T471 0Q439 0 413 12T369 46T340 99T329 168Q329 205 339 235T368 288T413 322T471 334Q502 334 528 322T573 288T602 236T613 168ZM226 501Q226 573 209 606T152 639Q113 639 95 606T77 501Q77 428 95 395T152 362Q191
362 208 395T226 501ZM546 166Q546 240 528 273T471 306Q431 306 414 273T396 167Q396 93 413 61T471 28Q510 28 528 60T546 166Z" />
<glyph unicode="&amp;" glyph-name="ampersand" horiz-adv-x="636" d="M634 326L598 324Q589 324 584 323T577 317T573 305T572 283Q572 267 564 238T544 187Q539 178 535 171T526 155T511 135T489 106Q500 95 510 85T530 63Q539 53 545 47T558 38T571 33T591
31L632 28H638V0H468L426 46Q383 19 339 1T241 -17Q194 -17 153 -1T82 45T35 113T17 198Q17 270 60 322T185 400Q157 443 145 475T133 538Q133 569 145 595T178 641T227 672T290 683Q362 683 404 647T447 550Q447 517 431 485T385 430Q375 422 367 416T349 405T327
395T297 384L314 356Q337 318 351 296T370 266Q377 255 393 233T435 175L469 129Q474 137 477 142T482 150Q493 172 501 207T509 272V281Q509 283 508 297Q507 315 503 319T480 324H468Q458 324 441 326H432V354H643V326H634ZM373 113Q350 142 333 166T303 209Q291
227 281 242T258 276T232 318T198 375Q106 322 106 223Q106 182 119 148T157 88T214 49T286 34Q318 34 349 43T406 70L373 113ZM364 562Q364 607 346 631T295 655Q262 655 242 630T222 563Q222 528 235 497T266 436Q269 431 273 424T283 406Q296 415 304 421T320
435T332 449T342 466Q352 484 358 511T364 562Z" />
<glyph unicode="&apos;" glyph-name="quotesingle" horiz-adv-x="222" d="M125 467H97L56 711H167L125 467Z" />
<glyph unicode="(" glyph-name="parenleft" horiz-adv-x="292" d="M253 -133Q228 -118 211 -106T180 -79T154 -47T126 -4Q86 63 65 138T44 290Q44 442 126 579Q142 606 155 624T182 657T212 684T253 711V683Q235 662 222 646T200 615T183 583T167 545Q158 520
152 493T141 436T135 369T133 289Q133 245 135 210T141 144T151 87T167 33Q174 12 181 -4T198 -35T221 -68T253 -106V-133Z" />
<glyph unicode=")" glyph-name="parenright" horiz-adv-x="292" d="M247 288Q247 134 166 -1Q149 -28 137 -47T110 -80T80 -106T39 -133V-106Q57 -85 70 -69T92 -37T109 -5T125 33Q134 58 140 84T150 142T156 209T158 289Q158 332 157 367T151 433T141 491T125
545Q118 566 111 582T93 613T70 645T39 683V711Q63 696 80 684T112 657T138 625T166 582Q206 515 226 440T247 288Z" />
<glyph unicode="*" glyph-name="asterisk" horiz-adv-x="433" d="M256 487Q256 489 256 490T257 494Q257 505 246 519L373 577L393 514L256 487ZM233 528Q224 532 216 532Q209 532 200 528L183 667H250L233 528ZM293 331L224 453Q235 455 240 459T251 472L346
370L293 331ZM187 519Q177 505 177 494V487L40 514L61 577L187 519ZM141 331L87 370L182 472Q188 462 193 459T209 453L141 331Z" />
<glyph unicode="+" glyph-name="plus" horiz-adv-x="561" d="M305 242V22H256V242H36V292H256V511H305V292H525V242H305Z" />
<glyph unicode="," glyph-name="comma" horiz-adv-x="244" d="M178 111V-21Q178 -34 177 -38Q175 -59 162 -83Q146 -111 122 -126T67 -144V-116Q81 -114 88 -110T102 -93Q105 -87 107 -82T109 -71T110 -55T111 -29V0H67V111H178Z" />
<glyph unicode="-" glyph-name="hyphen" horiz-adv-x="300" d="M44 242V308H256V242H44Z" />
<glyph unicode="." glyph-name="period" horiz-adv-x="244" d="M67 0V111H178V0H67Z" />
<glyph unicode="/" glyph-name="slash" horiz-adv-x="472" d="M57 -133H2L416 711H471L57 -133Z" />
<glyph unicode="0" glyph-name="zero" horiz-adv-x="561" d="M514 331Q514 252 498 188T451 78T377 8T281 -17Q228 -17 185 7T111 77T64 187T47 331Q47 412 63 477T110 587T184 658T281 683Q334 683 377 658T450 588T497 477T514 331ZM419 333Q419 377 418 409T413
468T405 515T392 559Q375 604 345 629T279 655Q245 655 216 630T169 559Q161 539 156 518T148 471T144 411T142 333Q142 289 143 256T147 197T155 150T169 106Q185 62 215 37T281 11Q316 11 345 36T392 106Q400 127 405 148T413 196T417 255T419 333Z" />
<glyph unicode="1" glyph-name="one" horiz-adv-x="561" d="M108 0V28H161Q174 28 192 31Q223 36 229 56T236 117V530L233 575Q231 597 229 602T215 607Q206 607 199 607T186 605T172 603T153 599L108 590V618L325 672V117Q325 84 327 66T338 40T360 30T400 28H453V0H108Z"
/>
<glyph unicode="2" glyph-name="two" horiz-adv-x="561" d="M471 504Q471 475 464 451T441 403T400 357T340 309L288 272Q265 256 249 243T219 219T197 195T177 168Q161 145 155 127T145 78H469V0H72V44Q78 62 83 75T93 100T103 122T117 144Q133 169 150 188T193
233L240 277Q270 305 291 327T328 367T352 402T367 435Q378 466 378 505Q378 574 345 614T255 655Q205 655 161 628Q147 619 142 611Q140 607 138 604T135 592T133 570T132 532V521H87V643Q185 683 266 683Q310 683 348 670T413 633T455 576T471 504Z" />
<glyph unicode="3" glyph-name="three" horiz-adv-x="561" d="M471 183Q471 137 456 100T412 37T342 -3T249 -17Q202 -17 160 -12T83 5V122H128V112L130 81Q132 63 136 55T154 38Q176 25 200 18T247 11Q306 11 342 57T378 180Q378 257 331 299T198 342H143V370H173Q274
370 318 406T362 522Q362 585 331 620T244 655Q204 655 160 636Q146 631 143 625T137 602L133 562V555H88V656Q165 683 251 683Q345 683 398 643T451 530Q451 412 311 361Q332 356 347 352T373 342T394 331T414 317Q441 296 456 261T471 183Z" />
<glyph unicode="4" glyph-name="four" horiz-adv-x="561" d="M411 189V117L414 72Q415 59 416 52T422 40T434 34T456 31L486 28H494V0H239V28H247L294 31Q316 33 323 40T331 72L333 117V189H28V233L361 678H411V256H500V189H411ZM333 596L78 256H333V596Z" />
<glyph unicode="5" glyph-name="five" horiz-adv-x="561" d="M466 189Q466 92 402 38T223 -17Q193 -17 164 -13T106 -2V111H150L151 100V66Q151 40 174 26T238 11Q301 11 337 59T373 192Q373 307 288 345Q271 352 257 357T225 364T186 368T133 369H117V667H453V589H145V403H186Q322
403 394 349T466 189Z" />
<glyph unicode="6" glyph-name="six" horiz-adv-x="561" d="M509 218Q509 169 493 126T447 51T378 1T292 -17Q177 -17 117 71T56 323Q56 487 125 587Q159 637 207 660T324 683Q409 683 471 653V546H427Q427 550 427 552T426 557T425 567T423 588Q421 607 418 613T402
628Q382 641 360 648T316 655Q245 655 204 590Q186 561 176 531T160 470T153 407T150 341Q179 388 216 407T311 427Q355 427 391 412T454 369T494 303T509 218ZM420 207Q420 299 389 348T297 397Q231 397 192 357T153 248Q153 195 164 152T194 78T241 29T302 12Q358
12 389 63T420 207Z" />
<glyph unicode="7" glyph-name="seven" horiz-adv-x="561" d="M521 608Q486 561 461 526T415 459T376 397T337 327Q314 284 296 243T263 159Q255 138 250 121T242 85T236 47T232 0H126Q130 25 134 43T144 77T156 110T173 149Q193 191 214 228T259 299Q275 322
310 370T401 493L468 583H93V667H521V608Z" />
<glyph unicode="8" glyph-name="eight" horiz-adv-x="561" d="M502 172Q502 131 486 96T439 36T368 -3T275 -17Q226 -17 186 -4T118 32T73 89T57 162Q57 225 93 277T193 359Q180 368 172 373T158 384T146 394L134 406Q90 450 90 514Q90 552 104 583T145 636T207
671T289 683Q374 683 424 644T475 538Q475 435 343 368Q502 300 502 172ZM413 147Q413 171 407 191T384 229T342 265T276 305L213 339Q178 307 162 267T146 173Q146 98 182 55T280 11Q308 11 332 21T375 50T403 93T413 147ZM397 534Q397 589 366 622T280 655Q256
655 236 646T200 622T177 587T168 542Q168 511 180 489T216 447Q226 438 235 432T255 418T281 403T319 382Q397 439 397 534Z" />
<glyph unicode="9" glyph-name="nine" horiz-adv-x="561" d="M506 344Q506 261 489 196T436 79Q402 30 354 7T237 -17Q154 -17 90 13V119H135V110L138 78Q140 59 143 53T159 38Q199 11 245 11Q316 11 357 76Q375 104 385 134T401 196T408 260T411 326Q403 316
398 308T387 295Q363 268 328 254T251 239Q207 239 171 254T108 297T68 363T53 448Q53 498 69 541T115 615T184 665T271 683Q384 683 445 596T506 344ZM408 417Q408 471 397 514T367 589T320 638T259 655Q203 655 173 604T142 460Q142 367 173 318T264 269Q330
269 369 309T408 417Z" />
<glyph unicode=":" glyph-name="colon" horiz-adv-x="244" d="M67 378V489H178V378H67ZM67 0V111H178V0H67Z" />
<glyph unicode=";" glyph-name="semicolon" horiz-adv-x="244" d="M178 111V-21Q178 -34 177 -38Q175 -59 162 -83Q146 -111 122 -126T67 -144V-116Q81 -114 88 -110T102 -93Q105 -87 107 -82T109 -71T110 -55T111 -29V0H67V111H178ZM67 378V489H178V378H67Z" />
<glyph unicode="&lt;" glyph-name="less" horiz-adv-x="561" d="M36 267L525 511V458L145 267L525 76V22L36 267Z" />
<glyph unicode="=" glyph-name="equal" horiz-adv-x="561" d="M36 319V369H525V319H36ZM36 164V214H525V164H36Z" />
<glyph unicode="&gt;" glyph-name="greater" horiz-adv-x="561" d="M36 22V76L417 267L36 457V511L525 267L36 22Z" />
<glyph unicode="?" glyph-name="question" horiz-adv-x="443" d="M399 535Q399 495 380 464T311 394Q299 384 291 378T277 366L260 351Q243 336 236 309T228 239V177H139V185Q139 233 153 268Q161 288 172 304T203 340L221 358Q263 400 284 444T306 531Q306 588
274 621T186 655Q143 655 111 632Q97 623 93 614T87 587L85 539L84 529H40V652Q85 670 123 676T203 683Q247 683 283 672T345 642T385 596T399 535ZM139 0V89H228V0H139Z" />
<glyph unicode="@" glyph-name="at" horiz-adv-x="806" d="M764 321Q764 267 746 219T697 133T625 75T538 53Q461 53 461 116Q461 135 465 148L476 187L479 206H470Q459 188 451 175T435 151T417 130T395 107Q342 53 295 53Q257 53 235 81T213 157Q213 203 231
254T281 349T357 420T452 448Q468 448 488 443L524 433L536 430H579L527 172Q525 161 524 149T522 129Q522 87 568 87Q607 87 638 112T691 174T724 252T736 326Q736 379 715 424T657 504T570 557T462 576Q386 576 315 543T189 456T101 331T68 185Q68 126 89 79T148
-1T235 -51T340 -69Q381 -69 415 -61T486 -35L496 -60Q458 -77 421 -87T341 -97Q280 -97 226 -78T130 -23T64 64T40 179Q40 264 75 341T168 476T304 569T466 604Q530 604 584 583T679 524T741 434T764 321ZM503 384Q468 403 422 403Q392 403 366 386T321 339T291
269T280 180Q280 146 291 128T322 109Q338 109 353 119T390 152Q406 169 417 183T439 213T460 247L485 289L503 384Z" />
<glyph unicode="A" glyph-name="A" horiz-adv-x="686" d="M439 0V28H475Q510 28 510 46Q510 62 504 82T491 117L454 206H168L122 92Q119 84 114 71T109 46Q109 35 121 32T166 28H173V0H0V28H10L31 29Q45 30 54 38T73 69Q77 80 79 84T83 94T90 111T105 145T131
207T173 308T238 461T328 675H359Q411 550 448 460T512 307T555 205T581 142T596 109T603 92T608 82T616 67Q622 54 626 47T637 35T652 30T676 28H686V0H439ZM311 545L183 242H438L311 545Z" />
<glyph unicode="B" glyph-name="B" horiz-adv-x="562" d="M509 168Q509 129 492 95T445 37Q431 26 417 19T383 8T340 2T281 0H19V28H28L58 31Q71 32 79 34T91 40T97 51T100 72L103 117V550L100 594Q99 607 98 615T92 627T79 632T58 636L28 639H19V667H293Q329
667 363 660T423 636T465 591T481 519Q481 487 467 454T427 398Q418 389 410 383T391 370T366 358T331 345Q415 331 462 284T509 168ZM386 509Q386 575 349 606Q339 615 328 620T302 629T266 634T219 636H196V361H224Q266 361 292 368T340 394Q364 414 375 441T386
509ZM411 164Q411 241 357 286Q343 297 328 305T294 318T251 327T196 331V117L197 77Q197 64 198 57T202 46T212 39T230 35Q242 33 253 32T274 30Q335 30 373 67T411 164Z" />
<glyph unicode="C" glyph-name="C" horiz-adv-x="641" d="M588 36Q574 27 567 24Q529 4 481 -6T377 -17Q299 -17 242 5T139 75Q94 123 71 189T47 335Q47 414 69 481T136 596Q214 683 371 683Q394 683 414 682T456 676T503 667T560 654L577 650V522H521V531Q520
536 520 542V558Q520 582 515 593T496 615Q472 632 438 642T368 653Q317 653 276 631T206 567T161 467T145 336Q145 263 163 206T215 110T300 49T413 28Q458 28 497 39T588 79V36Z" />
<glyph unicode="D" glyph-name="D" horiz-adv-x="708" d="M659 348Q659 267 637 203T573 93T472 24T338 0H19V28H28L58 31Q71 32 79 34T91 40T97 51T100 72L103 117V550L100 594Q99 607 98 615T92 627T79 632T58 636L28 639H19V667H202Q235 667 263 668Q287 668
308 668T333 669Q360 669 383 668T430 661Q484 652 526 626T598 559T643 465T659 348ZM559 336Q559 415 543 472T491 565T400 619T267 636H196V117L198 82Q199 58 204 52Q210 43 239 37T303 30Q359 30 407 48T487 99Q559 172 559 336Z" />
<glyph unicode="E" glyph-name="E" horiz-adv-x="522" d="M19 0V28H28L58 31Q71 32 79 34T91 40T97 51T100 72L103 117V550L100 594Q99 607 98 615T92 627T79 632T58 636L28 639H19V667H475V551H425Q425 555 425 556T424 560T424 572T422 597Q421 620 417 625Q412
631 389 631Q375 631 368 631T353 632H196V364H322Q356 364 367 368T379 390V398Q379 403 380 411V419H417V272H380V281Q380 301 378 309T373 320Q370 323 361 325T319 328H196V117Q196 96 199 76T207 50Q217 39 273 39H345L408 42Q431 43 439 49T448 73Q448 91
448 101T449 116Q449 121 450 122H500V0H19Z" />
<glyph unicode="F" glyph-name="F" horiz-adv-x="505" d="M419 551V560Q419 564 419 572T417 597Q416 608 415 614T411 624T402 629T384 631Q370 631 362 631T347 632H196V359H314Q326 359 330 359T348 360Q369 361 373 364T379 385V392Q379 398 380 406V414H417V268H380V276Q380
296 378 304T373 316Q370 319 354 321T319 323H196V117Q196 97 199 72Q204 43 209 39Q215 34 247 31L282 28H291V0H19V28H28L58 31Q71 32 79 34T91 40T97 51T100 72L103 117V550L100 594Q99 607 98 615T92 627T79 632T58 636L28 639H19V667H468V551H419Z" />
<glyph unicode="G" glyph-name="G" horiz-adv-x="675" d="M663 256L632 253Q605 251 598 245T590 212L588 167V16Q552 7 523 1T469 -9T420 -15T372 -17Q297 -17 237 8T135 78T70 189T47 335Q47 414 69 481T136 596Q214 683 373 683Q484 683 586 649V528H536V537Q535
542 535 562Q534 585 530 596T511 617Q487 634 452 643T379 653Q266 653 207 569T147 325Q147 252 162 201T208 112Q242 70 293 46T400 21Q411 21 420 21T440 24T463 28T493 36V167L490 212Q489 225 488 232T482 244T470 250T449 253L418 256H410V284H671V256H663Z"
/>
<glyph unicode="H" glyph-name="H" horiz-adv-x="711" d="M431 0V28H439L470 31Q483 32 491 33T504 39T510 51T513 72L514 117V327H196V117L197 72Q198 59 200 52T206 40T219 34T241 31L271 28H280V0H19V28H28L58 31Q71 32 79 34T91 40T97 51T100 72L103 117V550L100
594Q99 607 98 615T92 627T79 632T58 636L28 639H19V667H280V639H271L241 636Q227 634 219 633T207 627T200 615T197 594L196 550V366H514V550L511 594Q510 607 509 615T503 627T491 633T470 636L439 639H431V667H692V639H684L653 636Q626 634 619 628T611 594L609
550V117L611 72Q612 46 619 40T653 31L684 28H692V0H431Z" />
<glyph unicode="I" glyph-name="I" horiz-adv-x="300" d="M19 0V28H28L58 31Q71 32 79 34T91 40T97 51T100 72L103 117V550L100 594Q99 607 98 615T92 627T79 632T58 636L28 639H19V667H280V639H271L241 636Q227 634 220 633T208 627T202 615T199 594L196 550V117L199
72Q200 59 201 52T207 40T219 34T241 31L271 28H280V0H19Z" />
<glyph unicode="J" glyph-name="J" horiz-adv-x="389" d="M363 639L332 636Q306 634 299 628T291 594L288 550V121Q288 85 287 60T282 14T272 -22T256 -54Q233 -92 188 -112T80 -133Q60 -133 45 -132T5 -124V-2H58Q59 -13 59 -24T60 -46Q62 -72 66 -79Q71 -87
86 -93T117 -99Q151 -99 173 -71T195 3V550L192 594Q191 607 190 615T184 627T171 632T150 636L120 639H111V667H371V639H363Z" />
<glyph unicode="K" glyph-name="K" horiz-adv-x="653" d="M380 0V28H419Q424 28 435 28T447 40Q447 43 439 54T420 79T399 103T386 118L196 337V117L199 72Q200 55 203 46T213 33T231 29T260 28H268V0H19V28H28L58 31Q71 32 79 34T91 40T97 51T100 72L103 117V550L100
594Q99 607 98 615T92 627T79 632T58 636L28 639H19V667H280V639H271L241 636Q227 634 220 633T208 627T202 615T199 594L196 550V340L399 550Q403 554 413 566T435 591T454 617T463 633Q463 636 460 637T451 639H392V667H597V639Q585 637 566 637T537 634Q532
632 525 627T507 611T481 586T443 549L271 376Q340 299 384 250T456 172T496 128T517 105T532 89L553 68Q565 55 574 48T592 36T612 30T643 28H653V0H380Z" />
<glyph unicode="L" glyph-name="L" horiz-adv-x="514" d="M19 0V28H28L58 31Q71 32 79 34T91 40T97 51T100 72L103 117V550L100 594Q99 607 98 615T92 627T79 632T58 636L28 639H19V667H280V639H271L241 636Q227 634 220 633T208 627T202 615T199 594L196 550V117Q196
82 198 67T205 47Q210 42 224 41T274 39H343Q360 39 377 40T413 44Q433 47 440 53T448 79Q448 99 448 108T449 122T449 127T450 133H497V0H19Z" />
<glyph unicode="M" glyph-name="M" horiz-adv-x="793" d="M520 0V28H528L558 31Q571 32 579 34T591 40T596 51T599 72L602 117V574L392 53H359L152 582V117L155 72Q156 59 157 52T163 40T175 34T197 31L227 28H236V0H19V28H28L58 31Q71 32 79 34T91 40T97 51T100
72L103 117V550L100 594Q99 607 98 615T92 627T79 632T58 636L28 639H19V667H210L411 182L607 667H775V639H766L736 636Q722 634 715 633T703 627T697 615T694 594L691 550V117L694 72Q695 59 696 52T702 40T714 34T736 31L766 28H775V0H520Z" />
<glyph unicode="N" glyph-name="N" horiz-adv-x="693" d="M674 639Q670 639 669 639T664 638T654 637L635 636Q621 635 614 634T602 628T596 615T593 594L590 550V-9H559L145 550V117L148 72Q149 59 150 52T156 40T168 34T190 31L220 28H229V0H20V28H28L59 31Q72
32 80 33T92 39T97 51T100 72L103 117V550L100 594Q99 607 98 615T92 627T79 633T58 636Q44 637 38 637T29 638T25 638T19 639V667H169L549 149V550L546 594Q545 607 544 615T538 627T526 633T505 636Q491 637 485 637T475 638T471 638T466 639V667H674V639Z" />
<glyph unicode="O" glyph-name="O" horiz-adv-x="717" d="M669 333Q669 252 648 187T586 77T488 8T358 -17Q286 -17 229 7T131 77T69 187T47 333Q47 414 68 479T130 589T228 659T358 683Q430 683 488 659T586 590T647 479T669 333ZM569 333Q569 408 555 467T513
568T447 631T358 653Q308 653 269 632T203 569T162 468T147 333Q147 257 161 198T203 98T269 35T358 13Q408 13 447 34T513 97T554 198T569 333Z" />
<glyph unicode="P" glyph-name="P" horiz-adv-x="528" d="M509 493Q509 445 492 403T443 335Q374 278 224 278H196V117L198 72Q199 46 206 40T240 31L271 28H290V0H19V28H28L58 31Q71 32 79 34T91 40T97 51T100 72L103 117V550L100 594Q99 607 98 615T92 627T79
632T58 636L28 639H19V667H218Q225 667 231 667T243 668T259 668T283 669Q329 669 370 662T442 636T491 582T509 493ZM409 492Q409 570 375 603T260 636H196V308H229Q318 308 363 355T409 492Z" />
<glyph unicode="Q" glyph-name="Q" horiz-adv-x="717" d="M684 -134Q673 -131 665 -129T650 -124Q587 -104 534 -75T424 -11Q403 -15 391 -16T359 -17Q287 -17 229 7T131 77T69 187T47 333Q47 414 68 479T130 589T229 659T359 683Q431 683 489 659T587 590T648
479T670 333Q670 71 464 0Q500 -20 541 -33T625 -56T712 -70T796 -78L684 -134ZM570 333Q570 484 515 568T359 653Q259 653 204 569T148 333Q148 181 203 97T359 13Q409 13 448 34T514 97T555 198T570 333Z" />
<glyph unicode="R" glyph-name="R" horiz-adv-x="626" d="M455 0L273 293H196V117L198 72Q199 55 202 46T213 33T231 29T259 28H268V0H19V28H28L58 31Q71 32 79 34T91 40T97 51T100 72L103 117V550L100 594Q99 607 98 615T92 627T79 632T58 636L28 639H19V667H174Q207
667 236 668T297 669Q398 669 449 627T502 501Q502 433 467 385T365 314Q403 256 427 219T467 159L490 125Q498 113 504 105T517 86T537 59Q544 49 549 44T559 35T570 31T586 30Q596 29 603 29T616 28H625V0H455ZM407 491Q407 522 399 556Q387 601 357 618T260
636H196V323H230Q284 323 316 334T371 372Q407 415 407 491Z" />
<glyph unicode="S" glyph-name="S" horiz-adv-x="500" d="M457 177Q457 135 441 100T395 38T327 -2T242 -17Q225 -17 203 -15T152 -9Q131 -6 118 -5T95 -1T75 5T53 13V142H101Q101 131 101 121T103 100Q103 87 104 79T109 65T120 54T139 42Q185 17 239 17Q298
17 331 51T364 145Q364 170 360 189T343 225T311 257T259 290L211 316Q169 338 140 360T93 405T67 452T58 505Q58 544 72 576T113 632T174 669T252 683Q291 683 329 677T420 655V536H370Q370 547 369 557T368 579Q368 606 363 617T340 636Q303 653 256 653Q208
653 179 622T149 537Q149 515 153 498T169 465T199 435T244 405L291 378Q317 362 340 348T382 321Q457 266 457 177Z" />
<glyph unicode="T" glyph-name="T" horiz-adv-x="611" d="M544 544Q544 556 544 568T543 593Q543 605 542 611T538 621T527 626T506 628L459 631H353V117L356 72Q357 59 358 52T364 40T375 34T397 31L428 28H447V0H164V28H183L214 31Q227 32 235 33T247 39T252
51T255 72L258 117V631H152L105 628Q92 627 85 626T74 622T69 612T68 593Q68 581 68 569T67 544H19V667H592V544H544Z" />
<glyph unicode="U" glyph-name="U" horiz-adv-x="663" d="M654 639Q650 639 649 639T645 638H635Q629 638 615 637Q602 636 594 635T582 629T577 616T574 594L571 550V271Q571 227 570 197T564 146T552 107T531 70Q475 -17 335 -17Q218 -17 151 49Q119 80 105
127T91 249V550L88 594Q87 607 86 615T80 628T67 634T46 637Q32 638 26 638H17Q14 638 13 638T7 639V667H269V639Q265 639 264 639T260 638H250Q244 638 230 637Q216 636 209 635T197 629T191 616T188 594L186 550V265Q186 242 185 218T185 171T192 126T210 82Q227
50 264 32T348 13Q394 13 431 29T491 75Q502 88 508 101T518 132T523 176T524 245V550L521 594Q520 607 519 615T513 628T501 634T480 637Q466 638 459 638H450Q447 638 446 638T441 639V667H654V639Z" />
<glyph unicode="V" glyph-name="V" horiz-adv-x="644" d="M644 639Q622 637 609 635T586 610Q580 596 578 589T572 575T565 556T551 521T526 458T487 357T429 205T346 -8H315Q247 157 204 262T136 429T98 520T81 562T72 582T61 605Q55 618 50 624T38 633T22 636T0
639V667H242V639H191Q185 639 179 638T167 632T162 621Q162 617 165 610T178 578Q181 569 182 567T186 557T198 527T226 458T278 332T362 128L524 548Q527 555 531 564T538 583T545 602T548 618Q548 639 516 639H472V667H644V639Z" />
<glyph unicode="W" glyph-name="W" horiz-adv-x="853" d="M853 638Q849 638 848 638T844 637T836 637T818 636Q800 635 794 631T782 608Q778 594 776 587T771 573T766 554T755 519T737 456T707 356T663 205T600 -8H570L412 504L258 -8H227Q185 157 158 261T115
427T92 519T81 561T76 581T69 606Q63 627 58 632T36 637H6Q2 637 0 638V667H239V638H228Q226 638 221 638T206 637Q180 636 172 632T163 613Q163 596 167 579T176 546L275 160L428 658H460L613 145Q647 264 669 339T704 460T723 525T731 554T734 566T738 579Q744
602 746 610T748 622Q748 630 740 633T709 637Q695 637 689 637T679 638H669V667H853V638Z" />
<glyph unicode="X" glyph-name="X" horiz-adv-x="606" d="M356 0V28H391Q430 28 430 43Q430 46 425 56T412 79T399 103T390 117L281 304L154 117Q110 53 110 42Q110 35 118 32T146 28H183V0H0V28H7Q9 28 13 28L27 30Q36 31 41 32T52 36T62 46T76 65Q87 80 93 88T104
105T118 125T143 162T186 225T255 328Q196 427 163 482T113 564Q94 595 90 602Q79 621 72 628T43 637Q33 637 28 637T21 638T17 638T11 639V667H269V639H259Q257 639 251 639T232 638Q212 637 204 635T196 627Q196 622 199 613T213 587Q216 583 229 560Q240 540
263 500T331 387L443 551Q460 577 473 600T486 630Q486 637 457 638Q448 638 444 638T437 639H428V667H594V639Q587 638 580 638T566 637Q554 635 548 631T530 611Q517 593 510 584T496 565T481 545T457 512T418 457T355 367Q398 293 425 247T468 172T494 128L509
103Q515 93 521 83T540 54Q550 38 554 35T571 30Q583 29 588 29T596 28H606V0H356Z" />
<glyph unicode="Y" glyph-name="Y" horiz-adv-x="625" d="M625 639Q621 639 620 639T616 638T608 638T592 637Q583 637 578 636T568 632T561 624T552 611L511 547L356 295V117L358 72Q359 46 366 40T400 31L431 28H439V0H178V28H186L217 31Q230 32 238 33T250
39T255 51T258 72L261 117V295Q227 351 201 394T155 469L100 562Q79 597 74 604Q67 615 63 621T55 631T47 636T35 637Q23 637 18 637T10 638T6 638T0 639V667H258V639H248Q245 639 239 639T218 638Q185 636 185 623Q185 618 190 607T202 582T215 559T222 547L346
337L476 547Q493 575 504 596T515 625Q515 632 507 634T478 638Q467 638 462 638T453 639H444V667H625V639Z" />
<glyph unicode="Z" glyph-name="Z" horiz-adv-x="583" d="M51 0V36L409 631H206L157 629Q131 628 126 623T119 595V564Q119 549 117 533H67V667H515V636L159 42H361L435 45Q455 46 460 51T466 74Q467 94 467 103T468 117V128H518V0H51Z" />
<glyph unicode="[" glyph-name="bracketleft" horiz-adv-x="292" d="M78 -133V711H256V683H156V-105H256V-133H78Z" />
<glyph unicode="\" glyph-name="backslash" horiz-adv-x="472" d="M415 -133L2 711H57L470 -133H415Z" />
<glyph unicode="]" glyph-name="bracketright" horiz-adv-x="292" d="M36 -133V-105H136V683H36V711H214V-133H36Z" />
<glyph unicode="^" glyph-name="asciicircum" horiz-adv-x="561" d="M468 178L281 551L93 178H36L281 667L525 178H468Z" />
<glyph unicode="_" glyph-name="underscore" horiz-adv-x="461" d="M44 -58V0H417V-58H44Z" />
<glyph unicode="`" glyph-name="grave" horiz-adv-x="556" d="M324 578L165 711H268L365 578H324Z" />
<glyph unicode="a" glyph-name="a" horiz-adv-x="501" d="M487 0Q467 -7 456 -9T430 -11Q395 -11 376 7T347 67Q340 61 334 55L324 45Q264 -11 190 -11Q159 -11 133 -1T87 28T56 72T45 127Q45 164 62 195T111 248Q128 260 146 267T188 280T240 287T308 289H326V350Q326
464 239 464Q204 464 174 446Q165 440 160 435T152 423T146 404T142 377L141 368H81V458Q132 480 171 490T253 500Q331 500 377 460Q399 440 407 418T415 353V135Q415 76 425 53T460 29Q466 29 470 30T485 33L487 0ZM326 261H306Q226 261 182 229T138 140Q138 97
165 69T235 41Q257 41 277 49T326 77V261Z" />
<glyph unicode="b" glyph-name="b" horiz-adv-x="564" d="M513 259Q513 198 499 148T457 63T392 9T308 -11Q222 -11 161 56H156L144 -6H72V594L69 639Q68 652 67 660T61 672T49 678T28 681L-3 683H-11V711H161V397Q193 447 237 473T332 500Q373 500 406 483T463
435T500 359T513 259ZM420 235Q420 257 418 281T410 331Q399 388 373 415T300 442Q263 442 226 422T161 366V90Q199 63 230 51T297 38Q357 38 388 88T420 235Z" />
<glyph unicode="c" glyph-name="c" horiz-adv-x="469" d="M422 17Q406 10 396 7Q370 -2 342 -6T285 -11Q231 -11 187 7T111 60T62 141T44 247Q44 304 60 350T107 430T181 481T276 500Q313 500 349 494T422 478V361H367Q365 371 365 380T363 400Q358 436 339 453T279
470Q213 470 175 412T137 255Q137 152 182 93T305 34Q335 34 367 39T422 55V17Z" />
<glyph unicode="d" glyph-name="d" horiz-adv-x="592" d="M403 0V92Q371 42 327 16T231 -11Q190 -11 157 6T100 54T63 130T50 230Q50 291 64 341T106 426T171 480T256 500Q342 500 403 433V594L400 639Q399 652 398 660T392 672T379 678T358 681L328 683H319V711H492V117L494
72Q495 46 502 40T536 31L567 28H575V0H403ZM403 399Q366 426 334 438T266 450Q206 450 175 400T143 254Q143 208 153 158Q164 101 190 74T263 46Q301 46 339 67T403 123V399Z" />
<glyph unicode="e" glyph-name="e" horiz-adv-x="489" d="M441 22Q429 17 420 14T404 8Q375 -1 346 -6T287 -11Q233 -11 189 8T112 61T62 143T44 249Q44 304 60 350T104 429T172 481T260 500Q348 500 398 435Q421 404 431 367T441 272V264H143V257Q143 237 143
223T145 198T149 175T155 150Q170 96 209 65T301 34Q339 34 377 43T441 67V22ZM348 321Q348 342 347 357T344 385T338 407T329 427Q318 447 298 459T254 472Q203 472 174 425T144 292H347L348 311V321Z" />
<glyph unicode="f" glyph-name="f" horiz-adv-x="372" d="M328 583V602Q328 610 328 618T326 634Q323 667 308 680T261 693Q242 693 227 682T206 651Q200 633 200 611V489H322V453H200V117Q200 97 203 72Q204 58 206 50T212 39T225 34T248 31L281 28H294V0H28V28H36L67
31Q80 32 88 33T100 39T105 51T108 72L111 117V450H39V489H111V512Q111 544 112 567T117 609T127 641T144 668Q162 694 193 708T262 722Q297 722 325 715T383 689V583H328Z" />
<glyph unicode="g" glyph-name="g" horiz-adv-x="526" d="M489 440L372 460Q381 450 388 443T400 431Q414 412 422 384T430 329Q430 291 417 260T380 205T323 169T250 156Q231 156 219 157T187 165Q172 154 164 139T155 110Q155 78 211 78H289Q320 78 342 77T380
74T410 69T435 59Q460 48 473 24T487 -34Q487 -69 470 -97T423 -146T350 -178T255 -189Q203 -189 162 -182T91 -161T45 -128T29 -84Q29 -24 127 19Q77 43 77 83Q77 109 95 128T162 172Q114 194 89 234T63 328Q63 367 76 398T113 452T171 487T247 500Q275 500 296
496T340 481L512 494L489 440ZM341 331Q341 400 317 436T247 472Q200 472 176 436T152 331Q152 260 176 222T247 184Q341 184 341 331ZM400 -55Q400 -33 391 -18Q382 -1 363 5T306 11H151Q118 -22 118 -69Q118 -112 154 -136T255 -161Q322 -161 361 -133T400 -55Z"
/>
<glyph unicode="h" glyph-name="h" horiz-adv-x="583" d="M328 0V28H336L367 31Q380 32 388 33T400 39T405 51T408 72L411 117V331Q411 366 409 383T398 413Q390 427 373 435T336 443Q315 443 292 435T247 413Q239 407 233 403T221 394T208 383T189 367V117L192
72Q193 59 194 52T200 40T211 34T233 31L264 28H272V0H17V28H25L56 31Q69 32 77 33T89 39T94 51T97 72L100 117V594L97 639Q96 652 95 660T89 672T77 678T56 681L25 683H17V711H189V397Q221 445 267 472T365 500Q428 500 464 459T500 344V117L503 72Q504 46 511
40T544 31L575 28H583V0H328Z" />
<glyph unicode="i" glyph-name="i" horiz-adv-x="283" d="M100 578V667H189V578H100ZM17 0V28H25L56 31Q69 32 77 33T89 39T95 51T98 72L100 117V372L98 417Q97 430 96 437T90 449T78 455T57 458L25 461H17V489H189V117L191 72Q192 59 193 52T199 40T210 34T232
31L263 28H271L272 0H17Z" />
<glyph unicode="j" glyph-name="j" horiz-adv-x="319" d="M142 578V667H231V578H142ZM231 5Q231 -47 224 -77T198 -133Q178 -159 144 -174T67 -189Q42 -189 21 -185T-33 -171V-61H16V-69Q16 -92 19 -112T26 -140Q31 -149 44 -155T74 -161Q107 -161 124 -141T142
-83V372L139 417Q138 430 137 437T131 449T118 454T97 458L67 461H58V489H231V5Z" />
<glyph unicode="k" glyph-name="k" horiz-adv-x="553" d="M416 0L210 240H189V117L191 72Q193 46 198 39Q202 34 214 31T253 28H261V0H17V28H25L56 31Q69 32 77 33T89 39T94 51T97 72L100 117V594L97 639Q96 652 95 660T89 672T77 678T56 681L25 683H17V711H189V263H210L323
372L338 387Q350 399 362 413T385 439T395 454Q395 461 389 461H328V489H518V461H510Q481 461 472 459T455 453Q450 451 445 447T430 435T405 411T364 371L279 286L426 114L474 61Q483 51 490 45T504 35T521 30T545 28H553V0H416Z" />
<glyph unicode="l" glyph-name="l" horiz-adv-x="289" d="M17 0V28H25L56 31Q69 32 77 33T89 39T94 51T97 72L100 117V594L97 639Q96 652 95 660T89 672T77 678T56 681L25 683H17V711H189V117L192 72Q193 59 194 52T200 40T211 34T233 31L264 28H272V0H17Z" />
<glyph unicode="m" glyph-name="m" horiz-adv-x="872" d="M617 0V28H625L656 31Q669 32 677 33T689 39T694 51T697 72L700 117V340Q700 374 697 390T685 419Q669 442 632 442Q597 442 563 424T489 367V117L492 72Q493 59 494 52T500 40T511 34T533 31L564 28H572V0H317V28H325L356
31Q369 32 377 33T389 39T394 51T397 72L400 117V340Q400 375 397 390T385 419Q370 442 332 442Q298 442 261 423T189 367V117L192 72Q193 59 194 52T200 40T211 34T233 31L264 28H272V0H17V28H25L56 31Q69 32 77 33T89 39T94 51T97 72L100 117V372L97 417Q96 430
95 437T89 449T77 455T56 458L25 461H17V489H189V397Q221 440 261 470T358 500Q407 500 442 473Q461 458 469 443T483 397Q501 418 519 436T557 469T602 492T657 500Q719 500 754 462T789 356V117L792 72Q793 59 794 52T800 40T811 34T833 31L864 28H872V0H617Z"
/>
<glyph unicode="n" glyph-name="n" horiz-adv-x="594" d="M328 0V28H336L367 31Q380 32 388 33T400 39T405 51T408 72L411 117V331Q411 366 409 383T398 413Q390 427 373 435T336 443Q315 443 292 435T247 413Q239 407 233 403T221 394T208 383T189 367V117L192
72Q193 59 194 52T200 40T211 34T233 31L264 28H272V0H17V28H25L56 31Q69 32 77 33T89 39T94 51T97 72L100 117V372L97 417Q96 430 95 437T89 449T77 455T56 458L25 461H17V489H189V397Q221 445 267 472T365 500Q428 500 464 459T500 344V117L503 72Q504 46 511
40T544 31L575 28H583V0H328Z" />
<glyph unicode="o" glyph-name="o" horiz-adv-x="556" d="M510 244Q510 185 494 138T448 57T374 7T278 -11Q224 -11 181 6T107 57T60 137T44 244Q44 304 60 351T106 432T180 482T278 500Q331 500 374 483T447 432T494 352T510 244ZM417 244Q417 293 407 335T377
407T333 455T278 472Q248 472 223 455T179 408T150 335T139 244Q139 195 149 154T178 82T222 34T278 17Q308 17 333 34T377 81T406 153T417 244Z" />
<glyph unicode="p" glyph-name="p" horiz-adv-x="592" d="M542 259Q542 198 527 148T485 63T420 9T336 -11Q250 -11 189 56V-61L192 -106Q193 -132 200 -139T233 -147L264 -149L272 -150V-178H17V-150L25 -149L56 -147Q69 -146 77 -145T89 -139T94 -127T97 -106L100
-61V372L97 417Q96 430 95 437T89 449T77 455T56 458L25 461H17V489H189V397Q221 447 265 473T361 500Q402 500 435 483T492 435T529 359T542 259ZM447 235Q447 278 438 331Q427 388 401 415T328 442Q291 442 254 422T189 366V90Q227 63 258 51T324 38Q384 38 415
88T447 235Z" />
<glyph unicode="q" glyph-name="q" horiz-adv-x="564" d="M314 -178V-150L323 -149L353 -147Q366 -146 374 -145T386 -139T392 -127T395 -106L398 -61V92Q366 42 322 16T226 -11Q185 -11 152 6T95 54T58 130T45 230Q45 291 59 341T101 426T166 480T251 500Q337
500 398 433V489H487V-61L489 -106Q490 -132 497 -139T531 -147L562 -149L570 -150V-178H314ZM398 399Q361 426 329 438T261 450Q201 450 170 400T138 254Q138 223 142 187T158 120T194 67T258 46Q296 46 334 67T398 123V399Z" />
<glyph unicode="r" glyph-name="r" horiz-adv-x="403" d="M328 361Q328 365 328 366T327 371T326 381T323 403Q321 418 317 422T299 427Q264 427 235 406T189 356V117L192 72Q193 59 194 52T200 40T211 34T233 31L264 28H283V0H17V28H25L56 31Q69 32 77 33T89
39T94 51T97 72L100 117V372L97 417Q96 430 95 437T89 449T77 455T56 458L25 461H17V489H189V397Q250 500 348 500Q356 500 361 499T378 495V361H328Z" />
<glyph unicode="s" glyph-name="s" horiz-adv-x="435" d="M396 136Q396 104 383 77T345 31T286 0T211 -11Q174 -11 136 -4Q120 -1 109 1T87 7T65 14T40 25V149H90Q90 145 90 144T91 139T92 125T95 94Q97 76 102 66T119 46Q138 32 163 25T214 17Q255 17 281 41T307
105Q307 139 290 159T228 196L182 214Q137 232 103 253Q75 271 59 300T43 363Q43 393 55 418T90 461T144 490T211 500Q249 500 284 493T360 471V355H310V365Q310 369 309 377T306 404Q304 429 299 438T278 456Q249 472 217 472Q178 472 153 447T127 383Q127 367
131 355T147 333T179 312T231 288L274 271Q297 262 314 253T346 234Q369 219 382 193T396 136Z" />
<glyph unicode="t" glyph-name="t" horiz-adv-x="361" d="M200 453V102Q200 68 219 47T274 25Q287 25 297 28T325 39V3Q305 -5 292 -8T261 -11Q229 -11 198 -1T143 33Q124 53 118 78T111 153V453H39V489H111V578L200 600V489H336V453H200Z" />
<glyph unicode="u" glyph-name="u" horiz-adv-x="589" d="M405 0V92Q374 44 327 17T229 -11Q166 -11 130 30T94 144V372L92 417Q91 430 90 437T84 449T71 455T50 458L19 461H11V489H183V158Q183 125 186 107T198 76Q217 46 263 46Q284 46 302 52T349 76Q361 83
368 88T382 99T393 109L405 121V372L403 417Q402 430 401 437T395 449T382 455T361 458L330 461H322V489H494V117L497 72Q498 59 499 52T505 40T517 34T539 31L569 28H578V0H405Z" />
<glyph unicode="v" glyph-name="v" horiz-adv-x="503" d="M494 461Q478 459 469 450T449 418Q443 403 441 397T434 381T420 350T392 288T341 176T259 -6H231L73 369Q61 398 51 419T35 448Q25 461 8 461H0V489H212V461H179Q144 461 144 441Q144 436 147 430Q149
426 151 419T158 401Q162 391 163 387T167 377T176 356T194 313T228 234L282 108L395 368Q398 374 401 381T408 398Q416 420 419 428T422 442Q422 461 390 461H358V489H503V461H494Z" />
<glyph unicode="w" glyph-name="w" horiz-adv-x="733" d="M723 461Q706 461 696 450T678 413Q676 406 673 396T664 372L532 -6H507L359 366L216 -6H189L69 372Q58 404 51 422T37 449Q32 456 28 458T9 461H0V489H220V461H178Q141 461 141 441Q141 436 143 423T148
404Q151 393 152 385T156 372L233 128L375 486H402L546 119L634 372Q642 393 647 414T653 442Q653 453 644 457T607 461H573V489H733V461H723Z" />
<glyph unicode="x" glyph-name="x" horiz-adv-x="514" d="M293 0V28H321Q353 28 353 37Q353 45 349 51T339 64Q328 80 322 89T310 105L300 119Q295 126 286 137T264 167T227 214Q193 170 178 150T154 120L142 104Q138 98 127 84Q100 48 100 40Q100 28 133 28H161V0H2V28H9Q24
28 34 34T60 60Q74 77 82 86T98 103T112 119T131 142T162 178T211 237Q180 277 161 302T129 342T110 367T97 383T84 400T63 425Q55 434 50 441T40 452T27 459T7 461H-1V489H220V461H193Q163 461 163 448Q163 444 169 433T184 410T201 386T213 371L283 277L351 369Q354
374 361 384T376 405T388 428T394 448Q394 461 370 461H342V489H498V461H489Q471 461 460 453T434 426Q409 393 384 361Q363 334 341 305T301 254L407 116Q429 87 449 65T481 36Q486 33 493 31T508 28H515V0H293Z" />
<glyph unicode="y" glyph-name="y" horiz-adv-x="508" d="M500 461Q486 461 476 451T459 427T446 398T435 371L187 -178H75L235 0L81 370Q67 405 59 422T43 447Q31 461 9 461H0V489H223V461H185Q153 461 153 445Q153 440 156 430T163 408T172 386T178 371L288
108Q292 117 304 143T332 205T365 280T396 354T420 412T430 442Q430 452 423 456T397 461H363V489H508V461H500Z" />
<glyph unicode="z" glyph-name="z" horiz-adv-x="549" d="M61 0V28L367 455H165Q149 455 141 454T129 449T124 438T123 418V397Q123 387 121 376H74V489H474V461L168 33H340Q352 33 360 33T377 34T402 35Q425 36 432 42T439 68V113H486V0H61Z" />
<glyph unicode="{" glyph-name="braceleft" horiz-adv-x="317" d="M260 -133Q225 -133 196 -123T145 -94T112 -50T100 7Q100 35 109 82L117 126L121 149Q124 166 126 177T128 199Q128 236 107 255T46 275H22V303H46Q85 303 106 322T128 379Q128 389 126 400T121
429L117 452L109 495Q100 543 100 571Q100 601 112 627T145 671T195 700T260 711H272V683H260Q218 683 195 663T172 608Q172 600 172 593T175 579L181 558L187 526Q191 505 193 485T195 445Q195 410 186 380Q177 350 158 330Q146 316 134 308T96 289Q122 278 134
270T158 248Q195 207 195 132Q195 113 193 94T187 53L181 21L175 0Q173 -7 173 -14T172 -29Q172 -64 195 -84T260 -105H272V-133H260Z" />
<glyph unicode="|" glyph-name="bar" horiz-adv-x="222" d="M81 -133V711H142V-133H81Z" />
<glyph unicode="}" glyph-name="braceright" horiz-adv-x="317" d="M271 275Q189 275 189 199Q189 189 190 178T195 149L200 126L208 82Q217 35 217 7Q217 -24 205 -49T172 -93T122 -122T57 -133H44V-105H57Q99 -105 122 -85T145 -29Q145 -12 141 0L136 21L130
53Q122 98 122 133Q122 168 131 198Q140 228 159 248Q170 262 182 270T221 289Q195 300 183 308T159 330Q122 373 122 446Q122 465 124 484T130 526L136 558L141 579Q145 591 145 608Q145 643 122 663T57 683H44V711H57Q92 711 121 701T172 672T205 627T217 571Q217
543 208 495L200 452L195 429Q191 412 190 401T189 379Q189 303 271 303H294V275H271Z" />
<glyph unicode="~" glyph-name="asciitilde" horiz-adv-x="561" d="M525 331Q510 183 406 183Q393 183 382 184T359 190T330 201T292 220L237 249L202 267Q180 278 164 284T134 290Q107 290 91 268T64 197H36Q41 270 71 310T153 350H158Q172 350 184 347T208 338Q216
335 231 327T269 308L325 279L358 261Q373 253 392 248T426 243Q457 243 475 269Q483 281 487 293T497 331H525Z" />
<glyph unicode="&#xa0;" glyph-name="nbspace" horiz-adv-x="281" />
<glyph unicode="&#xa1;" glyph-name="exclamdown" horiz-adv-x="245" d="M78 400V489H167V400H78ZM78 -178V-44L108 311H136L167 -44V-178H78Z" />
<glyph unicode="&#xa2;" glyph-name="cent" horiz-adv-x="561" d="M453 106Q433 98 421 95T391 87Q371 82 357 81T317 77V0H289V79Q241 83 202 104T134 158T91 237T75 336Q75 386 89 432T130 510Q159 545 194 563T289 589V667H317V591Q341 589 354 587T391 580Q412
575 423 573T453 564V450H403L402 458Q400 469 400 476T401 489Q400 517 394 528T369 548Q358 553 348 555T317 559V123Q324 122 329 122H338Q361 122 388 128T453 149V106ZM289 560L275 556Q269 555 265 553Q242 545 221 522T190 470Q179 440 174 402T168 325Q168
263 188 214Q204 175 227 156T289 126V560Z" />
<glyph unicode="&#xa3;" glyph-name="sterling" horiz-adv-x="561" d="M114 0V67Q134 72 145 78T168 95Q188 115 197 140Q202 151 204 161T207 183Q208 190 208 205V333H131V361H208V461Q208 492 209 515T215 556T227 588T245 616Q267 645 302 661T375 678Q436
678 497 646V550H453L452 558L450 592Q447 650 379 650Q356 650 338 641T311 614Q307 606 304 598T300 579T298 552T297 513V361H403V333H297V264Q297 203 275 162Q265 144 246 123Q238 114 231 107T215 94T196 82T170 67H497V0H114Z" />
<glyph unicode="&#xa4;" glyph-name="currency" horiz-adv-x="561" d="M499 96L412 182Q380 156 349 145T281 134Q244 134 213 145T149 182L62 96L43 115L129 202Q103 236 92 266T81 333Q81 370 92 400T129 465L43 551L62 571L149 484Q181 510 212 521T281 533Q317
533 348 522T412 484L499 571L518 551L432 465Q459 431 470 401T482 333Q482 297 471 267T432 202L518 115L499 96ZM433 333Q433 365 421 393T389 441T340 474T281 486Q249 486 221 474T173 442T140 393T128 333Q128 301 140 274T172 226T221 193T281 181Q312 181
340 193T388 225T421 273T433 333Z" />
<glyph unicode="&#xa5;" glyph-name="yen" horiz-adv-x="561" d="M586 639L564 638Q547 637 540 632T519 608L468 532L333 328H472V300H333V206H472V178H333V117L336 72Q337 59 338 52T344 40T356 34T378 31L408 28H417V0H161V28H169L200 31Q213 32 221 33T233
39T239 51T242 72L244 117V178H106V206H244V300H106V328H244L110 533L65 600Q51 621 38 631Q31 636 16 638Q14 638 9 638T-5 639L-14 640V667H238V640H230L205 639Q187 638 180 635T173 623Q173 618 178 606T191 583L317 385L452 592Q463 609 466 615T469 627Q469
638 444 639L414 640H402V667H594V640L586 639Z" />
<glyph unicode="&#xa6;" glyph-name="brokenbar" horiz-adv-x="222" d="M81 377V711H142V377H81ZM81 -133V241H142V-133H81Z" />
<glyph unicode="&#xa7;" glyph-name="section" horiz-adv-x="561" d="M475 0Q475 -30 462 -56T422 -102T358 -133T271 -145Q244 -145 220 -143T171 -137T122 -127T68 -110L71 -11H117V-43Q118 -63 124 -72T157 -92Q213 -117 262 -117Q322 -117 359 -90T397 -11Q397
5 394 16T381 38T350 60T295 89L248 111Q218 125 196 136T159 155Q127 174 108 207T88 273Q88 341 168 403Q135 421 116 450T97 522Q97 556 110 585T150 635T214 669T302 682Q349 682 387 676T470 653L467 551H423V588Q423 605 417 613T396 629Q374 640 349 648T301
656Q275 656 252 648T212 626T185 591T175 546Q175 510 194 487T265 443L312 424Q394 390 433 350T473 256Q473 220 455 191T399 128Q434 105 454 74T475 0ZM404 227Q404 284 345 313L190 387Q178 364 171 347T164 310Q164 289 171 271T195 237T240 205T310 172L375
145Q389 164 396 184T404 227Z" />
<glyph unicode="&#xa8;" glyph-name="dieresis" horiz-adv-x="556" d="M144 578V667H233V578H144ZM323 578V667H412V578H323Z" />
<glyph unicode="&#xa9;" glyph-name="copyright" horiz-adv-x="789" d="M745 333Q745 261 718 197T643 86T531 11T395 -17Q322 -17 258 10T147 85T72 197T44 333Q44 405 71 469T146 580T258 655T394 683Q467 683 531 656T642 581T717 469T745 333ZM717 333Q717
391 692 452T624 558Q533 655 395 655Q256 655 165 558Q122 513 97 452T72 333Q72 274 97 214T165 107Q255 11 394 11Q534 11 624 107Q668 155 692 214T717 333ZM528 431L494 436L489 485Q468 495 450 499T412 503Q355 503 321 458T286 336Q286 299 296 269T325
216T370 182T427 169Q447 169 470 175T528 196V156Q493 144 466 139T410 133Q369 133 334 148T274 189T234 252T219 333Q219 377 233 413T272 476T332 516T411 531Q437 531 464 527T533 514L528 431Z" />
<glyph unicode="&#xaa;" glyph-name="ordfeminine" horiz-adv-x="394" d="M386 343Q360 332 345 327T315 322Q293 322 279 334T253 372Q227 348 197 335T134 322Q89 322 60 348T30 415Q30 436 40 458Q59 496 100 512T222 529H253V561Q253 611 235 633T174 655Q139
655 111 641Q101 636 98 630T94 612L92 581V571H53V653Q88 670 117 676T188 683Q230 683 256 676T302 652Q319 638 325 618T331 560V425Q331 390 337 379T360 367Q366 367 372 368T386 373V343ZM253 501H228Q173 501 141 480T108 425Q108 399 125 383T170 367Q211
367 253 407V501Z" />
<glyph unicode="&#xab;" glyph-name="guillemotleft" horiz-adv-x="489" d="M411 50L221 244L411 439L433 422L310 244L433 68L411 50ZM235 50L44 244L235 439L257 422L134 244L257 68L235 50Z" />
<glyph unicode="&#xac;" glyph-name="logicalnot" horiz-adv-x="561" d="M467 156V319H36V369H525V156H467Z" />
<glyph unicode="&#xad;" glyph-name="hyphen" horiz-adv-x="300" d="M44 242V308H256V242H44Z" />
<glyph unicode="&#xae;" glyph-name="registered" horiz-adv-x="561" d="M478 483Q478 442 462 406T419 342T356 299T278 283Q236 283 200 299T136 342T94 405T78 483Q78 525 93 561T136 625T199 667T278 683Q320 683 356 668T420 625T462 562T478 483ZM453 483Q453
519 439 551T401 606T346 644T278 658Q242 658 210 644T155 607T117 551T103 483Q103 447 117 416T154 360T210 322T278 308Q314 308 345 322T401 360T439 415T453 483ZM333 370L285 462H246V370H179V398H212L213 572H180V600H261Q294 600 310 598T340 587Q353
580 361 566T369 537Q369 497 320 470L355 397H374V370H333ZM335 533Q335 553 320 562T272 572H246V490H268Q305 490 320 500T335 533Z" />
<glyph unicode="&#xaf;" glyph-name="macron" horiz-adv-x="556" d="M150 578V633H406V578H150Z" />
<glyph unicode="&#xb0;" glyph-name="degree" horiz-adv-x="239" d="M232 583Q232 562 224 544T203 513T171 491T132 483Q90 483 61 512T32 583Q32 604 39 622T60 653T92 675T132 683Q153 683 171 675T202 654T224 622T232 583ZM199 583Q199 610 179 630T132 650Q105
650 86 630T66 583Q66 556 85 537T132 517Q159 517 179 536T199 583Z" />
<glyph unicode="&#xb1;" glyph-name="plusminus" horiz-adv-x="561" d="M305 308V133H256V308H36V358H256V533H305V358H525V308H305ZM36 0V50H525V0H36Z" />
<glyph unicode="&#xb2;" glyph-name="twosuperior" horiz-adv-x="337" d="M291 559Q291 527 278 505T244 464T200 430T154 397T116 360T96 311H290V249H36V283Q36 304 48 326T77 368T114 405T147 436Q175 463 197 491T219 561Q219 593 204 618T153 644Q140 644
120 638T91 620Q86 613 86 600T87 577V563H45V649Q72 659 101 666T160 674Q185 674 209 667T251 645T280 609T291 559Z" />
<glyph unicode="&#xb3;" glyph-name="threesuperior" horiz-adv-x="337" d="M290 367Q290 304 250 272T149 239Q94 239 42 254V338H85V306Q87 298 87 295T96 286Q107 279 121 275T148 271Q167 271 180 279T202 301T215 331T219 365Q219 412 191 433T119 455H79V485Q104
485 128 486T170 495T200 520T211 570Q211 602 196 623T146 644Q135 644 123 641T100 633Q94 630 93 628T91 619Q90 614 90 608T89 597Q88 591 88 584H45V658Q98 674 151 674Q175 674 197 669T238 652T267 621T278 575Q278 539 260 514T210 474Q290 449 290 367Z"
/>
<glyph unicode="&#xb4;" glyph-name="acute" horiz-adv-x="556" d="M232 578H190L287 711H390L232 578Z" />
<glyph unicode="&#xb5;" glyph-name="mu" horiz-adv-x="578" d="M394 0V92Q385 77 378 66T364 47T350 33T332 19Q311 5 284 -3T231 -12Q196 -12 172 3V-133H83V372L81 417Q80 430 79 437T73 449T60 455T39 458L8 461H0V489H172V158Q172 125 175 107T187 76Q206
46 252 46Q287 46 326 66T394 121V372L392 417Q391 430 390 437T384 449T371 455T350 458L319 461H311V489H483V117L486 72Q487 59 488 52T494 40T506 34T528 31L558 28H567V0H394Z" />
<glyph unicode="&#xb6;" glyph-name="paragraph" horiz-adv-x="561" d="M394 -133V622H283V-133H250V333Q149 338 94 387T39 521Q39 670 193 670H209Q217 670 226 669L273 667H428V-133H394Z" />
<glyph unicode="&#xb7;" glyph-name="periodcentered" horiz-adv-x="561" d="M233 219V314H328V219H233Z" />
<glyph unicode="&#xb8;" glyph-name="cedilla" horiz-adv-x="556" d="M363 -116Q363 -142 340 -160T281 -178Q269 -178 254 -176T224 -170L223 -141Q234 -143 240 -144T253 -145Q273 -145 285 -135T298 -108Q298 -73 243 -64L282 0H316L286 -49Q323 -56 343 -73T363
-116Z" />
<glyph unicode="&#xb9;" glyph-name="onesuperior" horiz-adv-x="860" d="M57 249V281H92Q106 282 114 282T126 287T132 300T134 326V575Q134 595 132 603T109 611Q103 611 97 610T84 608L57 602V634L203 670V327Q203 312 206 299T233 283Q240 282 248 282H279V249H57Z" />
<glyph unicode="&#xba;" glyph-name="ordmasculine" horiz-adv-x="394" d="M364 503Q364 420 319 371T197 322Q121 322 76 371T31 503Q31 586 75 634T197 683Q274 683 319 635T364 503ZM281 501Q281 571 258 613T197 655Q159 655 137 613T114 501Q114 431 136
391T197 350Q235 350 258 390T281 501Z" />
<glyph unicode="&#xbb;" glyph-name="guillemotright" horiz-adv-x="489" d="M254 50L232 67L355 244L232 421L254 439L444 244L254 50ZM78 50L56 67L179 244L56 421L78 439L268 244L78 50Z" />
<glyph unicode="&#xbc;" glyph-name="onequarter" horiz-adv-x="860" d="M714 113V54Q714 46 716 42T724 36T742 34Q750 33 753 33T764 33V0H596V33Q599 33 607 33T618 34Q630 35 637 35T647 39T651 52T652 78V113H469V149L673 421H714V168H768V113H714ZM198 -17H136L635
683H697L198 -17ZM57 249V281H92Q106 282 114 282T126 287T132 300T134 326V575Q134 595 132 603T109 611Q103 611 97 610T84 608L57 602V634L203 670V327Q203 312 206 299T233 283Q240 282 248 282H279V249H57ZM652 342L522 168H652V342Z" />
<glyph unicode="&#xbd;" glyph-name="onehalf" horiz-adv-x="860" d="M792 308Q792 276 779 254T745 214T701 180T655 147T617 110T597 62H791V0H537V34Q537 55 549 76T578 118T615 155T648 186Q676 212 698 240T720 310Q720 342 705 367T654 393Q641 393 621
387T592 369Q587 362 587 349T588 326V312H546V398Q573 408 602 415T661 423Q686 423 710 416T752 394T781 358T792 308ZM188 -17H126L625 683H687L188 -17ZM57 249V281H92Q106 282 114 282T126 287T132 300T134 326V575Q134 595 132 603T109 611Q103 611 97 610T84
608L57 602V634L203 670V327Q203 312 206 299T233 283Q240 282 248 282H279V249H57Z" />
<glyph unicode="&#xbe;" glyph-name="threequarters" horiz-adv-x="860" d="M714 113V54Q714 46 716 42T724 36T742 34Q750 33 753 33T764 33V0H596V33Q599 33 607 33T618 34Q630 35 637 35T647 39T651 52T652 78V113H469V149L673 421H714V168H768V113H714ZM310
367Q310 304 270 272T169 239Q114 239 62 254V338H105Q105 326 106 316Q107 307 109 299T116 286Q125 277 140 274T168 271Q187 271 200 279T222 301T235 331T239 365Q239 412 211 433T139 455H99V485Q124 485 148 486T190 495T220 520T231 570Q231 601 216 622T166
644Q156 644 142 641T119 633Q113 630 112 628T110 619Q109 614 109 608T108 597V584H65V658Q118 674 171 674Q194 674 217 669T258 652T287 621T298 575Q298 540 280 515T230 474Q268 462 289 435T310 367ZM218 -17H156L655 683H717L218 -17ZM652 342L522 168H652V342Z"
/>
<glyph unicode="&#xbf;" glyph-name="questiondown" horiz-adv-x="443" d="M215 400V489H304V400H215ZM403 -163Q357 -181 320 -187T240 -194Q195 -194 159 -183T97 -153T57 -107T43 -46Q43 -6 62 25T132 95Q157 114 166 123L183 138Q200 153 207 180T215 250V312H304V304Q304
256 290 221Q282 200 272 184T240 148L222 131Q180 92 159 47T138 -43Q138 -100 170 -133T257 -166Q299 -166 332 -144Q346 -134 350 -125T356 -98L358 -50L359 -40H403V-163Z" />
<glyph unicode="&#xc0;" glyph-name="Agrave" horiz-adv-x="686" d="M439 0V28H475Q510 28 510 46Q510 62 504 82T491 117L454 206H168L122 92Q119 84 114 71T109 46Q109 35 121 32T166 28H173V0H0V28H10L31 29Q45 30 54 38T73 69Q77 80 79 84T83 94T90 111T105
145T131 207T173 308T238 461T328 675H359Q411 550 448 460T512 307T555 205T581 142T596 109T603 92T608 82T616 67Q622 54 626 47T637 35T652 30T676 28H686V0H439ZM311 545L183 242H438L311 545ZM349 723L190 856H293L390 723H349Z" />
<glyph unicode="&#xc1;" glyph-name="Aacute" horiz-adv-x="686" d="M439 0V28H475Q510 28 510 46Q510 62 504 82T491 117L454 206H168L122 92Q119 84 114 71T109 46Q109 35 121 32T166 28H173V0H0V28H10L31 29Q45 30 54 38T73 69Q77 80 79 84T83 94T90 111T105
145T131 207T173 308T238 461T328 675H359Q411 550 448 460T512 307T555 205T581 142T596 109T603 92T608 82T616 67Q622 54 626 47T637 35T652 30T676 28H686V0H439ZM311 545L183 242H438L311 545ZM328 723H286L383 856H486L328 723Z" />
<glyph unicode="&#xc2;" glyph-name="Acircumflex" horiz-adv-x="686" d="M439 0V28H475Q510 28 510 46Q510 62 504 82T491 117L454 206H168L122 92Q119 84 114 71T109 46Q109 35 121 32T166 28H173V0H0V28H10L31 29Q45 30 54 38T73 69Q77 80 79 84T83 94T90 111T105
145T131 207T173 308T238 461T328 675H359Q411 550 448 460T512 307T555 205T581 142T596 109T603 92T608 82T616 67Q622 54 626 47T637 35T652 30T676 28H686V0H439ZM311 545L183 242H438L311 545ZM454 723L343 812L232 723H193L293 857H393L493 723H454Z" />
<glyph unicode="&#xc3;" glyph-name="Atilde" horiz-adv-x="686" d="M439 0V28H475Q510 28 510 46Q510 62 504 82T491 117L454 206H168L122 92Q119 84 114 71T109 46Q109 35 121 32T166 28H173V0H0V28H10L31 29Q45 30 54 38T73 69Q77 80 79 84T83 94T90 111T105
145T131 207T173 308T238 461T328 675H359Q411 550 448 460T512 307T555 205T581 142T596 109T603 92T608 82T616 67Q622 54 626 47T637 35T652 30T676 28H686V0H439ZM311 545L183 242H438L311 545ZM494 828Q486 777 459 750T392 723Q378 723 368 726T340 740L324
750Q310 759 300 762T276 765Q235 765 223 723H195Q204 774 230 801T298 828Q312 828 322 825T350 811L366 802Q381 794 390 790T414 786Q458 786 466 828H494Z" />
<glyph unicode="&#xc4;" glyph-name="Adieresis" horiz-adv-x="686" d="M439 0V28H475Q510 28 510 46Q510 62 504 82T491 117L454 206H168L122 92Q119 84 114 71T109 46Q109 35 121 32T166 28H173V0H0V28H10L31 29Q45 30 54 38T73 69Q77 80 79 84T83 94T90 111T105
145T131 207T173 308T238 461T328 675H359Q411 550 448 460T512 307T555 205T581 142T596 109T603 92T608 82T616 67Q622 54 626 47T637 35T652 30T676 28H686V0H439ZM311 545L183 242H438L311 545ZM209 738V827H298V738H209ZM388 738V827H477V738H388Z" />
<glyph unicode="&#xc5;" glyph-name="Aring" horiz-adv-x="686" d="M439 0V28H475Q510 28 510 46Q510 62 504 82T491 117L454 206H168L122 92Q119 84 114 71T109 46Q109 35 121 32T166 28H173V0H0V28H10L31 29Q45 30 54 38T73 69Q77 80 79 84T83 94T90 111T105
145T131 207T173 308T238 461T328 675H359Q411 550 448 460T512 307T555 205T581 142T596 109T603 92T608 82T616 67Q622 54 626 47T637 35T652 30T676 28H686V0H439ZM311 545L183 242H438L311 545ZM437 780Q437 740 410 715T344 690Q305 690 278 715T251 780Q251
818 278 843T344 869Q363 869 380 863T409 844T429 816T437 780ZM397 779Q397 802 382 817T344 833Q321 833 306 818T290 779Q290 757 305 742T344 726Q366 726 381 741T397 779Z" />
<glyph unicode="&#xc6;" glyph-name="AE" horiz-adv-x="847" d="M343 0V28H351L382 31Q395 32 403 33T415 39T420 51T423 72L426 117V206H184L129 116Q124 108 119 100T108 81Q94 57 93 54Q89 47 89 41Q89 30 119 30H122Q124 31 130 30T150 29H160V1H-1V29H10Q27
29 36 36T60 68L90 116L424 667H798V551H748V559L745 597Q743 621 739 625T712 631L666 632H521V364H648L677 365Q698 365 703 370Q706 373 708 390L709 411V419H751V272H709V281Q709 301 707 309T702 320Q699 323 683 325T648 328H521V117Q521 95 524 75T532 50Q542
39 597 39H668L732 42Q755 43 762 49T771 73L773 106V114H822L824 0H343ZM426 602L207 242H426V602Z" />
<glyph unicode="&#xc7;" glyph-name="Ccedilla" horiz-adv-x="641" d="M588 36Q572 26 560 19T536 7T510 -1T478 -9Q464 -12 452 -14T428 -17T400 -18T365 -19L347 -49Q372 -54 383 -57T407 -67Q423 -75 432 -89T442 -118Q442 -145 416 -161T346 -178Q330 -178
310 -176T271 -168V-138H280L297 -141Q302 -143 308 -143H323Q349 -143 363 -135T377 -113Q377 -96 359 -86T301 -67L333 -17Q296 -13 269 -7T220 9T179 34T137 73Q47 166 47 329Q47 500 131 591T371 683Q394 683 414 682T456 676T503 667T560 654L577 650V522H521V531Q520
536 520 542V558Q520 582 515 593T496 615Q472 632 438 642T368 653Q317 653 276 631T206 567T161 467T145 336Q145 263 163 206T215 110T300 49T413 28Q458 28 497 39T588 79V36Z" />
<glyph unicode="&#xc8;" glyph-name="Egrave" horiz-adv-x="522" d="M19 0V28H28L58 31Q71 32 79 34T91 40T97 51T100 72L103 117V551L100 595Q99 608 98 616T92 628T79 634T58 637L28 639L19 640V667H475V551H425Q425 555 425 556T424 560T424 572T422 597Q421
620 417 625Q412 631 389 631Q375 631 368 631T353 632H196V364H322Q356 364 367 368T379 390V398Q379 403 380 411V419H417V272H380V281Q380 301 378 309T373 320Q370 323 361 325T319 328H196V117Q196 96 199 76T207 50Q217 39 273 39H345L408 42Q431 43 439
49T448 73Q448 91 448 101T449 116Q449 121 450 122H500V0H19ZM275 723L116 856H219L316 723H275Z" />
<glyph unicode="&#xc9;" glyph-name="Eacute" horiz-adv-x="522" d="M19 0V28H28L58 31Q71 32 79 34T91 40T97 51T100 72L103 117V551L100 595Q99 608 98 616T92 628T79 634T58 637L28 639L19 640V667H475V551H425Q425 555 425 556T424 560T424 572T422 597Q421
620 417 625Q412 631 389 631Q375 631 368 631T353 632H196V364H322Q356 364 367 368T379 390V398Q379 403 380 411V419H417V272H380V281Q380 301 378 309T373 320Q370 323 361 325T319 328H196V117Q196 96 199 76T207 50Q217 39 273 39H345L408 42Q431 43 439
49T448 73Q448 91 448 101T449 116Q449 121 450 122H500V0H19ZM255 723H213L310 856H413L255 723Z" />
<glyph unicode="&#xca;" glyph-name="Ecircumflex" horiz-adv-x="522" d="M19 0V28H28L58 31Q71 32 79 34T91 40T97 51T100 72L103 117V551L100 595Q99 608 98 616T92 628T79 634T58 637L28 639L19 640V667H475V551H425Q425 555 425 556T424 560T424 572T422 597Q421
620 417 625Q412 631 389 631Q375 631 368 631T353 632H196V364H322Q356 364 367 368T379 390V398Q379 403 380 411V419H417V272H380V281Q380 301 378 309T373 320Q370 323 361 325T319 328H196V117Q196 96 199 76T207 50Q217 39 273 39H345L408 42Q431 43 439
49T448 73Q448 91 448 101T449 116Q449 121 450 122H500V0H19ZM380 723L269 812L158 723H119L219 857H319L419 723H380Z" />
<glyph unicode="&#xcb;" glyph-name="Edieresis" horiz-adv-x="522" d="M19 0V28H28L58 31Q71 32 79 34T91 40T97 51T100 72L103 117V550L100 594Q99 607 98 615T92 627T79 632T58 636L28 639H19V667H475V551H425Q425 555 425 556T424 560T424 572T422 597Q421
620 417 625Q412 631 389 631Q375 631 368 631T353 632H196V364H322Q356 364 367 368T379 390V398Q379 403 380 411V419H417V272H380V281Q380 301 378 309T373 320Q370 323 361 325T319 328H196V117Q196 96 199 76T207 50Q217 39 273 39H345L408 42Q431 43 439
49T448 73Q448 91 448 101T449 116Q449 121 450 122H500V0H19ZM306 738V827H395V738H306ZM127 738V827H216V738H127Z" />
<glyph unicode="&#xcc;" glyph-name="Igrave" horiz-adv-x="300" d="M166 723L7 856H110L207 723H166ZM19 0V28H28L58 31Q71 32 79 34T91 40T97 51T100 72L103 117V551L100 595Q99 608 98 616T92 628T79 634T58 637L28 639L19 640V667H280V640L271 639L241 637Q227
636 220 635T208 629T202 616T199 595L196 551V117L199 72Q200 59 201 52T207 40T219 34T241 31L271 28H280V0H19Z" />
<glyph unicode="&#xcd;" glyph-name="Iacute" horiz-adv-x="300" d="M145 723H103L200 856H303L145 723ZM19 0V28H28L58 31Q71 32 79 34T91 40T97 51T100 72L103 117V551L100 595Q99 608 98 616T92 628T79 634T58 637L28 639L19 640V667H280V640L271 639L241 637Q227
636 220 635T208 629T202 616T199 595L196 551V117L199 72Q200 59 201 52T207 40T219 34T241 31L271 28H280V0H19Z" />
<glyph unicode="&#xce;" glyph-name="Icircumflex" horiz-adv-x="300" d="M261 723L150 812L39 723H0L100 857H200L300 723H261ZM19 0V28H28L58 31Q71 32 79 34T91 40T97 51T100 72L103 117V551L100 595Q99 608 98 616T92 628T79 634T58 637L28 639L19 640V667H280V640L271
639L241 637Q227 636 220 635T208 629T202 616T199 595L196 551V117L199 72Q200 59 201 52T207 40T219 34T241 31L271 28H280V0H19Z" />
<glyph unicode="&#xcf;" glyph-name="Idieresis" horiz-adv-x="300" d="M19 0V28H28L58 31Q71 32 79 34T91 40T97 51T100 72L103 117V550L100 594Q99 607 98 615T92 627T79 632T58 636L28 639H19V667H281V639H272L242 636Q228 634 221 633T209 627T203 615T200
594L196 550V117L199 72Q200 59 201 52T207 40T219 34T242 31L272 28H281V0H19ZM16 738V827H105V738H16ZM194 738V827H284V738H194Z" />
<glyph unicode="&#xd0;" glyph-name="Eth" horiz-adv-x="708" d="M659 348Q659 267 637 203T573 93T472 24T338 0H19V28H28L58 31Q71 32 79 34T91 40T97 51T100 72L103 117V327H24V366H103V551L100 595Q99 608 98 616T92 628T79 634T58 637L28 639L19 640V667H232Q236
667 251 667T283 668T315 668T334 669Q361 669 384 668T430 661Q484 652 526 626T598 559T643 465T659 348ZM559 337Q559 416 543 473T491 566T400 620T267 637H196V366H396V327H196V117L198 82Q199 58 204 52Q210 43 239 37T303 30Q359 30 407 48T487 99Q559 172
559 337Z" />
<glyph unicode="&#xd1;" glyph-name="Ntilde" horiz-adv-x="693" d="M674 639Q670 639 669 639T664 638T654 637L635 636Q621 635 614 634T602 628T596 615T593 594L590 550V-9H559L145 550V117L148 72Q149 59 150 52T156 40T168 34T190 31L220 28H229V0H20V28H28L59
31Q72 32 80 33T92 39T97 51T100 72L103 117V550L100 594Q99 607 98 615T92 627T79 633T58 636Q44 637 38 637T29 638T25 638T19 639V667H169L549 149V550L546 594Q545 607 544 615T538 627T526 633T505 636Q491 637 485 637T475 638T471 638T466 639V667H674V639ZM498
828Q490 777 463 750T396 723Q382 723 372 726T344 740L328 750Q314 759 304 762T280 765Q239 765 227 723H199Q208 774 234 801T302 828Q316 828 326 825T354 811L370 802Q385 794 394 790T418 786Q462 786 470 828H498Z" />
<glyph unicode="&#xd2;" glyph-name="Ograve" horiz-adv-x="717" d="M405 723L246 856H349L446 723H405ZM669 333Q669 252 648 187T586 77T488 8T358 -17Q286 -17 229 7T131 77T69 187T47 333Q47 414 68 479T130 589T228 659T358 683Q430 683 488 659T586 590T647
479T669 333ZM569 333Q569 408 555 467T513 568T447 631T358 653Q308 653 269 632T203 569T162 468T147 333Q147 257 161 198T203 98T269 35T358 13Q408 13 447 34T513 97T554 198T569 333Z" />
<glyph unicode="&#xd3;" glyph-name="Oacute" horiz-adv-x="717" d="M357 723H315L412 856H515L357 723ZM669 333Q669 252 648 187T586 77T488 8T358 -17Q286 -17 229 7T131 77T69 187T47 333Q47 414 68 479T130 589T228 659T358 683Q430 683 488 659T586 590T647
479T669 333ZM569 333Q569 408 555 467T513 568T447 631T358 653Q308 653 269 632T203 569T162 468T147 333Q147 257 161 198T203 98T269 35T358 13Q408 13 447 34T513 97T554 198T569 333Z" />
<glyph unicode="&#xd4;" glyph-name="Ocircumflex" horiz-adv-x="717" d="M470 723L359 812L248 723H209L309 857H409L509 723H470ZM669 333Q669 252 648 187T586 77T488 8T358 -17Q286 -17 229 7T131 77T69 187T47 333Q47 414 68 479T130 589T228 659T358 683Q430
683 488 659T586 590T647 479T669 333ZM569 333Q569 408 555 467T513 568T447 631T358 653Q308 653 269 632T203 569T162 468T147 333Q147 257 161 198T203 98T269 35T358 13Q408 13 447 34T513 97T554 198T569 333Z" />
<glyph unicode="&#xd5;" glyph-name="Otilde" horiz-adv-x="717" d="M519 828Q511 777 484 750T417 723Q403 723 393 726T365 740L349 750Q335 759 325 762T301 765Q260 765 248 723H220Q229 774 255 801T323 828Q337 828 347 825T375 811L391 802Q406 794 415
790T439 786Q483 786 491 828H519ZM669 333Q669 252 648 187T586 77T488 8T358 -17Q286 -17 229 7T131 77T69 187T47 333Q47 414 68 479T130 589T228 659T358 683Q430 683 488 659T586 590T647 479T669 333ZM569 333Q569 408 555 467T513 568T447 631T358 653Q308
653 269 632T203 569T162 468T147 333Q147 257 161 198T203 98T269 35T358 13Q408 13 447 34T513 97T554 198T569 333Z" />
<glyph unicode="&#xd6;" glyph-name="Odieresis" horiz-adv-x="717" d="M669 333Q669 252 648 187T586 77T488 8T358 -17Q286 -17 229 7T131 77T69 187T47 333Q47 414 68 479T130 589T228 659T358 683Q430 683 488 659T586 590T647 479T669 333ZM569 333Q569 408
555 467T513 568T447 631T358 653Q308 653 269 632T203 569T162 468T147 333Q147 257 161 198T203 98T269 35T358 13Q408 13 447 34T513 97T554 198T569 333ZM224 738V827H313V738H224ZM403 738V827H492V738H403Z" />
<glyph unicode="&#xd7;" glyph-name="multiply" horiz-adv-x="561" d="M450 62L280 232L111 62L75 98L245 267L76 436L111 471L280 302L449 472L485 436L315 266L485 97L450 62Z" />
<glyph unicode="&#xd8;" glyph-name="Oslash" horiz-adv-x="717" d="M669 328Q669 249 647 185T584 76T485 7T355 -17Q287 -17 230 8Q207 18 192 26T154 55L92 -17H47L129 80Q104 108 93 127T73 172Q61 207 54 251T47 340Q47 418 69 481T131 589T229 658T356 683Q394
683 432 675T501 653Q510 648 517 644T532 635T548 623T568 607L629 683H669L592 583Q605 567 614 554T629 529T640 505T650 478Q659 446 664 407T669 328ZM524 553Q496 602 454 627T358 653Q309 653 270 631T204 568T162 469T147 337Q147 308 150 276T158 216Q163
193 167 179T181 142L524 553ZM569 332Q569 357 568 383T561 437Q557 463 554 478T541 520L198 108Q224 62 265 38T357 13Q407 13 446 34T513 97T554 197T569 332Z" />
<glyph unicode="&#xd9;" glyph-name="Ugrave" horiz-adv-x="663" d="M654 639Q650 639 649 639T645 638H635Q629 638 615 637Q602 636 594 635T582 629T577 616T574 594L571 550V271Q571 227 570 197T564 146T552 107T531 70Q475 -17 335 -17Q218 -17 151 49Q119
80 105 127T91 249V550L88 594Q87 607 86 615T80 628T67 634T46 637Q32 638 26 638H17Q14 638 13 638T7 639V667H269V639Q265 639 264 639T260 638H250Q244 638 230 637Q216 636 209 635T197 629T191 616T188 594L186 550V265Q186 242 185 218T185 171T192 126T210
82Q227 50 264 32T348 13Q394 13 431 29T491 75Q502 88 508 101T518 132T523 176T524 245V550L521 594Q520 607 519 615T513 628T501 634T480 637Q466 638 459 638H450Q447 638 446 638T441 639V667H654V639ZM347 723L188 856H291L388 723H347Z" />
<glyph unicode="&#xda;" glyph-name="Uacute" horiz-adv-x="663" d="M654 639Q650 639 649 639T645 638H635Q629 638 615 637Q602 636 594 635T582 629T577 616T574 594L571 550V271Q571 227 570 197T564 146T552 107T531 70Q475 -17 335 -17Q218 -17 151 49Q119
80 105 127T91 249V550L88 594Q87 607 86 615T80 628T67 634T46 637Q32 638 26 638H17Q14 638 13 638T7 639V667H269V639Q265 639 264 639T260 638H250Q244 638 230 637Q216 636 209 635T197 629T191 616T188 594L186 550V265Q186 242 185 218T185 171T192 126T210
82Q227 50 264 32T348 13Q394 13 431 29T491 75Q502 88 508 101T518 132T523 176T524 245V550L521 594Q520 607 519 615T513 628T501 634T480 637Q466 638 459 638H450Q447 638 446 638T441 639V667H654V639ZM337 723H295L392 856H495L337 723Z" />
<glyph unicode="&#xdb;" glyph-name="Ucircumflex" horiz-adv-x="663" d="M654 639Q650 639 649 639T645 638H635Q629 638 615 637Q602 636 594 635T582 629T577 616T574 594L571 550V271Q571 227 570 197T564 146T552 107T531 70Q475 -17 335 -17Q218 -17 151
49Q119 80 105 127T91 249V550L88 594Q87 607 86 615T80 628T67 634T46 637Q32 638 26 638H17Q14 638 13 638T7 639V667H269V639Q265 639 264 639T260 638H250Q244 638 230 637Q216 636 209 635T197 629T191 616T188 594L186 550V265Q186 242 185 218T185 171T192
126T210 82Q227 50 264 32T348 13Q394 13 431 29T491 75Q502 88 508 101T518 132T523 176T524 245V550L521 594Q520 607 519 615T513 628T501 634T480 637Q466 638 459 638H450Q447 638 446 638T441 639V667H654V639ZM464 723L353 812L242 723H203L303 857H403L503
723H464Z" />
<glyph unicode="&#xdc;" glyph-name="Udieresis" horiz-adv-x="663" d="M654 639Q650 639 649 639T645 638H635Q629 638 615 637Q602 636 594 635T582 629T577 616T574 594L571 550V271Q571 227 570 197T564 146T552 107T531 70Q475 -17 335 -17Q218 -17 151 49Q119
80 105 127T91 249V550L88 594Q87 607 86 615T80 628T67 634T46 637Q32 638 26 638H17Q14 638 13 638T7 639V667H269V639Q265 639 264 639T260 638H250Q244 638 230 637Q216 636 209 635T197 629T191 616T188 594L186 550V265Q186 242 185 218T185 171T192 126T210
82Q227 50 264 32T348 13Q394 13 431 29T491 75Q502 88 508 101T518 132T523 176T524 245V550L521 594Q520 607 519 615T513 628T501 634T480 637Q466 638 459 638H450Q447 638 446 638T441 639V667H654V639ZM386 738V827H475V738H386ZM207 738V827H296V738H207Z"
/>
<glyph unicode="&#xdd;" glyph-name="Yacute" horiz-adv-x="625" d="M625 639Q621 639 620 639T616 638T608 638T592 637Q583 637 578 636T568 632T561 624T552 611L511 547L356 295V117L358 72Q359 46 366 40T400 31L431 28H439V0H178V28H186L217 31Q230 32 238
33T250 39T255 51T258 72L261 117V295Q227 351 201 394T155 469L100 562Q79 597 74 604Q67 615 63 621T55 631T47 636T35 637Q23 637 18 637T10 638T6 638T0 639V667H258V639H248Q245 639 239 639T218 638Q185 636 185 623Q185 618 190 607T202 582T215 559T222
547L346 337L476 547Q493 575 504 596T515 625Q515 632 507 634T478 638Q467 638 462 638T453 639H444V667H625V639ZM326 723H284L381 856H484L326 723Z" />
<glyph unicode="&#xde;" glyph-name="Thorn" horiz-adv-x="528" d="M509 386Q509 343 493 300T443 228Q418 207 388 196T326 179T260 172T196 171V117Q196 106 196 95T198 72Q199 58 200 51T206 39T219 34T240 31Q253 29 265 28T290 28V0H19V28H25Q33 27 41 28T58
31Q71 32 79 33T91 39T97 50T100 72Q101 83 102 94T103 117V550Q103 561 102 572L100 594Q98 621 92 627T58 636Q48 637 39 637T19 639V667L194 666V560H217Q241 560 265 561T313 562Q357 562 392 552T454 520T494 465T509 386ZM409 385Q409 465 374 497T260 529H196V201H229Q319
201 364 249T409 385Z" />
<glyph unicode="&#xdf;" glyph-name="germandbls" horiz-adv-x="567" d="M533 131Q533 101 522 75T490 30T442 0T381 -11Q358 -11 333 -8T281 2V103H325L326 94L327 63Q328 38 341 28T380 17Q417 17 439 39T461 100Q461 120 455 137Q448 153 440 164T408 196L322
271Q261 325 261 379Q261 398 269 415T297 458L309 473Q345 518 345 581Q345 634 324 664T267 694Q249 694 233 686T207 663Q201 654 198 645T192 623T190 592T189 548V117L191 72Q193 43 198 38Q201 35 212 32T236 28H244V0H17V28H25L56 31Q69 32 77 33T89 39T94
51T97 72L100 117V501Q100 540 101 566T107 611T119 645T139 674Q179 722 267 722Q339 722 383 689T428 602Q428 581 419 563Q415 555 412 550T403 538T389 522T368 499L351 481Q346 476 342 472T335 464Q317 443 317 419Q317 405 322 393Q327 385 339 372T369
345L449 277Q462 266 473 256T492 236Q511 215 522 187T533 131Z" />
<glyph unicode="&#xe0;" glyph-name="agrave" horiz-adv-x="501" d="M487 0Q467 -7 456 -9T430 -11Q395 -11 376 7T347 67Q340 61 334 55L324 45Q264 -11 190 -11Q159 -11 133 -1T87 28T56 72T45 127Q45 164 62 195T111 248Q128 260 146 267T188 280T240 287T308
289H326V350Q326 464 239 464Q204 464 174 446Q165 440 160 435T152 423T146 404T142 377L141 368H81V458Q132 480 171 490T253 500Q331 500 377 460Q399 440 407 418T415 353V135Q415 76 425 53T460 29Q466 29 470 30T485 33L487 0ZM326 261H306Q226 261 182 229T138
140Q138 97 165 69T235 41Q257 41 277 49T326 77V261ZM268 578L108 711H212L309 578H268Z" />
<glyph unicode="&#xe1;" glyph-name="aacute" horiz-adv-x="501" d="M487 0Q467 -7 456 -9T430 -11Q395 -11 376 7T347 67Q340 61 334 55L324 45Q264 -11 190 -11Q159 -11 133 -1T87 28T56 72T45 127Q45 164 62 195T111 248Q128 260 146 267T188 280T240 287T308
289H326V350Q326 464 239 464Q204 464 174 446Q165 440 160 435T152 423T146 404T142 377L141 368H81V458Q132 480 171 490T253 500Q331 500 377 460Q399 440 407 418T415 353V135Q415 76 425 53T460 29Q466 29 470 30T485 33L487 0ZM326 261H306Q226 261 182 229T138
140Q138 97 165 69T235 41Q257 41 277 49T326 77V261ZM238 578H196L293 711H396L238 578Z" />
<glyph unicode="&#xe2;" glyph-name="acircumflex" horiz-adv-x="501" d="M487 0Q467 -7 456 -9T430 -11Q395 -11 376 7T347 67Q340 61 334 55L324 45Q264 -11 190 -11Q159 -11 133 -1T87 28T56 72T45 127Q45 164 62 195T111 248Q128 260 146 267T188 280T240
287T308 289H326V350Q326 464 239 464Q204 464 174 446Q165 440 160 435T152 423T146 404T142 377L141 368H81V458Q132 480 171 490T253 500Q331 500 377 460Q399 440 407 418T415 353V135Q415 76 425 53T460 29Q466 29 470 30T485 33L487 0ZM326 261H306Q226 261
182 229T138 140Q138 97 165 69T235 41Q257 41 277 49T326 77V261ZM365 578L254 667L142 578H103L204 711H304L404 578H365Z" />
<glyph unicode="&#xe3;" glyph-name="atilde" horiz-adv-x="501" d="M487 0Q467 -7 456 -9T430 -11Q395 -11 376 7T347 67Q340 61 334 55L324 45Q264 -11 190 -11Q159 -11 133 -1T87 28T56 72T45 127Q45 164 62 195T111 248Q128 260 146 267T188 280T240 287T308
289H326V350Q326 464 239 464Q204 464 174 446Q165 440 160 435T152 423T146 404T142 377L141 368H81V458Q132 480 171 490T253 500Q331 500 377 460Q399 440 407 418T415 353V135Q415 76 425 53T460 29Q466 29 470 30T485 33L487 0ZM326 261H306Q226 261 182 229T138
140Q138 97 165 69T235 41Q257 41 277 49T326 77V261ZM413 683Q405 632 378 605T311 578Q297 578 287 581T259 595L243 605Q229 614 219 617T195 620Q154 620 142 578H114Q123 629 149 656T217 683Q231 683 241 680T269 666L285 657Q300 649 309 645T333 641Q377
641 385 683H413Z" />
<glyph unicode="&#xe4;" glyph-name="adieresis" horiz-adv-x="501" d="M487 0Q467 -7 456 -9T430 -11Q395 -11 376 7T347 67Q340 61 334 55L324 45Q264 -11 190 -11Q159 -11 133 -1T87 28T56 72T45 127Q45 164 62 195T111 248Q128 260 146 267T188 280T240 287T308
289H326V350Q326 464 239 464Q204 464 174 446Q165 440 160 435T152 423T146 404T142 377L141 368H81V458Q132 480 171 490T253 500Q331 500 377 460Q399 440 407 418T415 353V135Q415 76 425 53T460 29Q466 29 470 30T485 33L487 0ZM326 261H306Q226 261 182 229T138
140Q138 97 165 69T235 41Q257 41 277 49T326 77V261ZM119 578V667H208V578H119ZM298 578V667H387V578H298Z" />
<glyph unicode="&#xe5;" glyph-name="aring" horiz-adv-x="501" d="M487 0Q467 -7 456 -9T430 -11Q395 -11 376 7T347 67Q340 61 334 55L324 45Q264 -11 190 -11Q159 -11 133 -1T87 28T56 72T45 127Q45 164 62 195T111 248Q128 260 146 267T188 280T240 287T308
289H326V350Q326 464 239 464Q205 464 175 446Q166 440 161 435T153 423T147 404T143 377L142 368H82V458Q133 480 172 490T253 500Q331 500 377 460Q399 440 407 418T415 353V135Q415 76 425 53T460 29Q466 29 470 30T485 33L487 0ZM326 261H306Q227 261 183 229T139
140Q139 97 166 69T235 41Q257 41 277 49T326 77V261ZM346 640Q346 600 319 575T253 550Q214 550 187 575T160 640Q160 678 187 703T253 729Q272 729 289 723T318 704T338 676T346 640ZM306 639Q306 662 291 677T253 693Q230 693 215 678T199 639Q199 617 214 602T253
586Q275 586 290 601T306 639Z" />
<glyph unicode="&#xe6;" glyph-name="ae" horiz-adv-x="755" d="M707 20Q684 13 670 8Q635 -3 608 -7T553 -11Q487 -11 439 13T353 90Q327 61 306 42T265 11T225 -6T182 -11Q150 -11 124 -1T78 28T47 72T36 127Q36 164 53 195T102 248Q119 260 137 267T179 280T232
287T299 289H317V350Q317 465 230 465Q195 465 165 447Q156 441 151 436T143 424T137 405T133 378L132 369H72V459Q98 471 118 479T157 491T192 498T231 500Q287 500 322 487T383 442Q389 449 394 453T403 461Q451 500 523 500Q611 500 661 434Q685 403 695 366T705
269V261H407V254Q407 143 448 87T568 31Q602 31 634 39T704 64L707 20ZM318 261H297Q218 261 174 229T129 140Q129 97 156 69T226 41Q238 41 248 43T268 50T290 65T318 90V261ZM612 289V320Q612 361 609 382T594 424Q583 444 562 456T518 469Q467 469 438 422T409
289H612Z" />
<glyph unicode="&#xe7;" glyph-name="ccedilla" horiz-adv-x="469" d="M422 17Q402 8 388 3T359 -6T329 -10T288 -13L265 -51Q342 -65 342 -118Q342 -145 318 -161T256 -178Q230 -178 201 -171V-143Q216 -148 232 -148Q252 -148 264 -138T277 -111Q277 -75 221
-66L255 -11Q228 -8 208 -3T172 10T140 30T109 60Q44 133 44 242Q44 300 60 348T107 429T180 481T276 500Q290 500 306 499T339 495Q360 492 376 489T422 478V361H367L366 369Q366 383 363 400Q360 424 356 432Q348 449 327 459T279 470Q213 470 175 412T137 254Q137
150 182 91T305 32Q335 32 367 38T422 55V17Z" />
<glyph unicode="&#xe8;" glyph-name="egrave" horiz-adv-x="489" d="M285 578L126 711H229L326 578H285ZM441 22Q429 17 420 14T404 8Q375 -1 346 -6T287 -11Q233 -11 189 8T112 61T62 143T44 249Q44 304 60 350T104 429T172 481T260 500Q348 500 398 435Q421
404 431 367T441 272V264H143V257Q143 237 143 223T145 198T149 175T155 150Q170 96 209 65T301 34Q339 34 377 43T441 67V22ZM348 321Q348 342 347 357T344 385T338 407T329 427Q318 447 298 459T254 472Q203 472 174 425T144 292H347L348 311V321Z" />
<glyph unicode="&#xe9;" glyph-name="eacute" horiz-adv-x="489" d="M250 578H208L305 711H408L250 578ZM441 22Q429 17 420 14T404 8Q375 -1 346 -6T287 -11Q233 -11 189 8T112 61T62 143T44 249Q44 304 60 350T104 429T172 481T260 500Q348 500 398 435Q421
404 431 367T441 272V264H143V257Q143 237 143 223T145 198T149 175T155 150Q170 96 209 65T301 34Q339 34 377 43T441 67V22ZM348 321Q348 342 347 357T344 385T338 407T329 427Q318 447 298 459T254 472Q203 472 174 425T144 292H347L348 311V321Z" />
<glyph unicode="&#xea;" glyph-name="ecircumflex" horiz-adv-x="489" d="M378 578L267 667L156 578H117L217 711H317L417 578H378ZM441 22Q429 17 420 14T404 8Q375 -1 346 -6T287 -11Q233 -11 189 8T112 61T62 143T44 249Q44 304 60 350T104 429T172 481T260
500Q348 500 398 435Q421 404 431 367T441 272V264H143V257Q143 237 143 223T145 198T149 175T155 150Q170 96 209 65T301 34Q339 34 377 43T441 67V22ZM348 321Q348 342 347 357T344 385T338 407T329 427Q318 447 298 459T254 472Q203 472 174 425T144 292H347L348
311V321Z" />
<glyph unicode="&#xeb;" glyph-name="edieresis" horiz-adv-x="489" d="M441 22Q429 17 420 14T404 8Q375 -1 346 -6T287 -11Q233 -11 189 8T112 61T62 143T44 249Q44 304 60 350T104 429T172 481T260 500Q348 500 398 435Q421 404 431 367T441 272V264H143V257Q143
237 143 223T145 198T149 175T155 150Q170 96 209 65T301 34Q339 34 377 43T441 67V22ZM348 321Q348 342 347 357T344 385T338 407T329 427Q318 447 298 459T254 472Q203 472 174 425T144 292H347L348 311V321ZM121 578V667H210V578H121ZM300 578V667H389V578H300Z"
/>
<glyph unicode="&#xec;" glyph-name="igrave" horiz-adv-x="283" d="M145 578L-14 711H89L186 578H145ZM17 0V28H25L56 31Q69 32 77 33T89 39T94 51T97 72L100 117V372L97 417Q96 430 95 437T89 449T77 455T56 458L25 461H17V489H189V117L192 72Q193 59 194 52T200
40T211 34T233 31L264 28H272V0H17Z" />
<glyph unicode="&#xed;" glyph-name="iacute" horiz-adv-x="283" d="M120 578H78L175 711H278L120 578ZM17 0V28H25L56 31Q69 32 77 33T89 39T94 51T97 72L100 117V372L97 417Q96 430 95 437T89 449T77 455T56 458L25 461H17V489H189V117L192 72Q193 59 194 52T200
40T211 34T233 31L264 28H272V0H17Z" />
<glyph unicode="&#xee;" glyph-name="icircumflex" horiz-adv-x="283" d="M216 578L125 667L34 578H-5L75 711H175L255 578H216ZM17 0V28H25L56 31Q69 32 77 33T89 39T94 51T97 72L100 117V372L97 417Q96 430 95 437T89 449T77 455T56 458L25 461H17V489H189V117L192
72Q193 59 194 52T200 40T211 34T233 31L264 28H272V0H17Z" />
<glyph unicode="&#xef;" glyph-name="idieresis" horiz-adv-x="283" d="M17 0V28H25L57 31Q70 32 78 33T90 39T95 51T98 72L100 117V372L98 417Q97 430 96 437T90 449T78 455T57 458L25 461H17V489H189V117L191 72Q192 59 193 52T199 40T210 34T232 31L264 28H272V0H17ZM8
578V667H97V578H8ZM167 578V667H256V578H167Z" />
<glyph unicode="&#xf0;" glyph-name="eth" horiz-adv-x="556" d="M510 244Q510 189 495 143T451 62T379 9T278 -11Q220 -11 176 8T103 61T59 142T44 244Q44 299 59 346T103 427T176 480T278 500Q289 500 301 499T326 496Q306 526 284 555T235 610L80 501L54 539L201
642Q180 660 162 672T124 695T83 712T34 727V751Q67 750 95 746T149 732T200 710T253 679L359 753L385 715L293 651Q371 591 423 511T498 336Q510 291 510 244ZM417 244Q417 275 410 314T387 389T344 448T278 472Q239 472 212 448T169 389T146 315T139 244Q139
213 146 174T169 100T212 41T278 17Q317 17 344 41T387 99T410 173T417 244Z" />
<glyph unicode="&#xf1;" glyph-name="ntilde" horiz-adv-x="583" d="M443 683Q435 632 408 605T341 578Q327 578 317 581T289 595L273 605Q259 614 249 617T225 620Q184 620 172 578H144Q153 629 179 656T247 683Q261 683 271 680T299 666L315 657Q330 649 339
645T363 641Q407 641 415 683H443ZM328 0V28H336L367 31Q380 32 388 33T400 39T405 51T408 72L411 117V331Q411 366 409 383T398 413Q390 427 373 435T336 443Q315 443 292 435T247 413Q239 407 233 403T221 394T208 383T189 367V117L192 72Q193 59 194 52T200
40T211 34T233 31L264 28H272V0H17V28H25L56 31Q69 32 77 33T89 39T94 51T97 72L100 117V372L97 417Q96 430 95 437T89 449T77 455T56 458L25 461H17V489H189V397Q221 445 267 472T365 500Q428 500 464 459T500 344V117L503 72Q504 46 511 40T544 31L575 28H583V0H328Z"
/>
<glyph unicode="&#xf2;" glyph-name="ograve" horiz-adv-x="556" d="M303 578L145 711H248L344 578H303ZM510 244Q510 185 494 138T448 57T374 7T278 -11Q224 -11 181 6T107 57T60 137T44 244Q44 304 60 351T106 432T180 482T278 500Q331 500 374 483T447 432T494
352T510 244ZM417 244Q417 293 407 335T377 407T333 455T278 472Q248 472 223 455T179 408T150 335T139 244Q139 195 149 154T178 82T222 34T278 17Q308 17 333 34T377 81T406 153T417 244Z" />
<glyph unicode="&#xf3;" glyph-name="oacute" horiz-adv-x="556" d="M265 578H223L320 711H423L265 578ZM510 244Q510 185 494 138T448 57T374 7T278 -11Q224 -11 181 6T107 57T60 137T44 244Q44 304 60 351T106 432T180 482T278 500Q331 500 374 483T447 432T494
352T510 244ZM417 244Q417 293 407 335T377 407T333 455T278 472Q248 472 223 455T179 408T150 335T139 244Q139 195 149 154T178 82T222 34T278 17Q308 17 333 34T377 81T406 153T417 244Z" />
<glyph unicode="&#xf4;" glyph-name="ocircumflex" horiz-adv-x="556" d="M398 578L287 667L176 578H137L237 711H337L437 578H398ZM510 244Q510 185 494 138T448 57T374 7T278 -11Q224 -11 181 6T107 57T60 137T44 244Q44 304 60 351T106 432T180 482T278 500Q331
500 374 483T447 432T494 352T510 244ZM417 244Q417 293 407 335T377 407T333 455T278 472Q248 472 223 455T179 408T150 335T139 244Q139 195 149 154T178 82T222 34T278 17Q308 17 333 34T377 81T406 153T417 244Z" />
<glyph unicode="&#xf5;" glyph-name="otilde" horiz-adv-x="556" d="M439 683Q431 632 404 605T337 578Q323 578 313 581T285 595L269 605Q255 614 245 617T221 620Q180 620 168 578H140Q149 629 175 656T243 683Q257 683 267 680T295 666L311 657Q326 649 335
645T359 641Q403 641 411 683H439ZM510 244Q510 185 494 138T448 57T374 7T278 -11Q224 -11 181 6T107 57T60 137T44 244Q44 304 60 351T106 432T180 482T278 500Q331 500 374 483T447 432T494 352T510 244ZM417 244Q417 293 407 335T377 407T333 455T278 472Q248
472 223 455T179 408T150 335T139 244Q139 195 149 154T178 82T222 34T278 17Q308 17 333 34T377 81T406 153T417 244Z" />
<glyph unicode="&#xf6;" glyph-name="odieresis" horiz-adv-x="556" d="M510 244Q510 185 494 138T448 57T374 7T278 -11Q224 -11 181 6T107 57T60 137T44 244Q44 304 60 351T106 432T180 482T278 500Q331 500 374 483T447 432T494 352T510 244ZM417 244Q417 293
407 335T377 407T333 455T278 472Q248 472 223 455T179 408T150 335T139 244Q139 195 149 154T178 82T222 34T278 17Q308 17 333 34T377 81T406 153T417 244ZM154 578V667H243V578H154ZM333 578V667H422V578H333Z" />
<glyph unicode="&#xf7;" glyph-name="divide" horiz-adv-x="561" d="M239 408V492H322V408H239ZM36 242V292H525V242H36ZM239 42V125H322V42H239Z" />
<glyph unicode="&#xf8;" glyph-name="oslash" horiz-adv-x="556" d="M510 244Q510 185 494 138T448 58T376 7T281 -11Q259 -11 236 -8T192 2Q173 8 161 14T128 35L88 -11H44L104 59Q73 100 59 144T44 245Q44 303 60 350T106 430T178 482T272 500Q295 500 318 496T363
484Q380 478 391 471T424 449L465 500H510L447 425Q465 404 473 391T490 358Q510 306 510 244ZM381 397Q371 417 364 427T342 448Q310 472 278 472Q249 472 224 454T179 405T150 332T139 242Q139 220 142 199Q144 178 148 164T161 127L381 397ZM417 241Q417 253
416 266T413 294Q410 316 407 328T394 361L177 90Q194 57 221 37T275 17Q305 17 330 34T375 82T405 153T417 241Z" />
<glyph unicode="&#xf9;" glyph-name="ugrave" horiz-adv-x="583" d="M394 0V92Q363 44 316 17T218 -11Q155 -11 119 30T83 144V372L81 417Q80 430 79 437T73 449T60 455T39 458L8 461H0V489H172V158Q172 125 175 107T187 76Q206 46 252 46Q273 46 291 52T338 76Q350
83 357 88T371 99T382 109L394 121V372L392 417Q391 430 390 437T384 449T371 455T350 458L319 461H311V489H483V117L486 72Q487 59 488 52T494 40T506 34T528 31L558 28H567V0H394ZM298 578L139 711H242L339 578H298Z" />
<glyph unicode="&#xfa;" glyph-name="uacute" horiz-adv-x="583" d="M394 0V92Q363 44 316 17T218 -11Q155 -11 119 30T83 144V372L81 417Q80 430 79 437T73 449T60 455T39 458L8 461H0V489H172V158Q172 125 175 107T187 76Q206 46 252 46Q273 46 291 52T338 76Q350
83 357 88T371 99T382 109L394 121V372L392 417Q391 430 390 437T384 449T371 455T350 458L319 461H311V489H483V117L486 72Q487 59 488 52T494 40T506 34T528 31L558 28H567V0H394ZM248 578H206L303 711H406L248 578Z" />
<glyph unicode="&#xfb;" glyph-name="ucircumflex" horiz-adv-x="583" d="M394 0V92Q363 44 316 17T218 -11Q155 -11 119 30T83 144V372L81 417Q80 430 79 437T73 449T60 455T39 458L8 461H0V489H172V158Q172 125 175 107T187 76Q206 46 252 46Q273 46 291 52T338
76Q350 83 357 88T371 99T382 109L394 121V372L392 417Q391 430 390 437T384 449T371 455T350 458L319 461H311V489H483V117L486 72Q487 59 488 52T494 40T506 34T528 31L558 28H567V0H394ZM386 578L275 667L164 578H125L225 711H325L425 578H386Z" />
<glyph unicode="&#xfc;" glyph-name="udieresis" horiz-adv-x="589" d="M405 0V92Q374 44 327 17T229 -11Q166 -11 130 30T94 144V372L92 417Q91 430 90 437T84 449T71 455T50 458L19 461H11V489H183V158Q183 125 186 107T198 76Q217 46 263 46Q284 46 302 52T349
76Q361 83 368 88T382 99T393 109L405 121V372L403 417Q402 430 401 437T395 449T382 455T361 458L330 461H322V489H494V117L497 72Q498 59 499 52T505 40T517 34T539 31L569 28H578V0H405ZM339 578V667H428V578H339ZM160 578V667H249V578H160Z" />
<glyph unicode="&#xfd;" glyph-name="yacute" horiz-adv-x="508" d="M265 578H223L320 711H423L265 578ZM500 461Q486 461 476 451T459 427T446 398T435 371L187 -178H75L235 0L81 370Q67 405 59 422T43 447Q31 461 9 461H0V489H223V461H185Q153 461 153 445Q153
440 156 430T163 408T172 386T178 371L288 108Q292 117 304 143T332 205T365 280T396 354T420 412T430 442Q430 452 423 456T397 461H363V489H508V461H500Z" />
<glyph unicode="&#xfe;" glyph-name="thorn" horiz-adv-x="592" d="M542 259Q542 211 531 163T495 76T431 13T336 -11Q291 -11 255 6T189 56V-61Q189 -72 190 -83T192 -106Q193 -120 194 -127T200 -139T211 -144T233 -147Q243 -148 252 -148T272 -150V-178H17V-150Q27
-148 36 -148T56 -147Q69 -146 77 -145T89 -139T94 -128T97 -106Q98 -95 99 -84T100 -61V594Q100 605 99 616T97 639Q96 653 95 660T89 672T77 677T56 680Q46 682 37 683T17 683V711H189V397Q218 442 262 471T361 500Q411 500 445 478T501 422T532 344T542 259ZM447
235Q447 283 438 331Q433 355 426 375T405 410T374 433T328 442Q287 442 250 420T189 366V90Q220 67 252 53T324 38Q363 38 387 57T424 106T442 170T447 235Z" />
<glyph unicode="&#xff;" glyph-name="ydieresis" horiz-adv-x="508" d="M500 461Q486 461 476 451T459 427T446 398T435 371L187 -178H75L235 0L81 370Q67 405 59 422T43 447Q31 461 9 461H0V489H223V461H185Q153 461 153 445Q153 440 156 430T163 408T172 386T178
371L288 108Q292 117 304 143T332 205T365 280T396 354T420 412T430 442Q430 452 423 456T397 461H363V489H508V461H500ZM122 578V667H211V578H122ZM301 578V667H390V578H301Z" />
<glyph unicode="&#x131;" glyph-name="dotlessi" horiz-adv-x="283" d="M17 0V28H25L56 31Q69 32 77 33T89 39T94 51T97 72L100 117V372L97 417Q96 430 95 437T89 449T77 455T56 458L25 461H17V489H189V117L192 72Q193 59 194 52T200 40T211 34T233 31L264 28H272V0H17Z" />
<glyph unicode="&#x141;" glyph-name="Lslash" horiz-adv-x="514" d="M19 0V28H25Q33 27 41 28T58 31Q71 32 79 34T91 39T97 50T100 72Q101 83 102 94T103 117V276L30 225L-2 271L103 344V550Q103 561 102 572L100 594Q99 607 98 615T92 627T79 633T58 636Q48
637 39 637T19 639V667H280V639Q270 637 261 637T241 636Q227 635 220 634T208 628T202 615T199 594L197 572Q196 561 196 550L197 397L360 512L392 466L197 329L196 104Q196 81 197 68T205 49T223 41T259 39H336Q375 39 413 44Q432 47 439 53T448 79V94Q448 104
449 112Q449 122 450 133H497V0H19Z" />
<glyph unicode="&#x142;" glyph-name="lslash" horiz-adv-x="289" d="M189 387V115Q189 104 190 94T192 72Q193 58 194 51T200 40T212 34T233 31Q243 30 252 29T272 28V0H17V28H23Q31 27 39 28T56 31Q69 32 76 34T88 40T94 51T97 72Q98 83 99 93T100 115V307L34
241L-5 281L100 389V607Q100 618 99 623T97 639Q96 652 95 660T89 672T77 678T56 681Q46 682 37 683T17 683V711H189V466L266 551L305 511L189 387Z" />
<glyph unicode="&#x152;" glyph-name="OE" horiz-adv-x="935" d="M507 0V29Q471 5 435 -6T353 -17Q285 -17 228 8T128 81Q86 129 67 190T47 333Q47 416 66 477T128 586Q170 634 226 659T348 684Q367 684 386 682T424 674Q437 671 447 668T466 660T485 649T508
634V667H889V551H838L837 559Q835 575 835 584V597Q835 620 830 625T802 631L755 632H610V364H738L766 365Q787 366 791 369T797 390V399Q797 404 798 411L799 419H840V272H799L798 281Q795 305 795 311T791 320Q788 323 772 325T738 328H610V117Q610 95 613 75T621
50Q631 39 686 39H758L821 42Q844 43 851 49T860 73L862 106L863 114H913V0H507ZM508 392Q508 431 507 460T503 512T495 552T483 583Q467 615 432 634T355 654Q306 654 268 632T203 569T162 469T148 334Q148 260 162 201T203 100T267 36T352 13Q387 13 422 30T474
75Q493 105 500 150T508 270V392Z" />
<glyph unicode="&#x153;" glyph-name="oe" horiz-adv-x="838" d="M790 21Q778 16 769 13L754 8Q693 -11 637 -11Q555 -11 499 28Q492 33 487 37T475 48T460 62T440 83Q422 59 412 49T390 28Q367 10 335 0T270 -11Q220 -11 179 7T107 59T61 140T44 244Q44 302 60
349T106 430T178 482T274 500Q382 500 437 409Q474 458 513 479T608 500Q697 500 747 435Q770 404 780 367T790 272V263H491V256Q491 148 531 91T650 34Q688 34 725 42T790 66V21ZM396 252Q396 471 281 471Q250 471 224 454T179 407T150 334T139 244Q139 195 149
154T179 82T223 34T280 17Q340 17 368 74T396 252ZM695 292V322Q695 343 694 358T691 386T686 407T677 427Q666 447 645 459T601 472Q549 472 521 424T491 292H695Z" />
<glyph unicode="&#x160;" glyph-name="Scaron" horiz-adv-x="500" d="M309 723H209L109 857H148L259 768L370 857H409L309 723ZM458 177Q458 135 442 100T396 38T328 -2T242 -17Q225 -17 203 -15T152 -9Q131 -6 118 -5T95 -1T75 5T53 13V142H102Q102 131 102 121T104
100Q104 87 105 79T110 65T121 54T140 42Q186 17 239 17Q298 17 331 51T364 145Q364 170 360 189T343 225T311 257T259 290L211 316Q169 338 140 360T93 405T67 452T58 505Q58 544 72 576T113 632T174 669T252 683Q291 683 329 677T420 655V536H370Q370 547 369
557T368 579Q368 606 363 617T340 636Q303 653 256 653Q208 653 179 622T149 537Q149 515 153 498T169 465T199 435T244 405L291 378Q318 362 341 348T383 321Q458 266 458 177Z" />
<glyph unicode="&#x161;" glyph-name="scaron" horiz-adv-x="465" d="M417 136Q417 104 404 77T366 31T307 0T233 -11Q196 -11 158 -4Q142 -1 131 1T109 7T87 14T62 25V149H112Q112 145 112 144T113 139T114 125T117 94Q119 76 124 66T141 46Q160 32 185 25T236
17Q277 17 303 41T329 105Q329 139 312 159T250 196L204 214Q159 232 125 253Q97 271 81 300T65 363Q65 393 77 418T112 461T166 490T232 500Q270 500 305 493T381 471V355H332V365Q332 369 331 377T328 404Q326 429 321 438T300 456Q271 472 239 472Q200 472 175
447T149 383Q149 367 153 355T169 333T201 312T253 288L295 271Q318 262 335 253T367 234Q390 219 403 193T417 136ZM298 578H198L98 711H137L248 623L359 711H398L298 578Z" />
<glyph unicode="&#x178;" glyph-name="Ydieresis" horiz-adv-x="625" d="M625 639Q621 639 620 639T616 638T608 638T592 637Q583 637 578 636T568 632T561 624T552 611L511 547L356 295V117L358 72Q359 46 366 40T400 31L431 28H439V0H178V28H186L217 31Q230
32 238 33T250 39T255 51T258 72L261 117V295Q227 351 201 394T155 469L100 562Q79 597 74 604Q67 615 63 621T55 631T47 636T35 637Q23 637 18 637T10 638T6 638T0 639V667H258V639H248Q245 639 239 639T218 638Q185 636 185 623Q185 618 190 607T202 582T215
559T222 547L346 337L476 547Q493 575 504 596T515 625Q515 632 507 634T478 638Q467 638 462 638T453 639H444V667H625V639ZM369 738V827H458V738H369ZM190 738V827H279V738H190Z" />
<glyph unicode="&#x17d;" glyph-name="Zcaron" horiz-adv-x="583" d="M346 723H247L147 857H186L297 768L407 857H446L346 723ZM50 0V36L408 631H202Q190 631 179 631T156 629Q144 629 137 628T125 624T120 615T118 595Q117 579 117 564T116 533H67V667H514V636L159
42H364Q382 42 399 43T435 45Q454 46 459 50T466 74Q467 88 468 101T468 128H517V0H50Z" />
<glyph unicode="&#x17e;" glyph-name="zcaron" horiz-adv-x="549" d="M61 0V28L367 455H165Q149 455 141 454T129 449T124 438T123 418Q123 413 123 406T122 392Q121 384 121 376H74V489H474V461L168 33H340Q352 33 360 33T377 34T402 35Q425 36 432 42T439 68V113H486V0H61ZM328
578H228L128 711H167L278 623L389 711H428L328 578Z" />
<glyph unicode="&#x2c6;" glyph-name="circumflex" horiz-adv-x="555" d="M389 578L278 667L167 578H128L228 711H328L428 578H389Z" />
<glyph unicode="&#x2c7;" glyph-name="caron" horiz-adv-x="555" d="M328 578H228L128 711H167L278 623L389 711H428L328 578Z" />
<glyph unicode="&#x2d8;" glyph-name="breve" horiz-adv-x="555" d="M428 711Q419 650 379 614T278 578Q218 578 177 614T128 711H157Q168 675 195 660T275 644Q330 644 358 659T398 711H428Z" />
<glyph unicode="&#x2d9;" glyph-name="dotaccent" horiz-adv-x="556" d="M233 578V667H322V578H233Z" />
<glyph unicode="&#x2da;" glyph-name="ring" horiz-adv-x="556" d="M359 660Q359 625 336 602T278 578Q244 578 221 601T197 660Q197 694 220 717T278 741Q312 741 335 718T359 660ZM331 659Q331 682 316 697T278 713Q255 713 240 698T224 659Q224 637 239 622T278
606Q300 606 315 621T331 659Z" />
<glyph unicode="&#x2db;" glyph-name="ogonek" horiz-adv-x="556" d="M374 -125Q342 -133 309 -133Q270 -133 246 -118T221 -77Q221 -58 231 -45T270 -12L288 0H342Q288 -38 288 -70Q288 -86 301 -95T336 -105Q345 -105 352 -104T374 -97V-125Z" />
<glyph unicode="&#x2dc;" glyph-name="tilde" horiz-adv-x="556" d="M427 683Q419 632 392 605T325 578Q311 578 301 581T273 595L257 605Q243 614 233 617T209 620Q168 620 156 578H128Q137 629 163 656T231 683Q245 683 255 680T283 666L299 657Q314 649 323
645T347 641Q391 641 399 683H427Z" />
<glyph unicode="&#x2dd;" glyph-name="hungarumlaut" horiz-adv-x="556" d="M323 578H296L395 711H462L323 578ZM191 578H164L264 711H330L191 578Z" />
<glyph unicode="&#x394;" glyph-name="Delta" horiz-adv-x="714" d="M45 0V61L351 672H381L667 61V0H45ZM331 561L82 64H563L331 561Z" />
<glyph unicode="&#x3a9;" glyph-name="Omega" horiz-adv-x="763" d="M450 0V58Q490 102 518 142T564 222T590 301T599 384Q599 442 583 491T538 575T469 630T382 650Q334 650 294 631T224 576T179 491T163 384Q163 341 171 302T198 223T244 143T313 58V0H47V142H97L98
133L99 92Q100 75 108 69T139 61L202 58H274Q215 107 175 149T110 230T74 307T63 386Q63 450 87 504T154 598T255 660T382 683Q450 683 508 661T609 598T675 503T699 383Q699 342 688 305T652 230T588 149T490 58H561L625 61Q648 62 655 68T664 92L666 133V142H715V0H450Z"
/>
<glyph unicode="&#x3c0;" glyph-name="pi" horiz-adv-x="741" d="M573 428V173Q573 125 593 79Q599 67 604 57T617 38T633 20T656 0L561 -8Q548 4 542 11T528 28Q512 51 503 74Q495 95 490 130T484 195V428H273V0H184V428H164Q140 428 127 426T97 417Q77 410 66
403T37 378V452Q46 461 52 465T71 475Q90 483 106 486T151 489H713V428H573Z" />
<glyph unicode="&#x2013;" glyph-name="endash" horiz-adv-x="461" d="M44 244V300H417V244H44Z" />
<glyph unicode="&#x2014;" glyph-name="emdash" horiz-adv-x="922" d="M50 244V289H872V244H50Z" />
<glyph unicode="&#x2018;" glyph-name="quoteleft" horiz-adv-x="244" d="M67 456V605Q67 616 71 627T82 649Q116 708 179 711V683Q164 682 157 678T143 660Q140 654 138 650T136 639T135 622T134 596V567H179V456H67Z" />
<glyph unicode="&#x2019;" glyph-name="quoteright" horiz-adv-x="244" d="M178 711V579Q178 566 177 562Q175 541 162 517Q146 489 122 474T67 456V484Q81 486 88 490T102 507Q105 513 107 518T109 529T110 545T111 571V600H67V711H178Z" />
<glyph unicode="&#x201a;" glyph-name="quotesinglbase" horiz-adv-x="244" d="M178 111V-21Q178 -34 177 -38Q175 -59 162 -83Q146 -111 122 -126T67 -144V-116Q81 -114 88 -110T102 -93Q105 -87 107 -82T109 -71T110 -55T111 -29V0H67V111H178Z" />
<glyph unicode="&#x201c;" glyph-name="quotedblleft" horiz-adv-x="422" d="M244 456V552Q244 575 244 588T245 605Q247 627 260 649Q293 708 356 711V683Q341 682 334 678T320 660Q317 654 315 650T313 639T312 623T311 596V567H356V456H244ZM67 456V605Q67
616 71 627T82 649Q116 708 179 711V683Q164 682 157 678T143 660Q140 654 138 650T136 639T135 622T134 596V567H179V456H67Z" />
<glyph unicode="&#x201d;" glyph-name="quotedblright" horiz-adv-x="422" d="M356 615Q356 592 356 579T355 562Q353 541 340 517Q324 489 300 474T244 456V484Q259 486 266 490T280 507Q283 513 285 517T287 529T288 545T289 571V600H244V711H356V615ZM178 711V579Q178
566 177 562Q175 541 162 517Q146 489 122 474T67 456V483Q81 485 88 489T102 506Q105 512 107 517T109 528T110 545T111 571V600H67V711H178Z" />
<glyph unicode="&#x201e;" glyph-name="quotedblbase" horiz-adv-x="422" d="M356 15Q356 -8 356 -21T355 -38Q353 -59 340 -83Q324 -111 300 -126T244 -144V-116Q259 -114 266 -110T280 -93Q283 -87 285 -83T287 -71T288 -55T289 -29V0H244V111H356V15ZM178 111V-21Q178
-34 177 -38Q175 -59 162 -83Q146 -111 122 -126T67 -144V-117Q81 -115 88 -111T102 -94Q105 -88 107 -83T109 -72T110 -55T111 -29V0H67V111H178Z" />
<glyph unicode="&#x2020;" glyph-name="dagger" horiz-adv-x="561" d="M303 386L325 -133H236L258 386L86 367V433L258 414L236 667H325L303 414L475 433V367L303 386Z" />
<glyph unicode="&#x2021;" glyph-name="daggerdbl" horiz-adv-x="561" d="M303 119L325 -133H236L258 119L86 100V167L258 147V386L86 367V433L258 414L236 667H325L303 414L475 433V367L303 386V147L475 167V100L303 119Z" />
<glyph unicode="&#x2022;" glyph-name="bullet" horiz-adv-x="561" d="M347 264Q347 236 328 217T281 197Q253 197 234 216T214 264Q214 291 233 310T281 330Q308 330 327 311T347 264Z" />
<glyph unicode="&#x2026;" glyph-name="ellipsis" horiz-adv-x="922" d="M724 0V89H813V0H724ZM417 0V89H506V0H417ZM109 0V89H198V0H109Z" />
<glyph unicode="&#x2030;" glyph-name="perthousand" horiz-adv-x="944" d="M935 168Q935 130 925 99T896 46T851 12T793 0Q762 0 736 12T691 46T662 99T651 168Q651 205 661 235T691 288T736 322T793 334Q824 334 850 322T895 288T924 236T935 168ZM293 501Q293
464 283 434T254 381T209 347T151 334Q120 334 94 346T50 381T21 433T10 501Q10 537 20 567T49 620T94 654T151 667Q182 667 208 655T253 620T282 568T293 501ZM71 -17H15L551 683H607L71 -17ZM613 168Q613 130 603 99T573 46T528 12T471 0Q439 0 413 12T369 46T340
99T329 168Q329 205 339 235T368 288T413 322T471 334Q502 334 528 322T573 288T602 236T613 168ZM868 167Q868 240 851 273T793 306Q754 306 736 273T718 167Q718 93 736 61T793 28Q833 28 850 60T868 167ZM226 501Q226 573 209 606T152 639Q113 639 95 606T77
501Q77 428 95 395T152 362Q191 362 208 395T226 501ZM546 166Q546 240 528 273T471 306Q431 306 414 273T396 167Q396 93 413 61T471 28Q510 28 528 60T546 166Z" />
<glyph unicode="&#x2039;" glyph-name="guilsinglleft" horiz-adv-x="313" d="M235 50L44 244L235 439L257 422L134 244L257 68L235 50Z" />
<glyph unicode="&#x203a;" glyph-name="guilsinglright" horiz-adv-x="313" d="M78 50L56 67L179 244L56 421L78 439L268 244L78 50Z" />
<glyph unicode="&#x2044;" glyph-name="fraction" horiz-adv-x="33" d="M-202 -17H-264L235 683H297L-202 -17Z" />
<glyph unicode="&#x20ac;" glyph-name="Euro" horiz-adv-x="561" d="M484 523Q482 532 482 541T483 559Q483 581 480 599T457 632Q442 644 419 649T376 654Q327 654 292 632T233 574T195 495T174 412H403V384H171Q170 371 170 359T169 332V310Q169 300 171 289H403V261H174Q182
218 200 177T246 102T313 49T401 28Q433 28 470 37T534 62V20Q499 0 455 -8T370 -17Q307 -17 258 5T173 65T114 153T79 261H0V289H76Q75 300 75 310T74 332Q74 358 77 384H0V412H80Q92 472 114 522T172 608T257 664T373 684Q416 684 458 676T539 651V523H484Z"
/>
<glyph unicode="&#x2122;" glyph-name="trademark" horiz-adv-x="833" d="M681 328V617L589 356H560L469 598V328H364V356H425V639H364V667H524L600 467L668 667H809V639H748V356H809V328H681ZM297 578V639H214V356H275V328H86V356H147V639H64V578H25V667H336V578H297Z" />
<glyph unicode="&#x2202;" glyph-name="partialdiff" horiz-adv-x="561" d="M479 411Q479 320 459 243T403 110T318 21T211 -11Q149 -11 112 31T75 144Q75 204 99 266T168 376Q203 414 243 435T321 456Q351 456 381 442Q402 432 416 420T451 378Q451 408 450 429T446
468T438 501T425 535Q402 587 357 616T255 645Q214 645 174 629T96 582Q103 598 109 609T122 630T136 647T153 665Q213 722 284 722Q377 722 428 641T479 411ZM448 339Q425 381 393 405T327 430Q294 430 263 410T209 356T172 278T158 185Q158 123 182 85T245 46Q281
46 315 68T376 130T423 223T448 339Z" />
<glyph unicode="&#x220f;" glyph-name="product" horiz-adv-x="711" d="M431 0V28H439L470 31Q483 32 491 33T503 39T508 51T511 72L514 117V631H196V117L199 72Q200 59 201 52T207 40T219 34T241 31L271 28H280V0H19V28H28L58 31Q71 32 79 34T91 40T97 51T100
72L103 117V550L100 594Q99 607 98 615T92 627T79 633T58 636L28 638L19 639V667H692V639L684 638L653 636Q639 635 632 634T620 628T614 615T611 594L609 550V117L611 72Q612 46 619 40T653 31L684 28H692V0H431Z" />
<glyph unicode="&#x2211;" glyph-name="summation" horiz-adv-x="618" d="M32 0V64L334 314L54 625V667H560V551H510L509 559Q507 578 507 587V597Q507 620 502 625T474 631L427 632H180L426 354L81 64H424L487 67Q510 68 517 74T526 98L528 139L529 147H579V0H32Z" />
<glyph unicode="&#x2212;" glyph-name="minus" horiz-adv-x="561" d="M36 243V293H525V243H36Z" />
<glyph unicode="&#x2215;" glyph-name="fraction" horiz-adv-x="33" d="M-202 -17H-264L235 683H297L-202 -17Z" />
<glyph unicode="&#x2219;" glyph-name="periodcentered" horiz-adv-x="561" d="M233 219V314H328V219H233Z" />
<glyph unicode="&#x221a;" glyph-name="radical" horiz-adv-x="656" d="M369 -133H323L135 215L59 172L44 196L164 266L356 -88L640 734H669L369 -133Z" />
<glyph unicode="&#x221e;" glyph-name="infinity" horiz-adv-x="778" d="M723 273Q723 232 711 196T677 134T626 93T562 78Q497 78 447 132Q438 141 432 149T418 168T402 191T381 223Q341 146 301 112T209 78Q177 78 149 92T101 130T68 186T56 255Q56 297 68 333T103
397T154 440T217 456Q242 456 264 449T308 423T352 376T402 305Q411 321 417 332T429 352T440 368T452 385Q478 419 509 437T572 456Q603 456 630 442T678 403T711 345T723 273ZM674 279Q674 307 666 330T642 371T607 398T563 408Q537 408 511 394T464 354Q458
346 453 339T444 325T434 307T420 282Q431 265 439 254T453 235T464 219T475 205Q527 142 574 142Q593 142 611 153T643 184T665 228T674 279ZM361 247Q346 270 338 281T320 306Q258 387 206 387Q185 387 167 376T135 346T113 301T105 246Q105 219 113 197T135
157T170 131T213 121Q256 121 292 151T361 247Z" />
<glyph unicode="&#x222b;" glyph-name="integral'" horiz-adv-x="561" d="M448 626Q448 606 435 593T405 579Q389 579 379 590T368 618Q368 636 383 650Q377 652 374 652T366 653Q353 653 343 645T327 625Q319 603 319 571V473Q319 448 320 425L324 292V252Q324
149 316 76T291 -43T246 -111T180 -133Q150 -133 130 -117T109 -77Q109 -59 122 -46T154 -32Q171 -32 181 -42T192 -69Q192 -78 189 -84T176 -101Q185 -105 191 -105Q202 -105 211 -99Q227 -90 234 -72Q237 -64 238 -58T240 -41T241 -15V76Q241 101 240 125L235
257V295Q235 363 237 414T245 503T260 571T284 625Q298 651 323 667T378 683Q407 683 427 667T448 626Z" />
<glyph unicode="&#x2248;" glyph-name="approxequal" horiz-adv-x="561" d="M525 239Q510 92 406 92Q393 92 382 93T359 99T330 110T292 129L237 157L202 176Q161 198 134 198Q107 198 91 176T64 106H36Q41 178 71 218T153 258H158Q184 258 208 247L231 235Q246
228 269 216L325 187L358 170Q373 162 392 157T426 151Q440 151 453 158T475 178Q483 189 487 201T497 239H525ZM525 428Q510 281 406 281Q393 281 382 282T359 288T330 299T292 318L237 346L202 365Q161 387 134 387Q107 387 91 365T64 294H36Q41 367 71 407T153
447H158Q184 447 208 436Q216 432 231 424T269 405L325 376L358 359Q373 351 392 346T426 340Q440 340 453 347T475 367Q483 378 487 390T497 428H525Z" />
<glyph unicode="&#x2260;" glyph-name="notequal" horiz-adv-x="561" d="M254 164L198 64H140L197 164H36V214H226L288 319H36V369H316L373 469H428L373 369H525V319H344L284 214H525V164H254Z" />
<glyph unicode="&#x2264;" glyph-name="lessequal" horiz-adv-x="561" d="M36 331L525 572V519L145 331L525 143V89L36 331ZM36 0V50H525V0H36Z" />
<glyph unicode="&#x2265;" glyph-name="greaterequal" horiz-adv-x="561" d="M36 89V142L417 331L36 518V572L525 331L36 89ZM36 0V50H525V0H36Z" />
<glyph unicode="&#x25ca;" glyph-name="lozenge" horiz-adv-x="561" d="M281 0L36 244L281 489L525 244L281 0ZM281 416L107 244L281 72L458 244L281 416Z" />
<glyph unicode="&#xe481;" glyph-name="efhomemark" horiz-adv-x="779" d="M311 688L788 390L767 329L340 591L68 45L-8 80L311 688ZM355 541L524 438L498 378L387 442L356 379L469 314L440 251L258 348L355 541ZM242 315L426 219L396 152L274 213L240 145L366
86L334 17L139 108L242 315ZM554 420L711 321L687 267L582 329L554 267L660 207L633 149L470 235L554 420ZM456 203L619 117L591 55L486 110L426 -25L366 2L456 203Z" />
<glyph unicode="&#xf6bc;" glyph-name="Emdash" horiz-adv-x="922" d="M50 311V356H872V311H50Z" />
<glyph unicode="&#xf6cb;" glyph-name="Dieresis" horiz-adv-x="556" d="M144 738V827H233V738H144ZM323 738V827H412V738H323Z" />
<glyph unicode="&#xfb01;" glyph-name="fi" horiz-adv-x="606" d="M339 0V28H347L378 31Q391 32 399 33T411 39T416 51T419 72L422 117V453H200V117L203 72Q205 44 210 39Q214 35 230 32T269 28H283V0H28V28H36L67 31Q80 32 88 33T100 39T105 51T108 72L111 117V453H39V489H111V519Q111
550 112 572T117 610T127 640T142 667Q160 693 190 707T255 722Q283 722 307 715T360 689V583H310V592Q309 600 309 611T308 636Q307 694 258 694Q249 694 240 691T224 683Q211 673 206 654Q204 646 203 640T201 624T200 600V489H511V117L514 72Q515 59 516 52T522
40T534 34T556 31L586 28H594V0H339ZM433 578V667H511V578H433Z" />
<glyph unicode="&#xfb02;" glyph-name="fl" horiz-adv-x="611" d="M339 0V28H347L378 31Q391 32 399 33T411 39T416 51T419 72L422 117V647Q387 670 354 681T287 692Q239 692 220 668T200 583V489H322V453H200V117L203 72Q205 44 210 39Q214 35 230 32T269 28H283V0H28V28H36L67
31Q80 32 88 33T100 39T105 51T108 72L111 117V453H39V489H111V536Q111 722 276 722Q288 722 297 722T316 720T337 717T364 711H511V117L514 72Q515 59 516 52T522 40T534 34T556 31L586 28H594V0H339Z" />
</font>
</defs>
</svg>
